<?xml version="1.0"?>
<svg xmlns="http://www.w3.org/2000/svg" height="512px" viewBox="0 -8 511.04272 511" width="512px"><g><path d="m373.789062 229.324219c-4.855468-11.214844-11.40625-21.617188-19.425781-30.839844-4.214843 4.378906-8.46875 8.769531-12.800781 13.203125 7.964844 9.417969 14.855469 19.695312 20.542969 30.636719 3.96875-4.324219 7.835937-8.65625 11.683593-13zm0 0" data-original="#000000" class="active-path" data-old_color="#000000" fill="#F7DC5F"/><path d="m301.148438 194.1875c-5.21875-5.273438-10.832032-10.476562-16.730469-15.726562-4.1875 4.105468-8.363281 8.230468-12.578125 12.410156l-.542969.546875c5.617187 5.011719 11.230469 10.210937 16.777344 15.761719 5.550781 5.550781 10.746093 11.15625 15.765625 16.785156l.546875-.539063c4.234375-4.242187 8.3125-8.402343 12.40625-12.578125-5.285157-5.898437-10.429688-11.503906-15.644531-16.660156zm0 0" data-original="#000000" class="active-path" data-old_color="#000000" fill="#F7DC5F"/><path d="m342.457031 184.496094c-4.855469-5.484375-9.910156-10.972656-15.332031-16.375s-10.890625-10.46875-16.367188-15.324219c-4.382812 4.214844-8.792968 8.5-13.238281 12.855469 5.835938 5.222656 11.394531 10.394531 16.558594 15.609375 5.164063 5.210937 10.324219 10.648437 15.542969 16.457031 4.347656-4.445312 8.625-8.851562 12.835937-13.222656zm0 0" data-original="#000000" class="active-path" data-old_color="#000000" fill="#F7DC5F"/><path d="m494.804688 31.710938c-2.148438 3.539062-4.761719 7.523437-7.6875 11.832031 1.386718 1.570312 2.824218 3.152343 4.140624 4.699219 1.613282-5.410157 2.796876-10.9375 3.546876-16.53125zm0 0" data-original="#000000" class="active-path" data-old_color="#000000" fill="#F7DC5F"/><path d="m322.570312 283c-4.652343-11.855469-11.410156-22.773438-19.949218-32.226562-4.351563 4.316406-8.710938 8.582031-13.074219 12.800781 8.070313 9.628906 15.050781 20.121093 20.808594 31.285156 4.160156-3.941406 8.175781-7.898437 12.214843-11.859375zm0 0" data-original="#000000" class="active-path" data-old_color="#000000" fill="#F7DC5F"/><path d="m324.054688 140.144531c5.355468 4.792969 10.722656 9.753907 16.007812 15.050781 5.285156 5.292969 10.265625 10.660157 15.046875 16.015626 4.289063-4.570313 8.523437-9.050782 12.65625-13.503907-4.453125-5.007812-9.144531-10.101562-14.628906-15.542969-5.484375-5.4375-10.550781-10.175781-15.542969-14.628906-4.484375 4.109375-9 8.3125-13.539062 12.609375zm0 0" data-original="#000000" class="active-path" data-old_color="#000000" fill="#F7DC5F"/><path d="m351.035156 115c4.863282 4.382812 9.84375 9.027344 15.019532 14.199219 5.175781 5.175781 9.847656 10.1875 14.207031 15.023437 4.269531-4.636718 8.421875-9.210937 12.464843-13.714844-4.382812-4.84375-8.886718-9.671874-13.597656-14.382812-4.707031-4.707031-9.535156-9.214844-14.382812-13.59375-4.507813 4.058594-9.082032 8.214844-13.710938 12.46875zm0 0" data-original="#000000" class="active-path" data-old_color="#000000" fill="#F7DC5F"/><path d="m392.503906 78.136719c-4.574218 3.933593-9.25 7.996093-14.023437 12.1875 4.570312 4.179687 9.144531 8.449219 13.558593 12.890625 4.417969 4.445312 8.714844 8.988281 12.890626 13.5625 4.1875-4.773438 8.246093-9.449219 12.179687-14.027344-3.8125-4.160156-7.773437-8.355469-12.003906-12.597656-4.234375-4.242188-8.449219-8.21875-12.601563-12.015625zm0 0" data-original="#000000" class="active-path" data-old_color="#000000" fill="#F7DC5F"/><path d="m452.4375 59.851562c4.179688-5.375 7.980469-10.386718 11.234375-14.828124-2.183594-2.285157-4.296875-4.574219-6.570313-6.867188-2.277343-2.292969-4.574218-4.386719-6.859374-6.574219-4.453126 3.253907-9.453126 7.058594-14.828126 11.238281 2.742188 2.59375 5.613282 5.382813 8.628907 8.402344 3.019531 3.015625 5.769531 5.859375 8.394531 8.628906zm0 0" data-original="#000000" class="active-path" data-old_color="#000000" fill="#F7DC5F"/><path d="m289.292969 314.398438c2.3125-2.09375 4.570312-4.214844 6.855469-6.316407-4.8125-11.597656-11.515626-22.316406-19.839844-31.71875-4.441406 4.269531-8.871094 8.484375-13.285156 12.644531 5.289062 6.492188 10.21875 13.269532 14.765624 20.296876 4.015626 1.582031 7.855469 3.292968 11.503907 5.09375zm0 0" data-original="#000000" class="active-path" data-old_color="#000000" fill="#F7DC5F"/><path d="m162.773438 245.207031c5.695312 3.8125 11.949218 8.511719 18.488281 13.839844 4.039062-4.4375 8.179687-8.921875 12.414062-13.457031-6.628906-5.398438-13.609375-10.355469-20.890625-14.839844-3.90625 5.761719-7.277344 10.660156-10.011718 14.457031zm0 0" data-original="#000000" class="active-path" data-old_color="#000000" fill="#F7DC5F"/><path d="m484.082031 68.28125c-2.453125-3.082031-5.039062-6.214844-7.855469-9.472656-3.402343 4.574218-7.230468 9.582031-11.390624 14.894531 3.855468 4.472656 7.445312 8.886719 10.761718 13.238281 3.289063-6.601562 6.03125-12.761718 8.484375-18.660156zm0 0" data-original="#000000" class="active-path" data-old_color="#000000" fill="#F7DC5F"/><path d="m218.847656 218.910156c-8.417968-7.070312-17.621094-13.152344-27.429687-18.121094-2.945313 5.109376-5.871094 9.992188-8.730469 14.628907 8.203125 5.074219 16.0625 10.6875 23.523438 16.804687 4.136718-4.417968 8.351562-8.855468 12.636718-13.3125zm0 0" data-original="#000000" class="active-path" data-old_color="#000000" fill="#F7DC5F"/><path d="m277.605469 249.695312c4.382812-4.265624 8.777343-8.570312 13.175781-12.910156-4.964844-5.585937-10.121094-11.171875-15.632812-16.667968-5.515626-5.496094-11.128907-10.707032-16.714844-15.660157-4.394532 4.421875-8.699219 8.816407-12.917969 13.171875 5.6875 5.058594 11.265625 10.214844 16.59375 15.542969 5.515625 5.523437 10.578125 11.035156 15.496094 16.523437zm0 0" data-original="#000000" class="active-path" data-old_color="#000000" fill="#F7DC5F"/><path d="m474.351562 29.746094c4.535157-6.574219 8.511719-13.515625 11.886719-20.753906-7.242187 3.371093-14.1875 7.347656-20.761719 11.882812 1.507813 1.472656 3.007813 2.816406 4.503907 4.324219 1.5 1.511719 2.898437 3.046875 4.371093 4.546875zm0 0" data-original="#000000" class="active-path" data-old_color="#000000" fill="#F7DC5F"/><path d="m220.539062 296.113281c2.367188.109375 4.851563.464844 7.3125.710938 3.292969-2.996094 6.621094-6.097657 9.9375-9.207031-4.808593-5.363282-9.664062-10.59375-14.628906-15.539063-4.964844-4.949219-10.230468-9.847656-15.542968-14.628906-4.265626 4.5625-8.429688 9.070312-12.488282 13.519531 4.847656 4.351562 9.855469 9.023438 14.996094 14.164062 3.664062 3.710938 7.058594 7.359376 10.414062 10.980469zm0 0" data-original="#000000" class="active-path" data-old_color="#000000" fill="#F7DC5F"/><path d="m264.449219 262.402344c-4.945313-5.484375-9.984375-10.96875-15.304688-16.355469-5.117187-5.121094-10.585937-10.167969-16.292969-15.242187-4.320312 4.488281-8.554687 8.9375-12.707031 13.359374 5.367188 4.808594 10.761719 9.800782 15.945313 14.992188 5.183594 5.195312 10.058594 10.480469 15.003906 15.957031 4.4375-4.175781 8.890625-8.414062 13.355469-12.710937zm0 0" data-original="#000000" class="active-path" data-old_color="#000000" fill="#F7DC5F"/><path d="m159.984375 282.738281c2.925781-3.3125 5.980469-6.710937 9.023437-10.058593-2.960937-2.394532-5.832031-4.644532-8.585937-6.691407.03125 5.558594-.113281 11.140625-.4375 16.75zm0 0" data-original="#000000" class="active-path" data-old_color="#000000" fill="#F7DC5F"/><path d="m196.582031 297.519531c-4.632812-4.617187-9.207031-8.886719-13.714843-12.953125-9.140626 10.15625-17.746094 19.957032-25.671876 29.203125 11.617188-8.53125 25.136719-14.105469 39.386719-16.25zm0 0" data-original="#000000" class="active-path" data-old_color="#000000" fill="#F7DC5F"/><path d="m420.914062 54.347656c-4.769531 3.859375-9.554687 7.820313-14.355468 11.886719 3.792968 3.519531 7.617187 7.160156 11.484375 11.027344 3.867187 3.867187 7.496093 7.679687 11.015625 11.480469 4.023437-4.785157 7.984375-9.566407 11.886718-14.351563-3.035156-3.265625-6.21875-6.613281-9.800781-10.1875-3.585937-3.574219-7.003906-6.894531-10.230469-9.855469zm0 0" data-original="#000000" class="active-path" data-old_color="#000000" fill="#F7DC5F"/><path d="m231.644531 205.726562c4.207031-4.339843 8.472657-8.707031 12.800781-13.101562-9.4375-8.609375-20.445312-15.324219-32.417968-19.777344-3.914063 3.976563-7.875 7.957032-11.660156 11.949219 11.160156 5.8125 21.648437 12.832031 31.277343 20.929687zm0 0" data-original="#000000" class="active-path" data-old_color="#000000" fill="#F7DC5F"/><path d="m258.910156 177.933594c3.867188-3.878906 7.679688-7.582032 11.5-11.347656-9.375-8.503907-20.265625-15.179688-32.097656-19.675782-4.078125 3.894532-8.167969 7.855469-12.269531 11.886719 11.207031 5.675781 21.710937 12.640625 31.304687 20.753906.53125-.558593 1.023438-1.078125 1.5625-1.617187zm0 0" data-original="#000000" class="active-path" data-old_color="#000000" fill="#F7DC5F"/><path d="m323.539062 115.558594c-8.785156-7.441406-18.4375-13.796875-28.742187-18.933594-4.578125 3.777344-9.191406 7.65625-13.84375 11.628906 10.320313 5.714844 20.082031 12.386719 29.148437 19.933594 4.523438-4.308594 8.996094-8.496094 13.4375-12.628906zm0 0" data-original="#000000" class="active-path" data-old_color="#000000" fill="#F7DC5F"/><path d="m296.769531 140.894531c-9.230469-8.054687-19.652343-14.632812-30.890625-19.511719-4.269531 3.816407-8.570312 7.71875-12.902344 11.710938 10.917969 5.738281 21.183594 12.644531 30.609376 20.601562 4.417968-4.335937 8.804687-8.613281 13.183593-12.800781zm0 0" data-original="#000000" class="active-path" data-old_color="#000000" fill="#F7DC5F"/><path d="m156.355469 222.429688c6.785156-10.054688 15.019531-22.964844 23.074219-37.484376 1.71875-3.109374 3.4375-6.234374 5.113281-9.464843.109375-.207031.226562-.410157.347656-.609375 20.835937-40.085938 39.734375-93.148438 12.277344-119.570313 3.054687 25.644531-2.980469 69.792969-48.960938 135.695313 3.441407 10.277344 6.164063 20.78125 8.148438 31.433594zm0 0" data-original="#000000" class="active-path" data-old_color="#000000" fill="#F7DC5F"/><path d="m317.316406 236.355469-1.59375 1.5625c8.105469 9.585937 15.066406 20.082031 20.738282 31.277343 4.058593-4.121093 8.097656-8.226562 12.050781-12.378906-4.679688-11.75-11.394531-22.582031-19.832031-32-3.765626 3.839844-7.460938 7.632813-11.363282 11.539063zm0 0" data-original="#000000" class="active-path" data-old_color="#000000" fill="#F7DC5F"/><path d="m472.011719 206.449219c-22.996094-1.960938-46.0625 2.878906-66.332031 13.914062-13.339844 15.992188-28.039063 32.402344-43.664063 48.789063 45.59375-29.324219 62.363281-33.664063 85.476563-39.527344 8.226562-2.082031 17.535156-4.441406 29.421874-8.410156 12.0625-3.847656 23.542969-9.324219 34.128907-16.273438-12.804688 2.914063-26.039063 3.425782-39.03125 1.507813zm0 0" data-original="#000000" class="active-path" data-old_color="#000000" fill="#F7DC5F"/><path d="m61.105469 485.507812c-24.042969-11.253906-43.816407-29.960937-56.386719-53.339843-6.550781 7.234375-6.246094 18.34375.695312 25.207031l32.484376 32.492188c7.207031 7.183593 18.863281 7.183593 26.066406 0l2.550781-2.550782c-.730469-.246094-1.617187-.511718-2.300781-.738281zm0 0" data-original="#000000" class="active-path" data-old_color="#000000" fill="#F7DC5F"/><path d="m289.566406 335.070312c-1.105468-.683593-1.992187-1.144531-2.878906-1.617187-7.738281-4.210937-15.84375-7.699219-24.222656-10.421875-40.316406-13.449219-72.402344-11.449219-95.359375 5.949219-5.914063 4.488281-13.984375 4.851562-20.277344.914062-6.480469-3.886719-9.878906-11.378906-8.539063-18.816406 3.816407-21.042969 4.847657-42.5 3.070313-63.816406-1.527344-18.671875-5.492187-37.066407-11.792969-54.710938-.484375-1.371093-.996094-2.742187-1.519531-4.058593l-1.222656-3.183594c-.832031-2.046875-1.828125-4.414063-2.835938-6.664063-1.097656-2.503906-2.15625-4.828125-3.289062-7.203125-.367188-.773437-.738281-1.542968-1.117188-2.304687-.601562 32.8125-13.164062 83.125-68.691406 138.652343-36.058594 36.058594-47.808594 71.460938-34.898437 105.222657 9.75 23.875 27.785156 43.429687 50.789062 55.078125l3.292969 1.097656c5.167969 1.847656 10.449219 3.375 15.808593 4.570312 32.914063 6.941407 66.082032-6.949218 101.539063-42.414062 32.660156-32.667969 63.203125-47.183594 90.78125-43.117188 24.171875 3.558594 44.890625 21.027344 61.566406 52.113282 3.054688-33.066406-3.226562-78.078125-50.203125-105.269532zm-141.195312 96.183594c-11.628906 12.152344-27.730469 19.011719-44.550782 18.980469-13.632812-.085937-26.964843-4.015625-38.464843-11.335937-4.101563-2.839844-5.171875-8.441407-2.40625-12.589844 2.765625-4.152344 8.347656-5.316406 12.546875-2.625 1.316406.914062 33.289062 21.292968 59.941406-5.347656 3.582031-3.46875 9.285156-3.421876 12.816406.101562 3.527344 3.523438 3.582032 9.226562.117188 12.816406zm25.996094-25.921875c-2.628907 2.628907-6.582032 3.417969-10.015626 1.996094-3.433593-1.421875-5.671874-4.773437-5.671874-8.492187 0-3.714844 2.238281-7.066407 5.671874-8.488282 3.433594-1.421875 7.386719-.636718 10.015626 1.992188 3.585937 3.589844 3.585937 9.40625 0 12.992187zm0 0" data-original="#000000" class="active-path" data-old_color="#000000" fill="#F7DC5F"/><path d="m407.0625 42.042969c-5.769531-4.863281-11.367188-9.144531-16.667969-12.855469-5.488281 3.125-11.117187 6.464844-16.90625 10.058594 6.035157 4.167968 12.460938 9.140625 19.199219 14.71875 4.796875-4.046875 9.589844-8.023438 14.375-11.921875zm0 0" data-original="#000000" class="active-path" data-old_color="#000000" fill="#F7DC5F"/><path d="m445.09375 138.433594c-4.789062-7.59375-10.082031-14.859375-15.84375-21.75-3.925781 4.566406-7.984375 9.226562-12.175781 13.980468 6.203125 7.453126 11.949219 15.273438 17.203125 23.421876 3.804687-5.347657 7.390625-10.539063 10.816406-15.652344zm0 0" data-original="#000000" class="active-path" data-old_color="#000000" fill="#F7DC5F"/><path d="m466.023438 104.769531c-3.65625-5.28125-7.972657-10.851562-12.800782-16.574219-3.917968 4.808594-7.902344 9.605469-11.949218 14.390626 5.652343 6.746093 10.570312 13.136718 14.628906 19.070312 3.636718-5.832031 7.011718-11.4375 10.121094-16.886719zm0 0" data-original="#000000" class="active-path" data-old_color="#000000" fill="#F7DC5F"/><path d="m464.269531.0195312c-5.9375.7109378-11.796875 1.9335938-17.519531 3.6601568 1.636719 1.398437 3.320312 2.925781 4.984375 4.398437 4.5625-3.054687 8.804687-5.796875 12.535156-8.0585938zm0 0" data-original="#000000" class="active-path" data-old_color="#000000" fill="#F7DC5F"/><path d="m422.53125 170.140625c-5.1875-9.027344-11.140625-17.59375-17.800781-25.597656-4.058594 4.496093-8.214844 9.070312-12.460938 13.714843 6.976563 8.371094 13.296875 17.273438 18.898438 26.621094 3.910156-4.980468 7.722656-9.898437 11.363281-14.738281zm0 0" data-original="#000000" class="active-path" data-old_color="#000000" fill="#F7DC5F"/><path d="m350.757812 90.527344c-8.019531-6.6875-16.621093-12.648438-25.699218-17.8125-4.875 3.660156-9.792969 7.441406-14.746094 11.347656 9.410156 5.617188 18.371094 11.957031 26.796875 18.960938 4.601563-4.265626 9.152344-8.429688 13.648437-12.496094zm0 0" data-original="#000000" class="active-path" data-old_color="#000000" fill="#F7DC5F"/><path d="m436.457031 19.019531c-3.347656-2.851562-6.566406-5.59375-9.746093-8.054687-5.871094 2.46875-12.0625 5.359375-18.515626 8.613281 4.363282 3.328125 8.8125 6.941406 13.347657 10.84375 5.3125-4.152344 10.324219-7.992187 14.914062-11.402344zm0 0" data-original="#000000" class="active-path" data-old_color="#000000" fill="#F7DC5F"/><path d="m392.878906 207.199219c.140625-.164063.359375-.382813.539063-.578125l.101562-.109375c1.738281-2.066407 3.300781-4.050781 4.984375-6.097657-5.121094-10.273437-11.464844-19.894531-18.890625-28.652343-4.132812 4.453125-8.320312 8.914062-12.605469 13.449219 7.507813 9.035156 14.152344 18.753906 19.839844 29.035156 2.074219-2.421875 4.132813-4.714844 6.03125-7.046875zm0 0" data-original="#000000" class="active-path" data-old_color="#000000" fill="#F7DC5F"/><path d="m378.5625 66.003906c-6.925781-5.75-14.210938-11.054687-21.816406-15.878906-5.117188 3.4375-10.328125 7.042969-15.632813 10.816406 8.171875 5.257813 16.007813 11.011719 23.46875 17.234375 4.761719-4.160156 9.421875-8.214843 13.980469-12.171875zm0 0" data-original="#000000" class="active-path" data-old_color="#000000" fill="#F7DC5F"/></g> </svg>
