<?xml version="1.0"?>
<svg xmlns="http://www.w3.org/2000/svg" xmlns:xlink="http://www.w3.org/1999/xlink" version="1.1" id="Capa_1" x="0px" y="0px" viewBox="0 0 512 512" style="enable-background:new 0 0 512 512;" xml:space="preserve" width="512px" height="512px"><g><g>
	<g>
		<path d="M112.266,142.515c-7.711,0-14.166,5.847-14.927,13.521l-2.022,20.405H332.46l-19.057-27.475    c-0.239-0.345-0.509-0.661-0.773-0.981v-2.434c0-34.351-27.946-62.297-62.297-62.297H111.335c-8.284,0-15,6.716-15,15    s6.716,15,15,15h11l3.632,4.952v24.309H112.266z" data-original="#000000" class="active-path" data-old_color="#000000" fill="#F7DC5F"/>
	</g>
</g><g>
	<g>
		<path d="M497,398.746c-15.446,0-30.556-6.503-43.767-18.79l57.176-114.063c2.331-4.649,2.087-10.176-0.646-14.602    c-2.733-4.426-7.563-7.12-12.764-7.12H379.44l-26.171-37.73H92.344l-3.739,37.73H61.216c-15.454,0-28.199,11.585-29.678,26.96    l-5.879,57.306H15c-8.284,0-15,6.716-15,15s6.716,15,15,15h7.582l-2.747,26.774c-0.004,0.044-0.009,0.088-0.013,0.132    c-0.416,4.445,0.191,8.886,1.695,13.004c-2.163,0.257-4.336,0.399-6.517,0.399c-8.284,0-15,6.716-15,15s6.716,15,15,15    c21.577,0,42.28-8.03,60.247-23.299c17.972,15.268,38.68,23.299,60.257,23.299c21.576,0,42.279-8.03,60.246-23.299    c17.973,15.268,38.681,23.299,60.257,23.299c21.571,0,42.274-8.027,60.245-23.288c17.97,15.261,38.673,23.288,60.244,23.288    c21.577,0,42.28-8.03,60.247-23.298c17.972,15.267,38.68,23.298,60.257,23.298c8.284,0,15-6.716,15-15    S505.284,398.746,497,398.746z M174.794,346.195h-15.511c-8.284,0-15-6.716-15-15s6.716-15,15-15h15.511c8.284,0,15,6.716,15,15    S183.078,346.195,174.794,346.195z M255.382,346.195h-15.511c-8.284,0-15-6.716-15-15s6.716-15,15-15h15.511    c8.284,0,15,6.716,15,15S263.666,346.195,255.382,346.195z M335.97,346.195h-15.511c-8.284,0-15-6.716-15-15s6.716-15,15-15    h15.511c8.284,0,15,6.716,15,15S344.254,346.195,335.97,346.195z" data-original="#000000" class="active-path" data-old_color="#000000" fill="#F7DC5F"/>
	</g>
</g></g> </svg>
