<?xml version="1.0"?>
<svg xmlns="http://www.w3.org/2000/svg" xmlns:xlink="http://www.w3.org/1999/xlink" version="1.1" id="Capa_1" x="0px" y="0px" viewBox="0 0 432 432" style="enable-background:new 0 0 432 432;" xml:space="preserve" width="512px" height="512px"><g><g>
	<g>
		<g>
			<path d="M0,325.423v29.95c0.095,13.09,10.744,23.646,23.834,23.627h26.4c13.077,0.014,23.703-10.55,23.766-23.627V333H23.834     C15.29,333.047,6.949,330.395,0,325.423z" data-original="#000000" class="active-path" data-old_color="#000000" fill="#F7DC5F"/>
			<path d="M307.332,112.4c-24.829,0.075-45.963,18.095-49.962,42.6h99.923C353.294,130.495,332.161,112.476,307.332,112.4z" data-original="#000000" class="active-path" data-old_color="#000000" fill="#F7DC5F"/>
			<rect x="47" y="231" width="59" height="36" data-original="#000000" class="active-path" data-old_color="#000000" fill="#F7DC5F"/>
			<path d="M419.538,182.361c-0.12-0.113-0.315-0.282-0.428-0.4L408.953,171H28.563L14.34,184.294     c-0.089,0.083-0.219,0.267-0.312,0.346C5.151,192.133,0.021,203.152,0,214.769v78.836C0.113,306.638,10.769,317.113,23.803,317     c0.01,0,0.021,0,0.031,0h384.332c13.033,0.13,23.704-10.331,23.834-23.364c0-0.01,0-0.021,0-0.031V211.14     C431.952,200.247,427.449,189.849,419.538,182.361z M122,275c0,4.418-3.582,8-8,8H39c-4.418,0-8-3.582-8-8v-52     c0-4.418,3.582-8,8-8h75c4.418,0,8,3.582,8,8V275z M264.31,273h-0.005H167.7c-4.418,0-8-3.582-8-8s3.582-8,8-8h96.61     c4.418,0,8,3.582,8,8S268.728,273,264.31,273z M264.31,242h-0.005H167.7c-4.418,0-8-3.582-8-8s3.582-8,8-8h96.61     c4.418,0,8,3.582,8,8S268.728,242,264.31,242z M401,275c0,4.418-3.582,8-8,8h-75c-4.418,0-8-3.582-8-8v-52c0-4.418,3.582-8,8-8     h75c4.418,0,8,3.582,8,8V275z" data-original="#000000" class="active-path" data-old_color="#000000" fill="#F7DC5F"/>
			<path d="M358,333v22.373c0.063,13.078,10.692,23.643,23.77,23.627h26.4c13.089,0.017,23.735-10.539,23.83-23.627v-29.95     c-6.949,4.972-15.29,7.624-23.834,7.577H358z" data-original="#000000" class="active-path" data-old_color="#000000" fill="#F7DC5F"/>
			<rect x="326" y="231" width="59" height="36" data-original="#000000" class="active-path" data-old_color="#000000" fill="#F7DC5F"/>
			<path d="M307.332,96.4c33.672,0.033,62.032,25.174,66.1,58.6h27.987l-32.165-86.679c-3.477-9.239-12.327-15.347-22.198-15.321     H91.279c-9.872-0.026-18.722,6.082-22.2,15.321L36.914,155h204.315C245.298,121.574,273.659,96.432,307.332,96.4z" data-original="#000000" class="active-path" data-old_color="#000000" fill="#F7DC5F"/>
		</g>
	</g>
</g></g> </svg>
