<svg xmlns="http://www.w3.org/2000/svg" width="252.597" height="252.597" viewBox="0 0 252.597 252.597">
  <g id="cargo-truck" transform="translate(-1 -1)">
    <path id="Path_1273" data-name="Path 1273" d="M27.371,37A20.371,20.371,0,1,0,47.741,57.371,20.394,20.394,0,0,0,27.371,37Zm0,32.593A12.222,12.222,0,1,1,39.593,57.371,12.237,12.237,0,0,1,27.371,69.593Z" transform="translate(18.445 110.669)"/>
    <path id="Path_1274" data-name="Path 1274" d="M67.371,37A20.371,20.371,0,1,0,87.741,57.371,20.394,20.394,0,0,0,67.371,37Zm0,32.593A12.222,12.222,0,1,1,79.593,57.371,12.237,12.237,0,0,1,67.371,69.593Z" transform="translate(141.411 110.669)"/>
    <path id="Path_1275" data-name="Path 1275" d="M233.226,82.483a4.073,4.073,0,0,0-4.074,4.074V119.15a4.073,4.073,0,0,0,4.074,4.074h16.3a4.073,4.073,0,0,0,4.074-4.074V86.557a4.073,4.073,0,0,0-4.074-4.074h-4.074V78.409a12.237,12.237,0,0,0-12.222-12.222H221V62.112a20.409,20.409,0,0,0-16.3-19.959V5.074A4.073,4.073,0,0,0,200.633,1H53.964A4.073,4.073,0,0,0,49.89,5.074V42.153a20.409,20.409,0,0,0-16.3,19.959v4.074H21.371A12.237,12.237,0,0,0,9.148,78.409v4.074H5.074A4.073,4.073,0,0,0,1,86.557V119.15a4.073,4.073,0,0,0,4.074,4.074h16.3a4.073,4.073,0,0,0,4.074-4.074V86.557a4.073,4.073,0,0,0-4.074-4.074H17.3V78.409a4.078,4.078,0,0,1,4.074-4.074H33.593v51.277L17.5,141.7a28.337,28.337,0,0,0-8.356,20.167v34.691H5.074A4.073,4.073,0,0,0,1,200.633v24.445a4.073,4.073,0,0,0,4.074,4.074H17.3v12.222A12.237,12.237,0,0,0,29.519,253.6H53.964a12.237,12.237,0,0,0,12.222-12.222V229.152H188.411v12.222A12.237,12.237,0,0,0,200.633,253.6h24.445A12.237,12.237,0,0,0,237.3,241.375V229.152h12.222a4.073,4.073,0,0,0,4.074-4.074V200.633a4.073,4.073,0,0,0-4.074-4.074h-4.074V161.868a28.33,28.33,0,0,0-8.356-20.167L221,125.612V74.335h12.222a4.078,4.078,0,0,1,4.074,4.074v4.074ZM17.3,115.076H9.148V90.631H17.3ZM196.559,41.741h-8.148V9.148h8.148Zm-122.224,0V9.148h8.148V41.741Zm16.3-32.593h73.335V41.741H90.631Zm81.483,0h8.148V41.741h-8.148Zm-105.928,0V41.741H58.038V9.148ZM53.964,49.89H200.633a12.237,12.237,0,0,1,12.222,12.222v4.074H41.741V62.112A12.237,12.237,0,0,1,53.964,49.89Zm158.892,73.335H180.262v-8.148h24.445v-8.148H147.669v8.148h24.445v8.148H82.483v-8.148h24.445v-8.148H49.89v8.148H74.335v8.148H41.741V74.335H212.856ZM9.148,204.707H82.483V221H9.148Zm154.817,0V221H90.631v-16.3Zm8.148-40.741H82.483v-8.148h89.631Zm-89.631,8.148h89.631v8.148H82.483Zm0,16.3h89.631v8.148H82.483ZM58.038,241.375a4.078,4.078,0,0,1-4.074,4.074H29.519a4.078,4.078,0,0,1-4.074-4.074V229.152H58.038Zm171.114,0a4.078,4.078,0,0,1-4.074,4.074H200.633a4.078,4.078,0,0,1-4.074-4.074V229.152h32.593ZM245.449,221H172.114v-16.3h73.335Zm-14.117-73.538a20.235,20.235,0,0,1,5.969,14.4v34.691H180.262V151.743a4.073,4.073,0,0,0-4.074-4.074H78.409a4.073,4.073,0,0,0-4.074,4.074v44.816H17.3V161.868a20.244,20.244,0,0,1,5.969-14.406l16.089-16.089H215.243Zm14.117-32.389H237.3V90.631h8.148Z"/>
  </g>
</svg>
