<svg xmlns="http://www.w3.org/2000/svg" width="480.082" height="480" viewBox="0 0 480.082 480">
  <g id="contract" transform="translate(0 -0.039)">
    <path id="Path_1276" data-name="Path 1276" d="M479.2,113.8a24.014,24.014,0,0,0-44-5.762l-4,6.961a8,8,0,0,0-10.879,2.883L400,152.52l-6.961-4a7.993,7.993,0,1,0-8,13.84l6.961,4L324,284.2l-16.8,44.883-8,14.957a24,24,0,0,0,1.281,25.922l-18,22.078L277.441,379.4a16,16,0,0,0-28.562-2.242L246,382.039l-2.719-32a16,16,0,0,0-31.121-3.758l-19.68,59.039a8,8,0,0,0,5.039,10.082,6.927,6.927,0,0,0,2.48.637,8,8,0,0,0,7.6-5.437l19.6-59.039,2.8,32.477a16,16,0,0,0,29.68,6.883l2.961-4.883L267.6,398.6a16,16,0,0,0,27.359,4.078l18.641-23.6a24.641,24.641,0,0,0,6.32.8A24,24,0,0,0,340.8,368.039l8-13.359,30.48-37.039L448,198.36l6.961,4a8.021,8.021,0,0,1,2.961,10.961l-32,55.441a7.943,7.943,0,1,0,13.52,8.32l32-55.441a23.992,23.992,0,0,0-8.8-32.8l-6.961-4,20-34.641a8,8,0,0,0-2.879-10.879l4-6.961a23.992,23.992,0,0,0,2.4-18.559Zm-30.16,2.238a8,8,0,0,1,4.883-3.758,8.4,8.4,0,0,1,6.078.8,8.008,8.008,0,0,1,3.762,4.879,8.4,8.4,0,0,1-.8,6.078l-4,6.961-13.922-8ZM340,339.4l-4-2.32L324.16,330.2l11.359-30.4,25.2,14.559Zm-24,23.117a8,8,0,0,1-2.4-10.48l4-6.957,13.918,8-4,6.879A8,8,0,0,1,316,362.519Zm53.84-61.277-27.68-16,64-110.883,27.68,16Zm72-124.723-27.68-16,16-27.68,27.68,16Zm0,0"/>
    <path id="Path_1277" data-name="Path 1277" d="M126.238,358.52,97.922,386.762,80.961,369.8a8,8,0,1,0-11.281,11.359L86.64,398.122a16.128,16.128,0,0,0,22.641,0l28.238-28.32a8,8,0,0,0-11.281-11.281Zm0,0"/>
    <path id="Path_1278" data-name="Path 1278" d="M32,380.039a68,68,0,0,0,136,0,8,8,0,1,0-16,0,52.006,52.006,0,1,1-20.8-41.6,8,8,0,0,0,9.6-12.8A68,68,0,0,0,32,380.039Zm0,0"/>
    <path id="Path_1279" data-name="Path 1279" d="M288,64.039a8,8,0,1,0,0-16H80a8,8,0,0,0-8,8v32a8,8,0,0,0,8,8H288a8,8,0,0,0,0-16H88v-16Zm0,0"/>
    <path id="Path_1280" data-name="Path 1280" d="M104,112.039a8,8,0,0,0,0,16H264a8,8,0,0,0,0-16Zm0,0"/>
    <path id="Path_1281" data-name="Path 1281" d="M312,168.039H136a8,8,0,0,0,0,16H312a8,8,0,0,0,0-16Zm0,0"/>
    <path id="Path_1282" data-name="Path 1282" d="M232,224.039a8,8,0,0,0-8-8H64a8,8,0,0,0,0,16H224A8,8,0,0,0,232,224.039Zm0,0"/>
    <path id="Path_1283" data-name="Path 1283" d="M312,216.039H256a8,8,0,0,0,0,16h56a8,8,0,0,0,0-16Zm0,0"/>
    <path id="Path_1284" data-name="Path 1284" d="M144,272.039a8,8,0,0,0,0-16H64a8,8,0,0,0,0,16Zm0,0"/>
    <path id="Path_1285" data-name="Path 1285" d="M176,272.039h56a8,8,0,0,0,0-16H176a8,8,0,0,0,0,16Zm0,0"/>
    <path id="Path_1286" data-name="Path 1286" d="M360,368.039a8,8,0,0,0-8,8v80a8,8,0,0,1-8,8H24a8,8,0,0,1-8-8v-432a8,8,0,0,1,8-8H344a8,8,0,0,1,8,8V174.281a8,8,0,0,0,16,0V24.039a24,24,0,0,0-24-24H24a24,24,0,0,0-24,24v432a24,24,0,0,0,24,24H344a24,24,0,0,0,24-24v-80A8,8,0,0,0,360,368.039Zm0,0"/>
  </g>
</svg>
