<?xml version="1.0"?>
<svg xmlns="http://www.w3.org/2000/svg" enable-background="new 0 0 24 24" height="512px" viewBox="0 0 24 24" width="512px"><g><path d="m12 7c-1.103 0-2-.897-2-2 0-.838.518-1.557 1.25-1.854v-2.396c0-.414.336-.75.75-.75s.75.336.75.75v3c0 .414-.336.75-.75.75-.275 0-.5.224-.5.5s.225.5.5.5.5-.224.5-.5c0-.414.336-.75.75-.75s.75.336.75.75c0 1.103-.897 2-2 2z" data-original="#000000" class="active-path" data-old_color="#000000" fill="#F7DC5F"/><path d="m23.249 13c-.14 0-.28-.039-.406-.12l-8.25-5.33c-.348-.225-.447-.689-.223-1.037s.689-.448 1.037-.223l8.25 5.33c.348.225.447.689.223 1.037-.144.222-.385.343-.631.343z" data-original="#000000" class="active-path" data-old_color="#000000" fill="#F7DC5F"/><path d="m.751 13c-.246 0-.487-.121-.631-.343-.225-.348-.125-.812.223-1.037l8.25-5.33c.35-.226.812-.124 1.037.223.224.348.125.812-.223 1.037l-8.25 5.33c-.126.081-.267.12-.406.12z" data-original="#000000" class="active-path" data-old_color="#000000" fill="#F7DC5F"/><path d="m23.25 11.5h-22.5c-.414 0-.75.336-.75.75v11c0 .414.336.75.75.75h22.5c.414 0 .75-.336.75-.75v-11c0-.414-.336-.75-.75-.75zm-19 9.25c0 .414-.336.75-.75.75s-.75-.336-.75-.75v-6c0-.414.336-.75.75-.75s.75.336.75.75zm4 0c0 .414-.336.75-.75.75s-.75-.336-.75-.75v-6c0-.414.336-.75.75-.75s.75.336.75.75zm4.5 0c0 .414-.336.75-.75.75s-.75-.336-.75-.75v-6c0-.414.336-.75.75-.75s.75.336.75.75zm4.5 0c0 .414-.336.75-.75.75s-.75-.336-.75-.75v-6c0-.414.336-.75.75-.75s.75.336.75.75zm4 0c0 .414-.336.75-.75.75s-.75-.336-.75-.75v-6c0-.414.336-.75.75-.75s.75.336.75.75z" data-original="#000000" class="active-path" data-old_color="#000000" fill="#F7DC5F"/></g> </svg>
