<?xml version="1.0"?>
<svg xmlns="http://www.w3.org/2000/svg" xmlns:xlink="http://www.w3.org/1999/xlink" version="1.1" id="Capa_1" x="0px" y="0px" viewBox="0 0 512 512" style="enable-background:new 0 0 512 512;" xml:space="preserve" width="512px" height="512px"><g><g>
	<g>
		<path d="M230.4,375.467c-37.641,0-68.267,30.626-68.267,68.267c0,37.641,30.626,68.267,68.267,68.267    c37.641,0,68.267-30.626,68.267-68.267C298.667,406.093,268.041,375.467,230.4,375.467z M230.4,494.933    c-28.237,0-51.2-22.963-51.2-51.2c0-28.237,22.963-51.2,51.2-51.2s51.2,22.963,51.2,51.2    C281.6,471.97,258.637,494.933,230.4,494.933z" data-original="#000000" class="active-path" data-old_color="#000000" fill="#F7DC5F"/>
	</g>
</g><g>
	<g>
		<path d="M51.2,409.6C22.963,409.6,0,432.563,0,460.8C0,489.037,22.963,512,51.2,512s51.2-22.963,51.2-51.2    C102.4,432.563,79.437,409.6,51.2,409.6z M51.2,494.933c-18.825,0-34.133-15.309-34.133-34.133    c0-18.825,15.309-34.133,34.133-34.133s34.133,15.309,34.133,34.133C85.333,479.625,70.025,494.933,51.2,494.933z" data-original="#000000" class="active-path" data-old_color="#000000" fill="#F7DC5F"/>
	</g>
</g><g>
	<g>
		<path d="M503.467,264.533H358.4c-4.719,0-8.533,3.814-8.533,8.533V409.6c0,4.719,3.814,8.533,8.533,8.533h145.067    c4.719,0,8.533-3.814,8.533-8.533V273.067C512,268.348,508.186,264.533,503.467,264.533z M494.933,401.067h-128V281.6h128V401.067    z" data-original="#000000" class="active-path" data-old_color="#000000" fill="#F7DC5F"/>
	</g>
</g><g>
	<g>
		<path d="M452.267,264.533H409.6c-4.719,0-8.533,3.814-8.533,8.533v51.2c0,4.719,3.814,8.533,8.533,8.533h42.667    c4.719,0,8.533-3.814,8.533-8.533v-51.2C460.8,268.348,456.986,264.533,452.267,264.533z M443.733,315.733h-25.6V281.6h25.6    V315.733z" data-original="#000000" class="active-path" data-old_color="#000000" fill="#F7DC5F"/>
	</g>
</g><g>
	<g>
		<rect x="85.333" y="477.867" width="102.4" height="17.067" data-original="#000000" class="active-path" data-old_color="#000000" fill="#F7DC5F"/>
	</g>
</g><g>
	<g>
		<path d="M284.1,335.3l-40.166,40.166h-28.151l-66.193-41.37c-1.357-0.845-2.918-1.297-4.523-1.297H8.533    c-4.71,0-8.533,3.814-8.533,8.533V460.8h17.067V349.867h125.551l66.193,41.37c1.357,0.845,2.918,1.297,4.523,1.297h34.133    c2.261,0,4.437-0.896,6.033-2.5l42.667-42.667L284.1,335.3z" data-original="#000000" class="active-path" data-old_color="#000000" fill="#F7DC5F"/>
	</g>
</g><g>
	<g>
		<path d="M297.771,311.91l-86.784-173.56c-5.811-11.631-17.493-18.867-30.507-18.884H25.6c-14.114,0-25.6,11.486-25.6,25.6v196.267    h17.067V145.067c0-4.702,3.831-8.533,8.533-8.533h154.872c6.502,0.009,12.348,3.627,15.249,9.446L281.6,317.747v125.986h17.067    v-128C298.667,314.411,298.359,313.097,297.771,311.91z" data-original="#000000" class="active-path" data-old_color="#000000" fill="#F7DC5F"/>
	</g>
</g><g>
	<g>
		<path d="M230.4,418.133c-14.114,0-25.6,11.486-25.6,25.6s11.486,25.6,25.6,25.6s25.6-11.486,25.6-25.6    S244.514,418.133,230.4,418.133z M230.4,452.267c-4.702,0-8.533-3.823-8.533-8.533s3.831-8.533,8.533-8.533    c4.702,0,8.533,3.823,8.533,8.533S235.102,452.267,230.4,452.267z" data-original="#000000" class="active-path" data-old_color="#000000" fill="#F7DC5F"/>
	</g>
</g><g>
	<g>
		<path d="M145.067,298.667H85.333V230.4c0-14.114-11.486-25.6-25.6-25.6s-25.6,11.486-25.6,25.6v110.933H51.2V230.4    c0-4.702,3.831-8.533,8.533-8.533s8.533,3.831,8.533,8.533v76.8c0,4.719,3.823,8.533,8.533,8.533h68.267    c4.702,0,8.533,3.823,8.533,8.533s-3.831,8.533-8.533,8.533h-8.533v17.067h8.533c14.114,0,25.6-11.486,25.6-25.6    S159.181,298.667,145.067,298.667z" data-original="#000000" class="active-path" data-old_color="#000000" fill="#F7DC5F"/>
	</g>
</g><g>
	<g>
		
			<rect x="161.823" y="251.738" transform="matrix(0.7071 -0.7071 0.7071 0.7071 -127.8074 211.9876)" width="60.33" height="17.067" data-original="#000000" class="active-path" data-old_color="#000000" fill="#F7DC5F"/>
	</g>
</g><g>
	<g>
		
			<rect x="230.389" y="246.862" transform="matrix(0.7071 -0.7071 0.7071 0.7071 -147.2392 258.919)" width="17.067" height="120.66" data-original="#000000" class="active-path" data-old_color="#000000" fill="#F7DC5F"/>
	</g>
</g><g>
	<g>
		<path d="M324.267,0h-34.133c-4.719,0-8.533,3.823-8.533,8.533V486.4c0,4.719,3.814,8.533,8.533,8.533h34.133    c4.719,0,8.533-3.814,8.533-8.533V8.533C332.8,3.823,328.986,0,324.267,0z M315.733,477.867h-17.067v-460.8h17.067V477.867z" data-original="#000000" class="active-path" data-old_color="#000000" fill="#F7DC5F"/>
	</g>
</g><g>
	<g>
		<rect x="324.267" y="435.2" width="187.733" height="17.067" data-original="#000000" class="active-path" data-old_color="#000000" fill="#F7DC5F"/>
	</g>
</g><g>
	<g>
		<rect x="42.667" y="452.267" width="17.067" height="17.067" data-original="#000000" class="active-path" data-old_color="#000000" fill="#F7DC5F"/>
	</g>
</g></g> </svg>
