<svg xmlns="http://www.w3.org/2000/svg" width="512" height="512.001" viewBox="0 0 512 512.001">
  <g id="forklift" transform="translate(0)">
    <g id="Group_497" data-name="Group 497">
      <g id="Group_496" data-name="Group 496">
        <path id="Path_1273" data-name="Path 1273" d="M230.4,375.467a68.267,68.267,0,1,0,68.267,68.267A68.346,68.346,0,0,0,230.4,375.467Zm0,119.466a51.2,51.2,0,1,1,51.2-51.2A51.251,51.251,0,0,1,230.4,494.933Z"/>
      </g>
    </g>
    <g id="Group_499" data-name="Group 499">
      <g id="Group_498" data-name="Group 498">
        <path id="Path_1274" data-name="Path 1274" d="M51.2,409.6a51.2,51.2,0,1,0,51.2,51.2A51.251,51.251,0,0,0,51.2,409.6Zm0,85.333A34.133,34.133,0,1,1,85.333,460.8,34.167,34.167,0,0,1,51.2,494.933Z"/>
      </g>
    </g>
    <g id="Group_501" data-name="Group 501">
      <g id="Group_500" data-name="Group 500">
        <path id="Path_1275" data-name="Path 1275" d="M503.467,264.533H358.4a8.525,8.525,0,0,0-8.533,8.533V409.6a8.525,8.525,0,0,0,8.533,8.533H503.467A8.525,8.525,0,0,0,512,409.6V273.067A8.526,8.526,0,0,0,503.467,264.533Zm-8.534,136.534h-128V281.6h128Z"/>
      </g>
    </g>
    <g id="Group_503" data-name="Group 503">
      <g id="Group_502" data-name="Group 502">
        <path id="Path_1276" data-name="Path 1276" d="M452.267,264.533H409.6a8.525,8.525,0,0,0-8.533,8.533v51.2A8.525,8.525,0,0,0,409.6,332.8h42.667a8.525,8.525,0,0,0,8.533-8.533v-51.2A8.526,8.526,0,0,0,452.267,264.533Zm-8.534,51.2h-25.6V281.6h25.6Z"/>
      </g>
    </g>
    <g id="Group_505" data-name="Group 505">
      <g id="Group_504" data-name="Group 504">
        <rect id="Rectangle_178" data-name="Rectangle 178" width="102.4" height="17.067" transform="translate(85.333 477.867)"/>
      </g>
    </g>
    <g id="Group_507" data-name="Group 507">
      <g id="Group_506" data-name="Group 506">
        <path id="Path_1277" data-name="Path 1277" d="M284.1,335.3l-40.166,40.166H215.783L149.59,334.1a8.545,8.545,0,0,0-4.523-1.3H8.533A8.531,8.531,0,0,0,0,341.332V460.8H17.067V349.867H142.618l66.193,41.37a8.545,8.545,0,0,0,4.523,1.3h34.133a8.513,8.513,0,0,0,6.033-2.5l42.667-42.667Z"/>
      </g>
    </g>
    <g id="Group_509" data-name="Group 509">
      <g id="Group_508" data-name="Group 508">
        <path id="Path_1278" data-name="Path 1278" d="M297.771,311.91,210.987,138.35a33.96,33.96,0,0,0-30.507-18.884H25.6A25.631,25.631,0,0,0,0,145.066V341.333H17.067V145.067a8.547,8.547,0,0,1,8.533-8.533H180.472a16.972,16.972,0,0,1,15.249,9.446L281.6,317.747V443.733h17.067v-128A8.632,8.632,0,0,0,297.771,311.91Z"/>
      </g>
    </g>
    <g id="Group_511" data-name="Group 511">
      <g id="Group_510" data-name="Group 510">
        <path id="Path_1279" data-name="Path 1279" d="M230.4,418.133a25.6,25.6,0,1,0,25.6,25.6A25.631,25.631,0,0,0,230.4,418.133Zm0,34.134a8.533,8.533,0,1,1,8.533-8.533A8.542,8.542,0,0,1,230.4,452.267Z"/>
      </g>
    </g>
    <g id="Group_513" data-name="Group 513">
      <g id="Group_512" data-name="Group 512">
        <path id="Path_1280" data-name="Path 1280" d="M145.067,298.667H85.333V230.4a25.6,25.6,0,1,0-51.2,0V341.333H51.2V230.4a8.533,8.533,0,1,1,17.066,0v76.8a8.531,8.531,0,0,0,8.533,8.533h68.267a8.533,8.533,0,1,1,0,17.066h-8.533v17.067h8.533a25.6,25.6,0,1,0,0-51.2Z"/>
      </g>
    </g>
    <g id="Group_515" data-name="Group 515">
      <g id="Group_514" data-name="Group 514">
        <rect id="Rectangle_179" data-name="Rectangle 179" width="60.33" height="17.067" transform="translate(164.622 275.566) rotate(-45)"/>
      </g>
    </g>
    <g id="Group_517" data-name="Group 517">
      <g id="Group_516" data-name="Group 516">
        <rect id="Rectangle_180" data-name="Rectangle 180" width="17.067" height="120.66" transform="translate(190.225 270.567) rotate(-45)"/>
      </g>
    </g>
    <g id="Group_519" data-name="Group 519">
      <g id="Group_518" data-name="Group 518">
        <path id="Path_1281" data-name="Path 1281" d="M324.267,0H290.134A8.531,8.531,0,0,0,281.6,8.533V486.4a8.525,8.525,0,0,0,8.533,8.533h34.133A8.525,8.525,0,0,0,332.8,486.4V8.533A8.531,8.531,0,0,0,324.267,0Zm-8.534,477.867H298.666V17.067h17.067Z"/>
      </g>
    </g>
    <g id="Group_521" data-name="Group 521">
      <g id="Group_520" data-name="Group 520">
        <rect id="Rectangle_181" data-name="Rectangle 181" width="187.733" height="17.067" transform="translate(324.267 435.2)"/>
      </g>
    </g>
    <g id="Group_523" data-name="Group 523">
      <g id="Group_522" data-name="Group 522">
        <rect id="Rectangle_182" data-name="Rectangle 182" width="17.067" height="17.067" transform="translate(42.667 452.267)"/>
      </g>
    </g>
  </g>
</svg>
