<?xml version="1.0"?>
<svg xmlns="http://www.w3.org/2000/svg" height="512px" viewBox="0 0 56 56" width="512px"><g><g id="Page-1" fill="none" fill-rule="evenodd"><g id="047---Cargo-Trolley" fill="rgb(0,0,0)" fill-rule="nonzero"><path id="Rectangle-path" d="m7 13h7v7h-7z" data-original="#000000" class="active-path" data-old_color="#000000" fill="#F7DC5F"/><path id="Shape" d="m18 36.49v-14.49h-13.68z" data-original="#000000" class="active-path" data-old_color="#000000" fill="#F7DC5F"/><path id="Shape" d="m1 50c-.26051252-.0044841-.5109097.1007553-.69.29-.19962948.1817916-.3123728.4400102-.31.71 0 .5522847.44771525 1 1 1h3.08c-.10666667-.6624-.10666667-1.3376 0-2z" data-original="#000000" class="active-path" data-old_color="#000000" fill="#F7DC5F"/><path id="Shape" d="m53 0h-33v9h33zm-28 4h-2c-.5522847 0-1-.44771525-1-1s.4477153-1 1-1h2c.5522847 0 1 .44771525 1 1s-.4477153 1-1 1zm26 0h-22c-.5522847 0-1-.44771525-1-1s.4477153-1 1-1h22c.5522847 0 1 .44771525 1 1s-.4477153 1-1 1z" data-original="#000000" class="active-path" data-old_color="#000000" fill="#F7DC5F"/><circle id="Oval" cx="11" cy="51" r="1" data-original="#000000" class="active-path" data-old_color="#000000" fill="#F7DC5F"/><path id="Shape" d="m53 37.24v-26.24h-33v27h32.24c.4197364 0 .76-.3402636.76-.76zm-2-2.24c0 .5522847-.4477153 1-1 1h-6c-.5522847 0-1-.4477153-1-1s.4477153-1 1-1h5v-2c0-.5522847.4477153-1 1-1s1 .4477153 1 1z" data-original="#000000" class="active-path" data-old_color="#000000" fill="#F7DC5F"/><path id="Shape" d="m5 13c.0032948-1.1032019.89679813-1.9967052 2-2h7c1.1032019.0032948 1.9967052.8967981 2 2v7h2v-20h-14.24c-.41973641 0-.76.34026359-.76.76v19.24h2zm0-10c0-.55228475.44771525-1 1-1h6c.5522847 0 1 .44771525 1 1s-.4477153 1-1 1h-5v2c0 .55228475-.44771525 1-1 1s-1-.44771525-1-1z" data-original="#000000" class="active-path" data-old_color="#000000" fill="#F7DC5F"/><path id="Shape" d="m48 46c-2.7614237 0-5 2.2385763-5 5s2.2385763 5 5 5 5-2.2385763 5-5-2.2385763-5-5-5zm0 8c-1.6568542 0-3-1.3431458-3-3s1.3431458-3 3-3 3 1.3431458 3 3c-.0049422 1.6548028-1.3451972 2.9950578-3 3z" data-original="#000000" class="active-path" data-old_color="#000000" fill="#F7DC5F"/><path id="Shape" d="m55 40h-51c-.55228475 0-1 .4477153-1 1v2c0 .5522847.44771525 1 1 1h16c.5522847 0 1 .4477153 1 1s-.4477153 1-1 1h-4.11c.5916258.5742462 1.0729204 1.2521259 1.42 2h24.38c.3470796-.7478741.8283742-1.4257538 1.42-2h-18.11c-.5522847 0-1-.4477153-1-1s.4477153-1 1-1h30c.5522847 0 1-.4477153 1-1v-2c0-.5522847-.4477153-1-1-1z" data-original="#000000" class="active-path" data-old_color="#000000" fill="#F7DC5F"/><circle id="Oval" cx="48" cy="51" r="1" data-original="#000000" class="active-path" data-old_color="#000000" fill="#F7DC5F"/><path id="Shape" d="m11 46c-2.76142375 0-5 2.2385763-5 5s2.23857625 5 5 5c2.7614237 0 5-2.2385763 5-5s-2.2385763-5-5-5zm0 8c-1.65685425 0-3-1.3431458-3-3s1.34314575-3 3-3c1.6568542 0 3 1.3431458 3 3-.0049422 1.6548028-1.3451972 2.9950578-3 3z" data-original="#000000" class="active-path" data-old_color="#000000" fill="#F7DC5F"/></g></g></g> </svg>
