<?xml version="1.0"?>
<svg xmlns="http://www.w3.org/2000/svg" id="Layer_3" enable-background="new 0 0 64 64" height="512px" viewBox="0 0 64 64" width="512px"><g><g><g><path d="m38 44.875c0 1.069.219 2.14.636 3.125h1.39c.087-1.212.405-2.387.915-3.483-.975.155-1.956.274-2.941.354z" data-original="#000000" class="active-path" data-old_color="#000000" fill="#F7DC5F"/><path d="m59 32c-.41 0-.778-.25-.929-.631l-.042-.104c-1.165-2.911-3.051-5.495-5.455-7.507l-.646 1.614-1.857-.742 3.414-8.534c-3.457.434-6.574 2.341-8.536 5.284l-.117.176-1.664-1.109.117-.176c.144-.216.312-.408.467-.614-3.54-1.096-7.207-1.657-10.919-1.657h-6.387c-2.731 0-5.422.728-7.783 2.104-4.726 2.757-7.663 7.87-7.663 13.342v2.439l2.795 12.115h2.236c.153-2.445.866-4.836 2.085-6.969 1.243-2.176 1.884-4.588 1.884-7.031v-3h2v3c0 2.552-.619 5.07-1.781 7.335 3.548 1.101 7.226 1.665 10.948 1.665h3.667c3.985 0 7.922-.639 11.7-1.898l.151-.051.631 1.898-.15.05c-.349.116-.701.221-1.053.328l.186.744c.367 1.469 1.099 2.82 2.125 3.93h1.576v-6c0-.489.354-.906.835-.986l1.189-.198c2.894-.481 5.668-1.646 8.044-3.37l.779-5.447zm-7-2c0-.552-.449-1-1-1s-1 .448-1 1h-2c0-1.654 1.346-3 3-3s3 1.346 3 3z" data-original="#000000" class="active-path" data-old_color="#000000" fill="#F7DC5F"/><path d="m22.007 43.907c.038 1.63.858 3.135 2.219 4.043l.077.05h1.311c-.361-1.132-.554-2.304-.596-3.489-1.011-.161-2.015-.364-3.011-.604z" data-original="#000000" class="active-path" data-old_color="#000000" fill="#F7DC5F"/></g><path d="m9.583 29h-1.14c.345-.591.557-1.268.557-2 0-2.206-1.794-4-4-4-.732 0-1.409.212-2 .556v-4.556h-2v8c0 2.206 1.794 4 4 4h4.178c.097-.677.231-1.344.405-2zm-4.583 0c-1.103 0-2-.897-2-2s.897-2 2-2 2 .897 2 2-.897 2-2 2z" data-original="#000000" class="active-path" data-old_color="#000000" fill="#F7DC5F"/></g></g> </svg>
