<?xml version="1.0"?>
<svg xmlns="http://www.w3.org/2000/svg" xmlns:xlink="http://www.w3.org/1999/xlink" version="1.1" id="Capa_1" x="0px" y="0px" viewBox="0 0 297 297" style="enable-background:new 0 0 297 297;" xml:space="preserve" width="512px" height="512px"><g><g>
	<path d="M35.954,66.517H7.596C3.407,66.517,0,69.924,0,74.113v45.069h35.954V66.517z" data-original="#000000" class="active-path" data-old_color="#000000" fill="#F7DC5F"/>
	<rect x="50.133" y="66.517" width="35.954" height="52.665" data-original="#000000" class="active-path" data-old_color="#000000" fill="#F7DC5F"/>
	<path d="M200.532,121.386l69.353,27.827c-0.112-3.181-0.895-6.343-2.298-9.197l-37.953-67.738   c-1.991-3.554-5.758-5.761-9.831-5.761h-19.272V121.386z" data-original="#000000" class="active-path" data-old_color="#000000" fill="#F7DC5F"/>
	<path d="M273.03,69.049h-28.952l7.944,14.179h21.008c5.398,0,9.791,4.391,9.791,9.79v16.543c0,3.916,3.174,7.09,7.09,7.09   s7.09-3.174,7.09-7.09V93.017C297,79.801,286.247,69.049,273.03,69.049z" data-original="#000000" class="active-path" data-old_color="#000000" fill="#F7DC5F"/>
	<rect x="100.266" y="66.517" width="35.954" height="52.665" data-original="#000000" class="active-path" data-old_color="#000000" fill="#F7DC5F"/>
	<rect x="150.399" y="66.517" width="35.954" height="52.665" data-original="#000000" class="active-path" data-old_color="#000000" fill="#F7DC5F"/>
	<path d="M47.095,189.169c-11.391,0-20.657,9.266-20.657,20.657c0,11.391,9.266,20.657,20.657,20.657s20.657-9.266,20.657-20.657   C67.752,198.435,58.486,189.169,47.095,189.169z" data-original="#000000" class="active-path" data-old_color="#000000" fill="#F7DC5F"/>
	<path d="M219.269,189.169c-11.391,0-20.657,9.266-20.657,20.657c0,11.391,9.266,20.657,20.657,20.657   c11.391,0,20.657-9.266,20.657-20.657C239.926,198.435,230.659,189.169,219.269,189.169z" data-original="#000000" class="active-path" data-old_color="#000000" fill="#F7DC5F"/>
	<path d="M0,133.361v61.78c0,4.189,3.407,7.596,7.596,7.596h5.389c3.284-15.82,17.33-27.747,34.109-27.747   s30.825,11.926,34.109,27.747h103.955c3.284-15.82,17.33-27.747,34.109-27.747s30.825,11.926,34.109,27.747h8.934   c4.189,0,7.596-3.407,7.596-7.596v-30.648l-77.83-31.132H0z" data-original="#000000" class="active-path" data-old_color="#000000" fill="#F7DC5F"/>
</g></g> </svg>
