<svg xmlns="http://www.w3.org/2000/svg" width="480" height="480.02" viewBox="0 0 480 480.02">
  <g id="trolley_1" data-name="trolley 1" transform="translate(-0.01)">
    <g id="Group_498" data-name="Group 498">
      <g id="Group_497" data-name="Group 497">
        <path id="Path_1280" data-name="Path 1280" d="M120.01,376a32,32,0,1,0,32,32A32,32,0,0,0,120.01,376Zm0,48a16,16,0,1,1,16-16A16,16,0,0,1,120.01,424Z"/>
      </g>
    </g>
    <g id="Group_500" data-name="Group 500">
      <g id="Group_499" data-name="Group 499">
        <path id="Path_1281" data-name="Path 1281" d="M478.514,443.352l-40-56a6.846,6.846,0,0,0-.528-.536,7.746,7.746,0,0,0-.8-.8,8.035,8.035,0,0,0-1.52-1.024,6.731,6.731,0,0,0-.864-.448,8,8,0,0,0-2.784-.56H416.01V200a8,8,0,0,0-8-8h-56V88a8,8,0,0,0-8-8h-144a8,8,0,0,0-8,8V192h-8a8,8,0,0,0-8,8V362.84a72.2,72.2,0,0,0-32-22.64V8a8,8,0,0,0-8-8h-32a8,8,0,0,0-8,8v8h-64a32,32,0,0,0,0,64h64V340.2a71.952,71.952,0,1,0,91.8,91.8H396.258l37.6,45.128A8,8,0,0,0,440.01,480h32a8,8,0,0,0,8-8V448A7.951,7.951,0,0,0,478.514,443.352ZM112.01,16h16V336.472a67.961,67.961,0,0,0-16,0V16Zm-80,48a16,16,0,0,1,0-32h64V64Zm88,400a56,56,0,1,1,56-56A56,56,0,0,1,120.01,464Zm136-368h32v32h-32Zm-48,0h32v40a8,8,0,0,0,8,8h48a8,8,0,0,0,8-8V96h32v96h-128V96Zm112,112v96h-48V208Zm-128,0h64V312a8,8,0,0,0,8,8h64a8,8,0,0,0,8-8V208h64V384h-208V208Zm-.472,208a67.961,67.961,0,0,0,0-16H424.01v16ZM464.01,464H443.762L417.09,432h14.92a8,8,0,0,0,8-8v-7.04l24,33.6V464Z"/>
      </g>
    </g>
  </g>
</svg>
