<?xml version="1.0"?>
<svg xmlns="http://www.w3.org/2000/svg" id="Layer_1" enable-background="new 0 0 512 512" height="512px" viewBox="0 0 512 512" width="512px" class=""><g><g><path d="m436 96h-336c-8.836 0-16-7.164-16-16v-34c0-25.364 20.636-46 46-46h276c25.364 0 46 20.636 46 46v34c0 8.836-7.164 16-16 16z" data-original="#000000" class="active-path" data-old_color="#000000" fill="#F7DC5F"/><path d="m140 352c-44.112 0-80 35.888-80 80s35.888 80 80 80 80-35.888 80-80-35.888-80-80-80zm.02 96c-8.836 0-16.005-7.164-16.005-16s7.158-16 15.995-16h.01c8.836 0 16 7.164 16 16s-7.164 16-16 16z" data-original="#000000" class="active-path" data-old_color="#000000" fill="#F7DC5F"/><path d="m108 133v185.16c0 3.223 3.004 5.605 6.14 4.86 8.304-1.972 16.961-3.02 25.86-3.02 61.757 0 112 50.243 112 112 0 11.672-1.8 22.929-5.129 33.516-1.011 3.216 1.394 6.484 4.765 6.484h71.304l13.518 22.536c6.478 10.772 18.304 17.464 30.862 17.464h44.68c8.837 0 16-7.163 16-16v-363c0-2.761-2.239-5-5-5h-310c-2.761 0-5 2.239-5 5zm216.279 163.866c-15.072 14.922-35.042 23.134-56.279 23.134-29.367 0-55.451-16.013-69.364-40.158-.929-1.613-3.19-1.771-4.307-.282l-1.53 2.039c-3.143 4.191-7.948 6.401-12.812 6.401-3.386 0-6.801-1.07-9.704-3.289-7.043-5.382-8.098-15.625-2.78-22.716l23.697-31.595c4.341-5.787 12.024-7.943 18.742-5.255l39.58 15.832c7.999 3.2 12.423 12.1 9.604 20.241-3.01 8.692-12.626 13.015-21.068 9.638l-.02-.008c-2.651-1.06-4.815 2.343-2.723 4.287 8.62 8.009 20.154 12.865 32.685 12.865 12.828 0 24.883-4.991 33.946-14.054 6.367-6.367 16.766-6.246 22.981.364 5.958 6.338 5.535 16.436-.648 22.556zm44.249-78.904-23.728 31.638c-3.091 4.122-7.879 6.401-12.805 6.401-1.991 0-4.004-.372-5.938-1.146l-39.579-15.832c-7.999-3.2-12.423-12.099-9.605-20.24 3.01-8.692 12.625-13.018 21.069-9.639l.02.008c2.651 1.06 4.815-2.343 2.723-4.287-8.62-8.009-20.154-12.865-32.685-12.865-12.667 0-24.581 4.867-33.604 13.715-5.78 5.668-14.847 6.716-21.287 1.809-7.888-6.011-8.449-17.33-1.683-24.097 15.107-15.107 35.198-23.427 56.574-23.427 29.367 0 55.451 16.013 69.364 40.158.929 1.613 3.19 1.771 4.307.282l1.53-2.04c5.454-7.273 15.912-8.581 23.004-2.724 6.643 5.487 7.494 15.392 2.323 22.286z" data-original="#000000" class="active-path" data-old_color="#000000" fill="#F7DC5F"/></g></g> </svg>
