<svg xmlns="http://www.w3.org/2000/svg" width="256.007" height="163.991" viewBox="0 0 256.007 163.991">
  <g id="Group_30" data-name="Group 30" transform="translate(-533.099 -1370.724)">
    <path id="Path_45" data-name="Path 45" d="M576.638,1581.827l23.708,5.837-11.1-26.2,28.2,22.015,2.436-11.616,8.9,8.057,2.529-14.8,18.83,16.581,16.084-32.112,9.879,28.4,10.7-18.112,5.557,14.613,13.584-17.083,7.615,14,16.877-21.816-3.91,21.816,23.257-25.109-4.528,26.962,17.494-8.138-8.438,12.871,10.7-2.058-3.7,5.768,33.414-2.564L768.5,1595.166l41.461,9.087-36.73,10.924,27.389,11.082-27.389,1.9,7.6,7.6-11.557,1.741,6.649,5.225-10.908.95,17.692,29.521-26.184-10.352,2.8,21.678-21.8-20.825-.852,16.563L724,1664.77l-4.107,10.089-7.711-10.089-5.909,11.386-2.45-5.477-4.785,25.654-5.967-19.12-11.326,29.594-5.6-34.343-6.576,12.057-7.551-16.441-7.794,15.954-4.141-11.569-19.12,29.35,3.045-23.87-17.537,20.216-1.7-23.139-19.973,20.825,3.288-23.383L568,1686.59l17.172-22.043-28.741,1.461,19.729-16.684-10.108-3.045,14.249-11.813-24.722-10.23,30.811-9.377-21.19-13.64h23.87Z" transform="translate(-21 -174)" fill="#ef4023" stroke="#ef4023" stroke-width="1"/>
    <path id="Path_46" data-name="Path 46" d="M596.864,1626.549l-11.326,23.87a9.827,9.827,0,0,0,.852,9.256c1.8,2.8,6.333,1.949,6.333,1.949l7.429-18.633,27.036-11.082V1627.4c0-.466-1.449-1.938-3.41-2.436a13.681,13.681,0,0,0-4.871,0l-11.813,3.288a12.276,12.276,0,0,1,3.117-4.687,16.971,16.971,0,0,1,5.53-2.864l19.485-7.672s2.319-8.909-5.724-7.916-19.485,6.211-19.485,6.211l-4.506-2.314a18.837,18.837,0,0,1-3.9,6.333,19.7,19.7,0,0,1-6.455,3.9Z" transform="translate(-21 -174)" fill="#fff" stroke="#fff" stroke-width="1"/>
    <path id="Path_47" data-name="Path 47" d="M639.123,1617.05l-15.954,31.907c-3.988,7.977,7.185,8.647,7.185,8.647l8.768-17.537a87.085,87.085,0,0,0,15.484,7.333,67.527,67.527,0,0,0,15.57,3.018,7.971,7.971,0,0,0,2.085-3.883,6.957,6.957,0,0,0-1.232-4.033s.776-.365-4.461-2.436c-1.838-.727-3.589-.645-7.711-2.107s-8.776-3.739-8.776-3.739a126.682,126.682,0,0,0,15.7-7.935A48.162,48.162,0,0,0,675.9,1617.9s2.342-5.612,1.124-9.509-6-6.08-6-6.08a34.283,34.283,0,0,0-10.773-1.04,43.341,43.341,0,0,0-11.27,2.867s-6.947,2.433-9.413,5.66S639.123,1617.05,639.123,1617.05Z" transform="translate(-21 -174)" fill="#fff" stroke="#fff" stroke-width="1"/>
    <path id="Path_48" data-name="Path 48" d="M651.667,1613.762l-5.967,11.569a57.433,57.433,0,0,0,12.31-4.946,40.962,40.962,0,0,0,9.246-7.6s-.946-1.921-4.843-1.677S651.667,1613.762,651.667,1613.762Z" transform="translate(-21 -174)" fill="#ef4023" stroke="#fff" stroke-width="1"/>
    <path id="Path_49" data-name="Path 49" d="M682.356,1606.454a15.9,15.9,0,0,1,.852,6.333,28.927,28.927,0,0,1-1.949,7.429,63.09,63.09,0,0,0-3.41,7.551,75.6,75.6,0,0,0-2.436,8.4,17.074,17.074,0,0,0-.731,4.506,15.647,15.647,0,0,0,.731,4.384l3.045,2.8a38.427,38.427,0,0,0,9.743-.853,74.285,74.285,0,0,0,11.326-3.775,21.923,21.923,0,0,0,7.185-.852,18.185,18.185,0,0,0,5.846-3.532s.913-2.8,0-4.628-3.654-2.679-3.654-2.679a44.133,44.133,0,0,0-7.063,0,22.482,22.482,0,0,0-5.6,1.34,22.482,22.482,0,0,1-5.846,1.34,3.505,3.505,0,0,1-3.045-1.34,7.984,7.984,0,0,1,3.045-4.262c2.405-1.644,6.576-2.314,6.576-2.314a41.277,41.277,0,0,0,8.038-1.34,12.96,12.96,0,0,0,4.993-2.8s1.035-2.8,0-4.506-4.141-2.314-4.141-2.314l-12.666,1.34a6.709,6.709,0,0,1,1.218-5.115c1.8-2.1,5.967-3.288,5.967-3.288a80.926,80.926,0,0,0,10.473-1.827,18.438,18.438,0,0,0,6.211-2.8s.944-3.349,0-5.48-3.775-3.045-3.775-3.045a49.408,49.408,0,0,0-13.762,3.045A134.384,134.384,0,0,0,682.356,1606.454Z" transform="translate(-21 -174)" fill="#fff" stroke="#fff" stroke-width="1"/>
    <path id="Path_50" data-name="Path 50" d="M724.94,1600.766l3.936,7.317c.575,1.068-3.907,8.3-6.789,15.487s-3.542,10.29-4.741,13.282c-2.882,7.192,14.689,4.545,14.689,4.545l23.392-7.539c3.292-1.061,1.77-5.034-.834-7.1a5.844,5.844,0,0,0-4.1-.823,61.753,61.753,0,0,0-8.813.823,90.256,90.256,0,0,0-9.645,2.336l2.567-8.218s9.2-1.535,14.623-2.8,7.067-2.264,7.067-2.264.323-4.164-.864-6.095-3.885-1.63-3.885-1.63l-12.032,1.075a26.488,26.488,0,0,1,1.212-4.85,5.1,5.1,0,0,1,1.8-2.432s5.839-.736,11.1-1.963a96.256,96.256,0,0,0,9.954-2.945,7.952,7.952,0,0,0,0-4.908,12.1,12.1,0,0,0-3.641-4.275s-4.908-1.583-19.473,3.008S724.94,1600.766,724.94,1600.766Z" transform="translate(-21 -174)" fill="#fff" stroke="#fff" stroke-width="1"/>
  </g>
</svg>
