<?xml version="1.0"?>
<svg xmlns="http://www.w3.org/2000/svg" viewBox="0 0 64 64" width="512" height="512"><g id="Global-Work-Network-Home-Computer"><path d="M50,24H14a3.009,3.009,0,0,0-3,3V53a3.009,3.009,0,0,0,3,3H27.13l-2.96,4.45a.963.963,0,0,0-.05,1.02A.984.984,0,0,0,25,62H39a.984.984,0,0,0,.88-.53.963.963,0,0,0-.05-1.02L36.87,56H50a3.009,3.009,0,0,0,3-3V27A3.009,3.009,0,0,0,50,24ZM37.13,60H26.87l2.67-4h4.92ZM51,53a1,1,0,0,1-1,1H14a1,1,0,0,1-1-1V52H51Zm0-3H13V27a1,1,0,0,1,1-1H50a1,1,0,0,1,1,1Z"/><path d="M8.68,42.75a.985.985,0,0,1-1.13.16l-4-2.02a1,1,0,0,1,.9-1.78l1.75.88a27.2,27.2,0,0,1-.71-13.13L3.45,27.89a1,1,0,0,1-.9-1.78l3.95-2a1.009,1.009,0,0,1,1.09.12,1.022,1.022,0,0,1,.33,1.04,25.1,25.1,0,0,0,1,16.36A1,1,0,0,1,8.68,42.75Z"/><path d="M61.89,27.45a1,1,0,0,1-1.34.44l-2.04-1.03a27.2,27.2,0,0,1-.71,13.13l1.75-.88a1,1,0,1,1,.9,1.78l-4,2.02a.985.985,0,0,1-1.13-.16,1,1,0,0,1-.24-1.12,25.1,25.1,0,0,0,1-16.36,1.022,1.022,0,0,1,.33-1.04,1.009,1.009,0,0,1,1.09-.12l3.95,2A1,1,0,0,1,61.89,27.45Z"/><path d="M39.72,7.69A.992.992,0,0,1,39,8a.842.842,0,0,1-.27-.04A25.084,25.084,0,0,0,32,7a24.11,24.11,0,0,0-6.73.96,1,1,0,0,1-1.22-1.28l1-3a1,1,0,0,1,1.9.64l-.42,1.26A25.662,25.662,0,0,1,32,5a26.113,26.113,0,0,1,5.48.6l-.43-1.28a1,1,0,1,1,1.9-.64l1,3A.994.994,0,0,1,39.72,7.69Z"/><path d="M23,11.59,14.41,3a1.992,1.992,0,0,0-2.82,0L3,11.59a2,2,0,0,0-.43,2.18A1.98,1.98,0,0,0,4.41,15H5v6a1,1,0,0,0,1,1h4a1,1,0,0,0,1-1V19a1,1,0,0,1,1-1h2a1,1,0,0,1,1,1v2a1,1,0,0,0,1,1h4a1,1,0,0,0,1-1V15h.59a1.98,1.98,0,0,0,1.84-1.23A2,2,0,0,0,23,11.59ZM20,13a1,1,0,0,0-1,1v6H17V19a3.009,3.009,0,0,0-3-3H12a3.009,3.009,0,0,0-3,3v1H7V14a1,1,0,0,0-1-1H4.41L13,4.41,21.59,13Z"/><path d="M61,11.59,52.41,3a1.992,1.992,0,0,0-2.82,0L41,11.59a2,2,0,0,0-.43,2.18A1.98,1.98,0,0,0,42.41,15H43v6a1,1,0,0,0,1,1h4a1,1,0,0,0,1-1V19a1,1,0,0,1,1-1h2a1,1,0,0,1,1,1v2a1,1,0,0,0,1,1h4a1,1,0,0,0,1-1V15h.59a1.98,1.98,0,0,0,1.84-1.23A2,2,0,0,0,61,11.59ZM58,13a1,1,0,0,0-1,1v6H55V19a3.009,3.009,0,0,0-3-3H50a3.009,3.009,0,0,0-3,3v1H45V14a1,1,0,0,0-1-1H42.41L51,4.41,59.59,13Z"/><path d="M32,48A10,10,0,1,0,22,38,10.011,10.011,0,0,0,32,48Zm-3.981-9a25.659,25.659,0,0,0,.24,2.722,9.871,9.871,0,0,0-2.4,1.392A7.964,7.964,0,0,1,24.069,39ZM32,30c.306,0,.953.979,1.429,2.869a7.86,7.86,0,0,1-2.858,0C31.047,30.979,31.694,30,32,30Zm-3.344,2.262a7.916,7.916,0,0,1-1.3-.761,7.991,7.991,0,0,1,1.883-1A12.228,12.228,0,0,0,28.656,32.262Zm6.108-1.76a7.991,7.991,0,0,1,1.883,1,7.916,7.916,0,0,1-1.3.761A12.228,12.228,0,0,0,34.764,30.5ZM32,35a10.039,10.039,0,0,0,1.8-.166c.088.659.153,1.377.183,2.166H30.019c.03-.789.1-1.507.183-2.166A10.039,10.039,0,0,0,32,35Zm1.981,4c-.03.789-.095,1.507-.183,2.166a9.82,9.82,0,0,0-3.6,0c-.088-.659-.153-1.377-.183-2.166ZM32,46c-.306,0-.953-.979-1.429-2.869a7.86,7.86,0,0,1,2.858,0C32.953,45.021,32.306,46,32,46Zm3.344-2.262a7.916,7.916,0,0,1,1.3.761,7.991,7.991,0,0,1-1.883,1A12.228,12.228,0,0,0,35.344,43.738ZM29.236,45.5a7.991,7.991,0,0,1-1.883-1,7.916,7.916,0,0,1,1.3-.761A12.228,12.228,0,0,0,29.236,45.5Zm8.909-2.384a9.871,9.871,0,0,0-2.4-1.392A25.659,25.659,0,0,0,35.981,39h3.95A7.964,7.964,0,0,1,38.145,43.114ZM39.931,37h-3.95a25.659,25.659,0,0,0-.24-2.722,9.871,9.871,0,0,0,2.4-1.392A7.964,7.964,0,0,1,39.931,37ZM25.855,32.886a9.871,9.871,0,0,0,2.4,1.392A25.659,25.659,0,0,0,28.019,37h-3.95A7.964,7.964,0,0,1,25.855,32.886Z"/></g></svg>
