<svg xmlns="http://www.w3.org/2000/svg" xmlns:xlink="http://www.w3.org/1999/xlink" width="667" height="686" viewBox="0 0 667 686">
  <defs>
    <filter id="Path_23" x="300.986" y="24.959" width="54.288" height="93.497" filterUnits="userSpaceOnUse">
      <feOffset dy="3" input="SourceAlpha"/>
      <feGaussianBlur stdDeviation="3" result="blur"/>
      <feFlood flood-opacity="0"/>
      <feComposite operator="in" in2="blur"/>
      <feComposite in="SourceGraphic"/>
    </filter>
  </defs>
  <g id="Group_9" data-name="Group 9" transform="translate(-1639 -711)">
    <g id="Group_8" data-name="Group 8">
      <g id="Group_7" data-name="Group 7">
        <g id="Group_6" data-name="Group 6">
          <g id="Group_5" data-name="Group 5">
            <g id="like" transform="translate(1693 700.333)">
              <g id="Group_2" data-name="Group 2">
                <g id="Group_1" data-name="Group 1">
                  <path id="Path_18" data-name="Path 18" d="M512,304a47.4,47.4,0,0,0-13.888-33.579A52.966,52.966,0,0,0,511.765,229.7c-2.5-27.115-26.923-48.363-55.637-48.363H324.352c6.528-19.819,16.981-56.149,16.981-85.333,0-46.272-39.317-85.333-64-85.333-22.144,0-37.995,12.48-38.656,12.992A10.672,10.672,0,0,0,234.666,32v72.341l-61.461,133.1-2.539,1.3v-4.075A10.671,10.671,0,0,0,160,224H53.333A53.382,53.382,0,0,0,0,277.333V448a53.38,53.38,0,0,0,53.333,53.333h64a53.454,53.454,0,0,0,50.2-35.264C185.28,475.2,209.173,480,224,480H419.819c23.232,0,43.563-15.659,48.341-37.248a48.157,48.157,0,0,0-3.84-32.064,47.82,47.82,0,0,0,21.355-64A47.806,47.806,0,0,0,512,304Zm-44.992,26.325a10.665,10.665,0,0,0-6.1,18.368,26.43,26.43,0,0,1-15.21,45.632,10.665,10.665,0,0,0-6.1,18.368,26.379,26.379,0,0,1,7.723,25.451c-2.624,11.9-14.187,20.523-27.5,20.523H224c-17.323,0-46.379-8.128-56.448-18.219A10.679,10.679,0,0,0,149.333,448a32.039,32.039,0,0,1-32,32h-64a32.039,32.039,0,0,1-32-32V277.333a32.039,32.039,0,0,1,32-32h96V256a10.712,10.712,0,0,0,5.077,9.088,10.9,10.9,0,0,0,10.368.448l21.333-10.667a10.651,10.651,0,0,0,4.907-5.056l64-138.667a10.866,10.866,0,0,0,.981-4.48V37.781A44.985,44.985,0,0,1,277.333,32C289.024,32,320,61.056,320,96c0,37.547-20.437,91.669-20.629,92.2a10.65,10.65,0,0,0,9.962,14.464H456.128c17.792,0,32.9,12.736,34.389,28.992a31.87,31.87,0,0,1-15.189,30.187,10.682,10.682,0,0,0,.725,18.581,26.412,26.412,0,0,1-9.045,49.9Z" fill="#F7DC5F"/>
                </g>
              </g>
              <g id="Group_4" data-name="Group 4">
                <g id="Group_3" data-name="Group 3">
                  <path id="Path_19" data-name="Path 19" d="M160,245.333A10.671,10.671,0,0,0,149.333,256V448a10.667,10.667,0,0,0,21.334,0V256A10.671,10.671,0,0,0,160,245.333Z" fill="#F7DC5F"/>
                </g>
              </g>
              <g transform="matrix(1, 0, 0, 1, -54, 10.67)" filter="url(#Path_23)">
                <g id="Path_23-2" data-name="Path 23" transform="translate(309.99 30.96)" fill="#fff">
                  <path d="M0,0H36.288V68.608H0V0Z" stroke="none"/>
                  <path d="M 0.9999961853027344 1 L 0.9999961853027344 67.60497283935547 L 0.9999961853027344 67.6083984375 L 35.28808975219727 67.6083984375 L 35.28808975219727 1 L 0.9999961853027344 1 M -3.814697265625e-06 0 L 36.28808975219727 0 L 36.28808975219727 68.6083984375 L -3.814697265625e-06 68.6083984375 L -3.814697265625e-06 75.49726867675781 C -3.814697265625e-06 75.49726867675781 -3.814697265625e-06 73.55440521240234 -3.814697265625e-06 67.60497283935547 C -3.814697265625e-06 50.452880859375 -3.814697265625e-06 0 -3.814697265625e-06 0 Z" stroke="none" fill="rgba(112,112,112,0)"/>
                </g>
              </g>
              <path id="Path_20" data-name="Path 20" d="M256.031,37.776a52.946,52.946,0,0,1,9.586-3.989,40.118,40.118,0,0,1,9.823-1.637,17.3,17.3,0,0,1,2.9,0,19.541,19.541,0,0,1,10.308,4.67l1.416,1.141.293,4.377-34.331.095Z" fill="#fff" stroke="rgba(112,112,112,0)" stroke-width="1"/>
              <path id="Path_21" data-name="Path 21" d="M290,37.988v68.991l29.439,1.494s2.341-20.015-5.019-37.636A89.73,89.73,0,0,0,301.966,49.61,69.262,69.262,0,0,0,290,37.988Z" fill="#fff" stroke="rgba(112,112,112,0)" stroke-width="1"/>
              <path id="Path_22" data-name="Path 22" d="M255.518,109.951S192.9,247.865,190.557,251.642,170.7,262.624,170.7,262.624s.09,180.643.09,180.91a82.956,82.956,0,0,0,17.83,8.24,146.486,146.486,0,0,0,17.884,4.76,119.463,119.463,0,0,0,13.246,1.693l203.934.745s19.095-3.472,23.261-20.83-9.665-27.785-9.665-27.785-2.742-5.8-.271-9.986a11.938,11.938,0,0,1,3.371-3.529,21,21,0,0,1,6.782-3.242,25.568,25.568,0,0,0,20.926-18.882c4.684-17.188-6.728-25.183-8.864-27.675s-2.368-6.361-.891-9.818,5.43-5.582,5.43-5.582a54.577,54.577,0,0,0,12.919-4.71,25.045,25.045,0,0,0,13.424-20.6c1.62-21.177-12.635-24.541-15.507-26.269s-4.578-6.872-4.578-10.367a8.531,8.531,0,0,1,2.609-6.28c.805-.794,23.032-9.757,16.774-35.573s-30.7-25.229-30.7-25.229-140.984,1.33-150.637.285-8.768-12.263-8.768-12.263,9.162-28.3,14.063-48.467a239.62,239.62,0,0,0,5.99-33.7,109.589,109.589,0,0,0-30.41-4.815C273.093,103.657,255.518,109.951,255.518,109.951Z" fill="#fff" stroke="rgba(112,112,112,0)" stroke-width="1"/>
            </g>
            <g id="Ellipse_6" data-name="Ellipse 6" transform="translate(1762 1104)" fill="#fff" stroke="rgba(112,112,112,0)" stroke-width="1">
              <ellipse cx="23.5" cy="24.5" rx="23.5" ry="24.5" stroke="none"/>
              <ellipse cx="23.5" cy="24.5" rx="23" ry="24" fill="none"/>
            </g>
            <g id="Rectangle_1" data-name="Rectangle 1" transform="translate(1712 940)" fill="#F7DC5F" stroke="#F7DC5F" stroke-width="1">
              <rect width="133" height="248" stroke="none"/>
              <rect x="0.5" y="0.5" width="132" height="247" fill="none"/>
            </g>
            <g id="Ellipse_7" data-name="Ellipse 7" transform="translate(1746 1104)" fill="#fff" stroke="#707070" stroke-width="1">
              <ellipse cx="33" cy="33.5" rx="33" ry="33.5" stroke="none"/>
              <ellipse cx="33" cy="33.5" rx="32.5" ry="33" fill="none"/>
            </g>
            <text id="Easy_to_Do" data-name="Easy to Do" transform="translate(1639 1358)" fill="#F7DC5F" font-size="134" font-family="OpenSans-Bold, Open Sans" font-weight="700"><tspan x="0" y="0">Easy</tspan><tspan y="0" font-family="OpenSans, Open Sans" font-weight="400"> </tspan><tspan y="0" font-family="SegoeUI, Segoe UI" font-weight="400">to Do</tspan></text>
          </g>
        </g>
      </g>
    </g>
  </g>
</svg>
