<svg xmlns="http://www.w3.org/2000/svg" width="160.026" height="77.075" viewBox="0 0 160.026 77.075">
  <g id="Group_19" data-name="Group 19" transform="translate(-19.974 -61.425)">
    <path id="Path_3" data-name="Path 3" d="M26.9,138.5h4.8l74.1-69.1-6.5-6.1a6.828,6.828,0,0,0-9.4,0L22.2,126.4a6.99,6.99,0,0,0,4.7,12.1Z"/>
    <path id="Path_4" data-name="Path 4" d="M138,138.2c1.5,0,1.8-.8.7-1.8l-15.3-14.3a2.91,2.91,0,0,0-3.9,0l-15.3,14.3c-1.1,1-.8,1.8.7,1.8Z"/>
    <path id="Path_5" data-name="Path 5" d="M57.3,138.5l61.3-57.2L105.8,69.4,31.7,138.5H57.3Z" fill="#3f3f3f"/>
    <path id="Path_6" data-name="Path 6" d="M80.9,138.5a6.834,6.834,0,0,0,4.7-1.9L113,111.1a6.828,6.828,0,0,1,9.4,0l27.4,25.5a7.022,7.022,0,0,0,4.7,1.9H180L118.7,81.3,57.4,138.5H80.9Z" fill="#797979"/>
  </g>
</svg>
