<svg xmlns="http://www.w3.org/2000/svg" width="464.972" height="208.794" viewBox="0 0 464.972 208.794">
  <g id="logo-light" transform="translate(-260.19 25.095)">
    <g id="Group_51" data-name="Group 51" transform="translate(260.19 142.324)">
      <g id="Group_50" data-name="Group 50">
        <g id="Group_49" data-name="Group 49">
          <path id="Path_140" data-name="Path 140" d="M42-30.676l.524,11.52H40.275a15.883,15.883,0,0,0-.759-4.267,6.669,6.669,0,0,0-1.7-2.723,5.979,5.979,0,0,0-2.67-1.414,15.217,15.217,0,0,0-3.665-.393h0q-2.042,0-3.273.079a9.71,9.71,0,0,0-1.885.262,1.487,1.487,0,0,0-.864.5,1.386,1.386,0,0,0-.209.785h0V1.107a15.218,15.218,0,0,0,.236,2.88,3.8,3.8,0,0,0,.969,1.964A4.649,4.649,0,0,0,28.6,7.1a15.653,15.653,0,0,0,3.718.445h0v2.1H10.376V7.548a15.9,15.9,0,0,0,3.77-.445,4.845,4.845,0,0,0,2.173-1.152,3.7,3.7,0,0,0,1-1.964,15.218,15.218,0,0,0,.236-2.88h0V-26.33a1.538,1.538,0,0,0-.183-.785,1.285,1.285,0,0,0-.759-.5,7.555,7.555,0,0,0-1.649-.262q-1.073-.079-2.8-.079h0a34.27,34.27,0,0,0-3.613.183,6.707,6.707,0,0,0-3.037,1.047,6.1,6.1,0,0,0-2.121,2.618,12.591,12.591,0,0,0-.864,4.948H.48L1-30.676ZM82.164-20.571h0a10.793,10.793,0,0,1-2.513,7.278q-2.513,2.932-8.011,3.927h0L83.787,4.563a8.274,8.274,0,0,0,2.985,2.225,8.646,8.646,0,0,0,3.508.759h0v2.1H77.87L64.885-6.276A9.247,9.247,0,0,0,62.607-8.4,3.7,3.7,0,0,0,60.8-8.95h0V1.317a15.688,15.688,0,0,0,.262,3.168A3.364,3.364,0,0,0,62.11,6.4a4.5,4.5,0,0,0,2.278.916,26.883,26.883,0,0,0,4.006.236h0v2.09H47.6V7.548a13.507,13.507,0,0,0,2.8-.236,3.11,3.11,0,0,0,1.676-.89,3.567,3.567,0,0,0,.812-1.833A17.737,17.737,0,0,0,53.1,1.578h0V-22.613a22.293,22.293,0,0,0-.157-2.958,3.6,3.6,0,0,0-.681-1.78,2.636,2.636,0,0,0-1.492-.89,15.687,15.687,0,0,0-2.592-.34h0v-2.094H66.3q7.592,0,11.729,2.67a8.391,8.391,0,0,1,4.135,7.434ZM60.8-26.854v14.766h3.4q4.922,0,7.357-1.911T74-20.309h0A7.291,7.291,0,0,0,71.954-25.7,7.643,7.643,0,0,0,66.3-27.744H61.743Q60.8-27.744,60.8-26.854Zm68.96,9.163v11.1a26.261,26.261,0,0,1-.969,7.619,12.3,12.3,0,0,1-3.011,5.21,12.075,12.075,0,0,1-5.262,2.985,27.729,27.729,0,0,1-7.723.943h0q-8.43,0-12.331-3.534t-3.9-11.284h0V-19q0-2.042-.052-3.43t-.157-2.33a8.771,8.771,0,0,0-.288-1.545,4.273,4.273,0,0,0-.445-1.021h0a2.343,2.343,0,0,0-1.361-1,10.413,10.413,0,0,0-2.723-.262h0v-2.094h18.8v2.094a16.177,16.177,0,0,0-3.246.236,2.876,2.876,0,0,0-1.623.916h0a3.434,3.434,0,0,0-.6,1.021,6.971,6.971,0,0,0-.367,1.571q-.131.969-.183,2.382T104.261-19h0V-5.281q0,5.969,2.54,8.823T114.628,6.4h0q10.786,0,10.786-11.991h0v-12.1q0-2.2-.079-3.77a23.809,23.809,0,0,0-.262-2.67,9.245,9.245,0,0,0-.471-1.833,3.991,3.991,0,0,0-.707-1.2h0a4.351,4.351,0,0,0-1.885-1.073,11.769,11.769,0,0,0-3.194-.34h0v-2.094h16.965v2.094a11.881,11.881,0,0,0-2.985.288,3,3,0,0,0-1.623,1.021h0a3.592,3.592,0,0,0-.681,1.23,10.2,10.2,0,0,0-.419,1.885q-.157,1.126-.236,2.7t-.079,3.77Zm44.664-9.739.995-3.246h2.566l-1.047,13.247h-2.094a13.854,13.854,0,0,0-4.267-7.592,11.239,11.239,0,0,0-7.671-2.775h0a11.915,11.915,0,0,0-5.5,1.23,11.324,11.324,0,0,0-4.058,3.508,16.59,16.59,0,0,0-2.513,5.55,28.851,28.851,0,0,0-.864,7.357h0q0,8.116,3.325,12.488t9.818,4.372h0a13.17,13.17,0,0,0,8.666-2.828,15.68,15.68,0,0,0,4.9-8.43h2.3V9.642h-2.46l-.733-4.137a21.518,21.518,0,0,1-13.981,4.66h0a25.059,25.059,0,0,1-8.64-1.414,18.75,18.75,0,0,1-6.6-4.006,17.665,17.665,0,0,1-4.215-6.31,22.027,22.027,0,0,1-1.492-8.273h0a23.208,23.208,0,0,1,1.571-8.692,19.662,19.662,0,0,1,4.425-6.755,19.759,19.759,0,0,1,6.807-4.372,23.913,23.913,0,0,1,8.771-1.545h0a19.436,19.436,0,0,1,5.969.89,28.217,28.217,0,0,1,6.022,2.88ZM199.14-5.7V1.212a22.148,22.148,0,0,0,.183,3.194,4.062,4.062,0,0,0,.707,1.885,2.7,2.7,0,0,0,1.492.943,11.756,11.756,0,0,0,2.592.314h0V9.642H185.945V7.548a14.453,14.453,0,0,0,2.828-.314,3.215,3.215,0,0,0,1.676-.89,3.507,3.507,0,0,0,.785-1.78,17.262,17.262,0,0,0,.209-2.985h0V-22.613a19.244,19.244,0,0,0-.183-2.932,3.633,3.633,0,0,0-.707-1.78,2.841,2.841,0,0,0-1.492-.89,13.491,13.491,0,0,0-2.54-.367h0v-2.094h18.065v2.094a14.267,14.267,0,0,0-2.854.314,3.022,3.022,0,0,0-1.649.943,3.733,3.733,0,0,0-.759,1.885,22.15,22.15,0,0,0-.183,3.194h0v11.624L212.7-25.178a3.66,3.66,0,0,0,1.2-2.2h0q0-.576-.759-.89a8.369,8.369,0,0,0-2.8-.314h0v-2.094h14.3v2.042a15.282,15.282,0,0,0-2.016.209,5.093,5.093,0,0,0-1.728.681,13.225,13.225,0,0,0-1.937,1.492q-1.073.969-2.644,2.592h0l-9.32,9.739L222.388,4.825a6.973,6.973,0,0,0,2.435,1.99,9.18,9.18,0,0,0,3.43.733h0V9.642H208.879V7.548a11.673,11.673,0,0,0,3.089-.367q.943-.314.943-1.047h0a1.563,1.563,0,0,0-.079-.5,3.809,3.809,0,0,0-.262-.576,7.4,7.4,0,0,0-.55-.838q-.367-.5-.995-1.23h0L201.758-8.423Zm84.721,3.456-.838,11.886H246.946V7.548a14.453,14.453,0,0,0,2.828-.314,3.215,3.215,0,0,0,1.676-.89,3.507,3.507,0,0,0,.785-1.78,17.259,17.259,0,0,0,.209-2.985h0V-22.613a19.145,19.145,0,0,0-.183-2.958,3.779,3.779,0,0,0-.707-1.78,2.636,2.636,0,0,0-1.492-.89,15.479,15.479,0,0,0-2.54-.34h0v-2.094h18.065v2.094a14.267,14.267,0,0,0-2.854.314,3.022,3.022,0,0,0-1.649.943,3.733,3.733,0,0,0-.759,1.885,22.152,22.152,0,0,0-.183,3.194h0V-.307a12,12,0,0,0,.445,3.587,4,4,0,0,0,1.545,2.147,7.058,7.058,0,0,0,2.932,1.047,30.09,30.09,0,0,0,4.555.288h0A29.447,29.447,0,0,0,274.7,6.4a8.119,8.119,0,0,0,3.43-1.388,7.275,7.275,0,0,0,2.225-2.749,19.654,19.654,0,0,0,1.414-4.5h2.094ZM311.979-31.2h0a23.6,23.6,0,0,1,8.8,1.623,22.244,22.244,0,0,1,7.095,4.451,20.755,20.755,0,0,1,4.739,6.65,19.848,19.848,0,0,1,1.728,8.273h0a18.418,18.418,0,0,1-1.754,7.959,20.535,20.535,0,0,1-4.765,6.467,22.617,22.617,0,0,1-7.1,4.346,23.8,23.8,0,0,1-8.744,1.6h0a23.8,23.8,0,0,1-8.744-1.6,22.946,22.946,0,0,1-7.121-4.346,20.014,20.014,0,0,1-4.765-6.467,18.653,18.653,0,0,1-1.728-7.959h0a19.848,19.848,0,0,1,1.728-8.273,20.755,20.755,0,0,1,4.739-6.65,22.244,22.244,0,0,1,7.1-4.451,23.6,23.6,0,0,1,8.792-1.623Zm0,37.962h0a12.57,12.57,0,0,0,5.5-1.178,11.806,11.806,0,0,0,4.189-3.351,15.352,15.352,0,0,0,2.644-5.289,24.752,24.752,0,0,0,.916-6.99h0a27.287,27.287,0,0,0-.916-7.357,17,17,0,0,0-2.644-5.6,11.675,11.675,0,0,0-4.189-3.561,12.122,12.122,0,0,0-5.5-1.23h0a12.077,12.077,0,0,0-5.524,1.23A11.743,11.743,0,0,0,302.292-23a17,17,0,0,0-2.644,5.6,27.288,27.288,0,0,0-.916,7.357h0a24.751,24.751,0,0,0,.916,6.99,15.353,15.353,0,0,0,2.644,5.289,11.873,11.873,0,0,0,4.163,3.351,12.524,12.524,0,0,0,5.524,1.178ZM364.812.583l-1.2-3.142H348.789q-2.461,5.55-2.461,7.7h0a1.861,1.861,0,0,0,1.178,1.99,11.21,11.21,0,0,0,3.534.419h0V9.642H336.694V7.548a14.587,14.587,0,0,0,2.173-.419A5.754,5.754,0,0,0,340.49,6.4a4.583,4.583,0,0,0,1.23-1.23,10.732,10.732,0,0,0,.995-1.859h0L356.486-31.2h3.875L372.875-.621q1.1,2.67,1.859,4.189a8.221,8.221,0,0,0,1.623,2.33,4.721,4.721,0,0,0,1.99,1.126,16.527,16.527,0,0,0,2.906.471h0V9.642H361.461V7.5a12.6,12.6,0,0,0,3.613-.524,1.628,1.628,0,0,0,1.1-1.676h0a6.521,6.521,0,0,0-.367-1.885q-.367-1.152-.995-2.828Zm-8.587-22.149L349.993-5.7h12.462l-6.022-15.866Zm49.8,31.207H384.186V7.548a15.741,15.741,0,0,0,2.8-.288,3.11,3.11,0,0,0,1.676-.89,3.516,3.516,0,0,0,.812-1.78,17.18,17.18,0,0,0,.209-3.011h0V-22.613a22.3,22.3,0,0,0-.157-2.958,3.6,3.6,0,0,0-.681-1.78,2.614,2.614,0,0,0-1.44-.89,13.827,13.827,0,0,0-2.382-.34h0v-2.094h19.9a26.489,26.489,0,0,1,9.268,1.571,22.56,22.56,0,0,1,7.331,4.346,19.646,19.646,0,0,1,4.817,6.6,19.974,19.974,0,0,1,1.728,8.325h0a18.892,18.892,0,0,1-1.623,7.88A18.017,18.017,0,0,1,421.912,4.2a21,21,0,0,1-6.964,4,26.534,26.534,0,0,1-8.928,1.44Zm-1.2-37.124H398.28a.787.787,0,0,0-.667.223.787.787,0,0,0-.223.667h0V.479a5.349,5.349,0,0,0,1.885,4.5q1.885,1.466,5.812,1.466h0q6.859,0,10.551-4.137t3.682-12.04h0a25.927,25.927,0,0,0-.995-7.488,15.771,15.771,0,0,0-2.88-5.577,12.472,12.472,0,0,0-4.582-3.482,14.673,14.673,0,0,0-6.048-1.2ZM436.7,9.642,435.919-3.71h2.042a12.423,12.423,0,0,0,3.979,7.828,11.7,11.7,0,0,0,8.011,2.854h0a12.735,12.735,0,0,0,3.561-.471,8.551,8.551,0,0,0,2.775-1.335,6.177,6.177,0,0,0,1.78-2.042A5.53,5.53,0,0,0,458.7.479h0a5.492,5.492,0,0,0-.393-2.173,4.725,4.725,0,0,0-1.492-1.78A15.616,15.616,0,0,0,453.8-5.229q-1.911-.89-4.948-2.042h0q-6.126-2.356-9.059-5.472a10.378,10.378,0,0,1-2.932-7.357h0a10.616,10.616,0,0,1,.943-4.5,10.245,10.245,0,0,1,2.644-3.508,12.209,12.209,0,0,1,4.084-2.278,16.236,16.236,0,0,1,5.262-.812h0a14.894,14.894,0,0,1,5.027.838,18.465,18.465,0,0,1,4.66,2.513h0l.943-2.618h1.257l.576,11.31h-2.042a13.263,13.263,0,0,0-3.927-6.571A9.237,9.237,0,0,0,450.109-28h0a8.223,8.223,0,0,0-5.262,1.6,5.011,5.011,0,0,0-2.016,4.11h0a4.986,4.986,0,0,0,.367,1.964,4.319,4.319,0,0,0,1.361,1.649,14.2,14.2,0,0,0,2.723,1.6q1.728.812,4.451,1.806h0a50.21,50.21,0,0,1,6.257,2.854,19.031,19.031,0,0,1,4.241,3.089,11.185,11.185,0,0,1,2.435,3.482,10.129,10.129,0,0,1,.785,4.032h0a10.333,10.333,0,0,1-1.152,4.87,11.261,11.261,0,0,1-3.22,3.77,15.87,15.87,0,0,1-4.922,2.461,21.118,21.118,0,0,1-6.31.89h0a17.331,17.331,0,0,1-5.655-.864,20.01,20.01,0,0,1-5.184-2.8h0l-1.047,3.142Z" transform="translate(-0.48 31.2)" fill="#f7dc5f"/>
        </g>
      </g>
    </g>
    <g id="Group_59" data-name="Group 59" transform="translate(381.432 -25.095)">
      <g id="Group_58" data-name="Group 58">
        <g id="Group_57" data-name="Group 57">
          <g id="Group_56" data-name="Group 56">
            <path id="Path_145" data-name="Path 145" d="M172.47,23.657l-.223-4.115,2.311-.111c4.979-.268,8.115-.415,9.961-.467V15.258S22.128,20.951,22.128,49.936s62,62.28,61.718,78.894C83.447,151.438,20.8,162.464.1,169.848H82.275c2.472-1.846,5.2-3.029,8.337-4.835l1.783-.855,2.055,3.655-1.787.731c-.949.545-1.85,1.3-2.725,1.3h57.84s28.781-16.58,28.122-41.344C175.071,97.652,74.014,66.273,74.453,50.185c.465-16.932,110.066-22.511,110.066-22.511V23.089c-1.846.059-5,.2-9.74.458ZM53.429,65.06l-1.193-1.68c-3.747-5.28-5.569-10.1-5.569-14.741,0-2.6,1.292-5.038,3.843-7.262l1.553-1.355,2.708,3.1L53.218,44.48c-1.613,1.407-2.429,2.806-2.429,4.157,0,3.7,1.617,7.86,4.809,12.357l1.193,1.68Zm70.9,84.526c-5.185,4.8-11.951,8.621-18.433,12.128l-1.813.978-1.959-3.626,1.811-.978c6.254-3.38,12.762-7.056,17.6-11.528l1.51-1.4,2.8,3.024Zm-1.4-35.274,1.56,1.346c6.5,5.617,9.393,9.808,9.393,13.587a27.508,27.508,0,0,1-.929,6.81l-.539,1.988-3.976-1.082.541-1.988a23.269,23.269,0,0,0,.781-5.68c0-1.682-1.381-4.824-7.964-10.519l-1.558-1.346ZM92.8,92.8l7.092,4.879c4.4,3.011,8.545,5.857,12.435,8.63L114,107.5l-2.394,3.354-1.676-1.194c-3.858-2.752-7.993-5.586-12.37-8.588l-7.1-4.885ZM82.17,85.254l1.663,1.218L81.4,89.8l-1.663-1.215A197.939,197.939,0,0,1,62.7,74.874L61.186,73.48l2.789-3.035,1.516,1.394A193.647,193.647,0,0,0,82.17,85.254ZM86.7,32.993a167.827,167.827,0,0,0-20.718,5.186l-1.955.653L62.72,34.926l1.955-.653a171.876,171.876,0,0,1,21.24-5.324l2.021-.391.785,4.045ZM122.93,27.7c-7.652.851-14.846,1.78-21.381,2.76l-2.038.306L98.9,26.694l2.038-.306c6.585-.989,13.832-1.924,21.538-2.78l2.047-.229.454,4.1Zm36.559-3.232c-7.384.51-14.628,1.085-21.532,1.717l-2.051.188-.373-4.1,2.051-.188c6.934-.633,14.207-1.213,21.623-1.724l2.053-.142.284,4.111Z" transform="translate(-0.099 -15.258)" fill="#f7dc5f"/>
          </g>
        </g>
      </g>
    </g>
  </g>
</svg>
