<svg xmlns="http://www.w3.org/2000/svg" width="1663.521" height="432.229" viewBox="0 0 1663.521 432.229">
  <g id="Group_16" data-name="Group 16" transform="translate(-84.781 54.784)">
    <g id="Group_15" data-name="Group 15">
      <g id="logo-light" transform="translate(488.901 5.2)">
        <g id="Group_3" data-name="Group 3" transform="translate(-406 277)">
          <g id="Group_2" data-name="Group 2" transform="translate(1.88 -28.32)">
            <g id="Group_1" data-name="Group 1">
              <path id="Path_1" data-name="Path 1" d="M6.19-22.1,5.27,7.506H2.8L1.88-22.1Zm6.49,0L11.76,7.506H9.29L8.37-22.1Zm11.042,0h3.632V57.662H44.839V67.4H23.723Zm40.15,81.385h0q4.892,0,7.023-11.356h3.971a50.509,50.509,0,0,1-4,14.871q-2.736,5.678-7.047,5.678h0q-5.473,0-8.911-10.139h0q-3.342-9.869-3.342-24.74h0q0-15.006,3.2-24.74h0q3.39-10.139,8.815-10.139h0q5.424,0,8.815,10.139h0q3.2,9.734,3.2,24.74h0v4.056H55.3a50.549,50.549,0,0,0,2.664,15.412h0Q60.288,59.284,63.872,59.284ZM63.582,7.911h0q-3.342,0-5.618,5.813h0A48.4,48.4,0,0,0,55.348,28.19H71.815A48.4,48.4,0,0,0,69.2,13.724h0Q66.923,7.911,63.582,7.911ZM103.78,67.4V56.58q-2.906,11.9-8.669,11.9h0q-5.231,0-8.524-10.139h0q-3.2-10-3.2-24.74h0q0-14.736,3.2-24.74h0Q89.88-1.282,95.353-1.282T103.78,10.75h0V-.2h3.632V67.4Zm-8.185-8.111h0q3.923,0,6.2-7.571h0q2.179-7.165,2.179-18.116h0q0-10.95-2.179-18.116h0q-2.276-7.571-6.2-7.571h0q-3.875,0-6.3,7.571h0Q87.022,22.647,87.022,33.6h0q0,10.95,2.276,18.116h0Q91.72,59.284,95.595,59.284ZM137.439,67.4V56.58q-2.906,11.9-8.669,11.9h0q-5.231,0-8.524-10.139h0q-3.2-10-3.2-24.74h0q0-14.736,3.2-24.74h0q3.293-10.139,8.766-10.139t8.427,12.032h0V-27.238h3.632V67.4Zm-8.185-8.111h0q3.923,0,6.2-7.571h0q2.179-7.165,2.179-18.116h0q0-10.95-2.179-18.116h0q-2.276-7.571-6.2-7.571h0q-3.875,0-6.3,7.571h0q-2.276,7.165-2.276,18.116h0q0,10.95,2.276,18.116h0Q125.38,59.284,129.255,59.284ZM152.211,67.4V-.2h3.632V67.4Zm-.145-92.2h3.923v13.249h-3.923ZM166.983-.2h3.632V10.345a36.213,36.213,0,0,1,3.2-8.247q1.889-3.38,4.31-3.38A5.472,5.472,0,0,1,182.287.611a16.187,16.187,0,0,1,3.051,5.678h0q3,8.247,3,21.766h0V67.4h-3.632V28.325q0-9.328-1.889-14.871t-4.892-5.543h0q-3.051,0-5.182,5.678h0q-2.131,5.813-2.131,14.871h0V67.4h-3.632Zm51.144,10.815h0V-.2h3.632V65.368q0,14.6-2.979,22.239t-8.015,7.638q-5.037,0-7.87-5.408t-3.85-14.33h4.02q1.55,10.545,7.071,10.545h0q4.214,0,6.1-5.408t1.889-15.953h0V55.363Q215.172,67.4,209.457,67.4h0q-5.231,0-8.524-10h0q-3.2-9.734-3.2-24.334h0q0-14.6,3.2-24.334h0q3.293-10,8.79-10T218.126,10.615ZM209.941,58.2h0a4.465,4.465,0,0,0,3.535-1.96,17.383,17.383,0,0,0,2.664-5.34h0q2.179-7.03,2.179-17.845h0q0-10.815-2.179-17.845h0q-2.373-7.3-6.2-7.3h0q-3.923,0-6.3,7.3h0a59.741,59.741,0,0,0-2.276,17.845h0A59.741,59.741,0,0,0,203.645,50.9h0Q206.018,58.2,209.941,58.2Zm65.867-80.3h4.214V67.4h-3.632V-6.689L264.523,35.9,252.464-6.689V67.4h-3.632V-22.1h4.214l11.478,42.45Zm34.58,89.5V56.58q-2.906,11.9-8.669,11.9h0q-5.231,0-8.524-10.139h0q-3.2-10-3.2-24.74h0q0-14.736,3.2-24.74h0q3.293-10.139,8.766-10.139t8.427,12.032h0V-.2h3.632V67.4ZM302.2,59.284h0q3.923,0,6.2-7.571h0q2.179-7.165,2.179-18.116h0q0-10.95-2.179-18.116h0q-2.276-7.571-6.2-7.571h0q-3.875,0-6.3,7.571h0q-2.276,7.165-2.276,18.116h0q0,10.95,2.276,18.116h0Q298.329,59.284,302.2,59.284ZM337.7-1.282h.242V8.858h-.436q-3.923,0-6.393,8.787h0a75.527,75.527,0,0,0-2.325,20.008h0V67.4H325.16V-.2h3.632V16.428Q329.954,5.883,333.829.881h0A4.7,4.7,0,0,1,337.7-1.282ZM367.1-.2l-9.735,26.633L367.828,67.4h-4.456L354.9,33.462l-4.553,12.573V67.4h-3.632V-27.238h3.632V33.327L362.016-.2Zm18.356,59.484h0q4.892,0,7.023-11.356h3.971a50.507,50.507,0,0,1-4,14.871q-2.736,5.678-7.047,5.678h0q-5.473,0-8.911-10.139h0q-3.342-9.869-3.342-24.74h0q0-15.006,3.2-24.74h0q3.39-10.139,8.815-10.139h0q5.424,0,8.814,10.139h0q3.2,9.734,3.2,24.74h0v4.056H376.884a50.55,50.55,0,0,0,2.664,15.412h0Q381.873,59.284,385.457,59.284Zm-.291-51.373h0q-3.342,0-5.618,5.813h0a48.4,48.4,0,0,0-2.615,14.465H393.4a48.4,48.4,0,0,0-2.615-14.465h0Q388.508,7.911,385.166,7.911ZM412.433,67.4H408.8V8.722h-4.94V-.2h4.94V-24.4h3.632V-.2H418V8.722h-5.57ZM430.449-.2V10.615q2.906-11.9,8.669-11.9h0q5.231,0,8.475,10.139h0q3.245,10,3.245,24.74h0q0,14.736-3.245,24.74h0q-3.245,10.139-8.718,10.139t-8.427-12.032h0V94.163h-3.632V-.2Zm8.185,8.111h0q-3.923,0-6.2,7.571h0q-2.179,7.165-2.179,18.116h0q0,10.95,2.179,18.116h0q2.276,7.571,6.2,7.571h0q3.875,0,6.3-7.571h0q2.276-7.165,2.276-18.116h0q0-10.95-2.276-18.116h0Q442.509,7.911,438.634,7.911Zm25.426-35.15V67.4h-3.632V-27.238ZM494.088,67.4V56.58q-2.906,11.9-8.669,11.9h0q-5.23,0-8.524-10.139h0q-3.2-10-3.2-24.74h0q0-14.736,3.2-24.74h0q3.293-10.139,8.766-10.139t8.427,12.032h0V-.2h3.632V67.4ZM485.9,59.284h0q3.923,0,6.2-7.571h0q2.179-7.165,2.179-18.116h0q0-10.95-2.179-18.116h0q-2.276-7.571-6.2-7.571h0q-3.875,0-6.3,7.571h0q-2.276,7.165-2.276,18.116h0q0,10.95,2.276,18.116h0Q482.029,59.284,485.9,59.284Zm34.144,0h0q2.325,0,4.117-3.65a31.839,31.839,0,0,0,2.615-9.463H530.7q-1.114,10-4.068,16.088h0q-3.1,6.219-7.362,6.219h0q-5.327,0-8.669-10.139h0q-3.245-9.869-3.245-24.74h0q0-14.871,3.245-24.74h0q3.342-10.139,8.669-10.139h0q4.262,0,7.362,6.219h0q2.954,6.084,4.068,16.088h-3.923a31.839,31.839,0,0,0-2.615-9.463q-1.792-3.65-4.117-3.65A4.9,4.9,0,0,0,516.1,9.939a17.149,17.149,0,0,0-2.736,5.543h0A59.31,59.31,0,0,0,510.991,33.6h0a59.311,59.311,0,0,0,2.373,18.116h0Q515.786,59.284,520.048,59.284Zm30.8,0h0q4.892,0,7.023-11.356h3.971a50.505,50.505,0,0,1-4,14.871q-2.736,5.678-7.047,5.678h0q-5.473,0-8.911-10.139h0q-3.342-9.869-3.342-24.74h0q0-15.006,3.2-24.74h0q3.39-10.139,8.814-10.139h0q5.424,0,8.815,10.139h0q3.2,9.734,3.2,24.74h0v4.056H542.278a50.551,50.551,0,0,0,2.664,15.412h0Q547.266,59.284,550.85,59.284Zm-.291-51.373h0q-3.342,0-5.618,5.813h0a48.4,48.4,0,0,0-2.615,14.465h16.467a48.394,48.394,0,0,0-2.615-14.465h0Q553.9,7.911,550.559,7.911Zm47.366-26.633h-.484q-2.567,0-3.85,3.177T592.307-5.337h0V-.2h5.618V8.722h-5.618V67.4h-3.632V8.722H584.51V-.2h4.165V-6.149q0-11.086,2.373-16.629t6.587-5.543h.291Zm18.84,17.44h0q5.424,0,8.815,10.139h0q3.2,9.734,3.2,24.74h0q0,15.006-3.2,24.74h0q-3.39,10.139-8.815,10.139h0q-5.424,0-8.814-10.139h0q-3.2-9.734-3.2-24.74h0q0-15.006,3.2-24.74h0Q611.341-1.282,616.765-1.282Zm0,60.566h0q3.923,0,6.2-7.571h0q2.18-7.165,2.179-18.116h0q0-10.95-2.179-18.116h0q-2.276-7.571-6.2-7.571h0q-3.923,0-6.2,7.571h0q-2.18,7.165-2.18,18.116h0q0,10.95,2.18,18.116h0Q612.842,59.284,616.765,59.284ZM650.958-1.282h.242V8.858h-.436q-3.923,0-6.393,8.787h0a75.527,75.527,0,0,0-2.325,20.008h0V67.4h-3.632V-.2h3.632V16.428Q643.209,5.883,647.083.881h0a4.7,4.7,0,0,1,3.875-2.163Zm47.7-20.819v9.734H687.475V67.4h-3.632V-12.367H672.655V-22.1Zm17.92,20.819h.242V8.858h-.436q-3.923,0-6.393,8.787h0a75.525,75.525,0,0,0-2.325,20.008h0V67.4h-3.632V-.2h3.632V16.428Q708.833,5.883,712.708.881h0a4.7,4.7,0,0,1,3.874-2.163ZM743.849,67.4V56.58q-2.906,11.9-8.669,11.9h0q-5.231,0-8.524-10.139h0q-3.2-10-3.2-24.74h0q0-14.736,3.2-24.74h0q3.293-10.139,8.766-10.139t8.427,12.032h0V-.2h3.632V67.4Zm-8.185-8.111h0q3.923,0,6.2-7.571h0q2.179-7.165,2.179-18.116h0q0-10.95-2.179-18.116h0q-2.276-7.571-6.2-7.571h0q-3.875,0-6.3,7.571h0q-2.276,7.165-2.276,18.116h0q0,10.95,2.276,18.116h0Q731.79,59.284,735.664,59.284ZM758.621-.2h3.632V10.345a36.221,36.221,0,0,1,3.2-8.247q1.889-3.38,4.31-3.38A5.472,5.472,0,0,1,773.925.611a16.186,16.186,0,0,1,3.051,5.678h0q3,8.247,3,21.766h0V67.4h-3.632V28.325q0-9.328-1.889-14.871t-4.892-5.543h0q-3.051,0-5.182,5.678h0q-2.131,5.813-2.131,14.871h0V67.4h-3.632ZM808.8,17.915h-3.681Q804.63,7.37,799.037,7.37T793.443,17.1h0a12.736,12.736,0,0,0,1.187,6.151,11.1,11.1,0,0,0,2.979,3.447,31.531,31.531,0,0,0,3.9,2.5,13.949,13.949,0,0,1,3.9,3.245,16.751,16.751,0,0,1,2.979,5.746,33.552,33.552,0,0,1,1.187,10h0q0,9.869-2.664,15.074t-7.216,5.2h0q-4.843,0-7.7-6.76h0q-2.615-5.948-2.809-15.547h3.778q.339,9.328,3.778,12.573h0a3.859,3.859,0,0,0,2.494,1.082,6.413,6.413,0,0,0,2.3-.406,5.708,5.708,0,0,0,2.082-1.487h0q2.325-2.569,2.325-8.787h0a13.956,13.956,0,0,0-1.187-6.422,11.418,11.418,0,0,0-2.979-3.65,27.365,27.365,0,0,0-3.9-2.569,14.466,14.466,0,0,1-3.9-3.177A16.052,16.052,0,0,1,791,27.784a31.6,31.6,0,0,1-1.187-9.734h0q0-9.193,2.4-14.263t7.1-5.07h0q4.456,0,7.023,5.948h0q2.131,5,2.47,13.249ZM822.7-.2V10.615q2.906-11.9,8.669-11.9h0q5.231,0,8.475,10.139h0q3.245,10,3.245,24.74h0q0,14.736-3.245,24.74h0q-3.245,10.139-8.718,10.139T822.7,56.445h0V94.163h-3.632V-.2Zm8.185,8.111h0q-3.923,0-6.2,7.571h0Q822.5,22.647,822.5,33.6h0q0,10.95,2.179,18.116h0q2.276,7.571,6.2,7.571h0q3.875,0,6.3-7.571h0q2.276-7.165,2.276-18.116h0q0-10.95-2.276-18.116h0Q834.755,7.911,830.88,7.911Zm32.3-9.193h0q5.424,0,8.815,10.139h0q3.2,9.734,3.2,24.74h0q0,15.006-3.2,24.74h0q-3.39,10.139-8.815,10.139h0q-5.424,0-8.814-10.139h0q-3.2-9.734-3.2-24.74h0q0-15.006,3.2-24.74h0Q857.76-1.282,863.184-1.282Zm0,60.566h0q3.923,0,6.2-7.571h0q2.179-7.165,2.179-18.116h0q0-10.95-2.179-18.116h0q-2.276-7.571-6.2-7.571h0q-3.923,0-6.2,7.571h0q-2.18,7.165-2.179,18.116h0q0,10.95,2.179,18.116h0Q859.261,59.284,863.184,59.284ZM897.376-1.282h.242V8.858h-.436q-3.923,0-6.393,8.787h0a75.53,75.53,0,0,0-2.325,20.008h0V67.4h-3.632V-.2h3.632V16.428Q889.628,5.883,893.5.881h0a4.7,4.7,0,0,1,3.874-2.163ZM912.632,67.4H909V8.722h-4.94V-.2H909V-24.4h3.632V-.2h5.57V8.722h-5.57Zm48.431,0V56.58q-2.906,11.9-8.669,11.9h0q-5.231,0-8.524-10.139h0q-3.2-10-3.2-24.74h0q0-14.736,3.2-24.74h0q3.293-10.139,8.766-10.139t8.427,12.032h0V-.2H964.7V67.4Zm-8.185-8.111h0q3.923,0,6.2-7.571h0q2.179-7.165,2.179-18.116h0q0-10.95-2.179-18.116h0q-2.276-7.571-6.2-7.571h0q-3.875,0-6.3,7.571h0q-2.276,7.165-2.276,18.116h0q0,10.95,2.276,18.116h0Q949,59.284,952.879,59.284ZM975.835-.2h3.632V10.345a36.21,36.21,0,0,1,3.2-8.247q1.889-3.38,4.31-3.38A5.472,5.472,0,0,1,991.14.611a16.185,16.185,0,0,1,3.051,5.678h0q3,8.247,3,21.766h0V67.4h-3.632V28.325q0-9.328-1.889-14.871t-4.892-5.543h0q-3.051,0-5.182,5.678h0q-2.131,5.813-2.131,14.871h0V67.4h-3.632Zm51.143,67.6V56.58q-2.906,11.9-8.669,11.9h0q-5.231,0-8.524-10.139h0q-3.2-10-3.2-24.74h0q0-14.736,3.2-24.74h0q3.293-10.139,8.766-10.139t8.427,12.032h0V-27.238h3.632V67.4Zm-8.185-8.111h0q3.923,0,6.2-7.571h0q2.18-7.165,2.179-18.116h0q0-10.95-2.179-18.116h0q-2.276-7.571-6.2-7.571h0q-3.875,0-6.3,7.571h0q-2.276,7.165-2.276,18.116h0q0,10.95,2.276,18.116h0Q1014.919,59.284,1018.794,59.284ZM1076.96-7.771,1068.291,67.4h-4.117L1054.2-22.1h3.826l8.233,75.166,8.621-75.166h4.165l8.621,75.166L1095.9-22.1h3.826l-9.977,89.5h-4.117ZM1125.44,67.4V56.58q-2.906,11.9-8.669,11.9h0q-5.231,0-8.524-10.139h0q-3.2-10-3.2-24.74h0q0-14.736,3.2-24.74h0q3.293-10.139,8.766-10.139t8.427,12.032h0V-.2h3.632V67.4Zm-8.185-8.111h0q3.923,0,6.2-7.571h0q2.18-7.165,2.179-18.116h0q0-10.95-2.179-18.116h0q-2.276-7.571-6.2-7.571h0q-3.875,0-6.3,7.571h0q-2.276,7.165-2.276,18.116h0q0,10.95,2.276,18.116h0Q1113.38,59.284,1117.255,59.284Zm35.5-60.566H1153V8.858h-.436q-3.923,0-6.393,8.787h0a75.527,75.527,0,0,0-2.325,20.008h0V67.4h-3.632V-.2h3.632V16.428q1.163-10.545,5.037-15.547h0a4.7,4.7,0,0,1,3.875-2.163Zm19.179,60.566h0q4.892,0,7.023-11.356h3.971a50.509,50.509,0,0,1-4,14.871q-2.736,5.678-7.047,5.678h0q-5.473,0-8.911-10.139h0q-3.342-9.869-3.342-24.74h0q0-15.006,3.2-24.74h0q3.39-10.139,8.815-10.139h0q5.424,0,8.815,10.139h0q3.2,9.734,3.2,24.74h0v4.056h-20.293a50.551,50.551,0,0,0,2.664,15.412h0Q1168.35,59.284,1171.934,59.284Zm-.291-51.373h0q-3.342,0-5.618,5.813h0a48.4,48.4,0,0,0-2.615,14.465h16.467a48.394,48.394,0,0,0-2.615-14.465h0Q1174.985,7.911,1171.643,7.911Zm21.31-35.15h3.632V10.345a36.219,36.219,0,0,1,3.2-8.247q1.889-3.38,4.31-3.38a5.472,5.472,0,0,1,4.165,1.893,16.187,16.187,0,0,1,3.051,5.678h0q3,8.247,3,21.766h0V67.4h-3.632V28.325q0-9.328-1.889-14.871T1203.9,7.911h0q-3.051,0-5.182,5.678h0q-2.131,5.813-2.131,14.871h0V67.4h-3.632Zm42.765,25.957h0q5.424,0,8.814,10.139h0q3.2,9.734,3.2,24.74h0q0,15.006-3.2,24.74h0q-3.39,10.139-8.814,10.139h0q-5.424,0-8.815-10.139h0q-3.2-9.734-3.2-24.74h0q0-15.006,3.2-24.74h0Q1230.294-1.282,1235.718-1.282Zm0,60.566h0q3.923,0,6.2-7.571h0q2.179-7.165,2.179-18.116h0q0-10.95-2.179-18.116h0q-2.276-7.571-6.2-7.571h0q-3.923,0-6.2,7.571h0q-2.179,7.165-2.179,18.116h0q0,10.95,2.179,18.116h0Q1231.8,59.284,1235.718,59.284Zm42.765,8.111h-3.632V56.85a36.213,36.213,0,0,1-3.2,8.247q-1.889,3.38-4.31,3.38a5.472,5.472,0,0,1-4.165-1.893,16.193,16.193,0,0,1-3.051-5.678h0q-3-8.247-3-21.766h0V-.2h3.632V38.87q0,9.328,1.889,14.871t4.892,5.543h0q3.051,0,5.182-5.678h0q2.131-5.813,2.131-14.871h0V-.2h3.632Zm29.059-49.48h-3.681q-.484-10.545-6.078-10.545t-5.594,9.734h0a12.735,12.735,0,0,0,1.187,6.151,11.1,11.1,0,0,0,2.979,3.447,31.506,31.506,0,0,0,3.9,2.5,13.949,13.949,0,0,1,3.9,3.245,16.75,16.75,0,0,1,2.979,5.746,33.557,33.557,0,0,1,1.187,10h0q0,9.869-2.664,15.074t-7.216,5.2h0q-4.843,0-7.7-6.76h0q-2.615-5.948-2.809-15.547h3.778q.339,9.328,3.778,12.573h0a3.859,3.859,0,0,0,2.494,1.082,6.413,6.413,0,0,0,2.3-.406,5.707,5.707,0,0,0,2.082-1.487h0q2.325-2.569,2.325-8.787h0a13.957,13.957,0,0,0-1.187-6.422,11.415,11.415,0,0,0-2.979-3.65,27.352,27.352,0,0,0-3.9-2.569,14.466,14.466,0,0,1-3.9-3.177,16.051,16.051,0,0,1-2.979-5.543,31.6,31.6,0,0,1-1.186-9.734h0q0-9.193,2.4-14.263t7.1-5.07h0q4.456,0,7.022,5.948h0q2.131,5,2.47,13.249Zm10.267,49.48V-.2h3.632V67.4Zm-.145-92.2h3.923v13.249h-3.923ZM1332.581-.2h3.632V10.345a36.218,36.218,0,0,1,3.2-8.247q1.889-3.38,4.31-3.38a5.472,5.472,0,0,1,4.165,1.893,16.191,16.191,0,0,1,3.051,5.678h0q3,8.247,3,21.766h0V67.4h-3.632V28.325q0-9.328-1.889-14.871t-4.891-5.543h0q-3.051,0-5.182,5.678h0q-2.131,5.813-2.131,14.871h0V67.4h-3.632Zm51.143,10.815h0V-.2h3.632V65.368q0,14.6-2.979,22.239t-8.015,7.638q-5.037,0-7.87-5.408t-3.85-14.33h4.02q1.55,10.545,7.071,10.545h0q4.213,0,6.1-5.408t1.889-15.953h0V55.363Q1380.77,67.4,1375.055,67.4h0q-5.231,0-8.524-10h0q-3.2-9.734-3.2-24.334h0q0-14.6,3.2-24.334h0q3.293-10,8.79-10T1383.724,10.615ZM1375.54,58.2h0a4.464,4.464,0,0,0,3.535-1.96,17.384,17.384,0,0,0,2.664-5.34h0q2.179-7.03,2.179-17.845h0q0-10.815-2.179-17.845h0q-2.373-7.3-6.2-7.3h0q-3.923,0-6.3,7.3h0a59.739,59.739,0,0,0-2.276,17.845h0a59.739,59.739,0,0,0,2.276,17.845h0Q1371.617,58.2,1375.54,58.2Zm42.571-66.582a18.506,18.506,0,0,0-1.235,4.934,49.754,49.754,0,0,0-.315,5.746,16.14,16.14,0,0,0,.944,5.61A13.508,13.508,0,0,0,1420,12.237a18.79,18.79,0,0,0,3.536,3.109q1.986,1.352,4.044,2.771a37.19,37.19,0,0,1,4.044,3.245,17.928,17.928,0,0,1,3.535,4.664h0q3.439,6.084,3.439,16.629h0q0,12.573-3.366,19.2t-9.323,6.624h0q-6.732,0-10.268-7.841h0q-3.148-7.03-3.584-20.008h3.778q.194,9.193,3.2,14.06h0q2.615,4.191,6.926,4.191h0q9.008,0,9.008-15.817h0a18.6,18.6,0,0,0-1.622-8.517,16.458,16.458,0,0,0-4.068-5.137A47.394,47.394,0,0,0,1424,25.621a23.776,23.776,0,0,1-5.279-4.529,22.273,22.273,0,0,1-4.068-7.3,37.323,37.323,0,0,1-1.622-12.235h0q0-10.95,3-17.845t9.057-6.895h0q6.1,0,9.444,7.841h0q3.051,6.895,3.245,17.71h-3.729q-.484-11.086-5.134-14.736h0a6.237,6.237,0,0,0-4.092-1.352,5.816,5.816,0,0,0-4.117,1.555A10.629,10.629,0,0,0,1418.111-8.379Zm40.682,7.1h0q5.424,0,8.814,10.139h0q3.2,9.734,3.2,24.74h0q0,15.006-3.2,24.74h0q-3.39,10.139-8.814,10.139h0q-5.424,0-8.814-10.139h0q-3.2-9.734-3.2-24.74h0q0-15.006,3.2-24.74h0Q1453.369-1.282,1458.793-1.282Zm0,60.566h0q3.923,0,6.2-7.571h0q2.179-7.165,2.179-18.116h0q0-10.95-2.179-18.116h0q-2.276-7.571-6.2-7.571h0q-3.923,0-6.2,7.571h0q-2.18,7.165-2.18,18.116h0q0,10.95,2.18,18.116h0Q1454.87,59.284,1458.793,59.284Zm25.281-86.522V67.4h-3.632V-27.238ZM1516.33,67.4H1512.7V56.85a36.23,36.23,0,0,1-3.2,8.247q-1.889,3.38-4.311,3.38a5.472,5.472,0,0,1-4.165-1.893,16.189,16.189,0,0,1-3.051-5.678h0q-3-8.247-3-21.766h0V-.2h3.632V38.87q0,9.328,1.889,14.871t4.892,5.543h0q3.051,0,5.182-5.678h0q2.131-5.813,2.131-14.871h0V-.2h3.632Zm17.387,0h-3.632V8.722h-4.94V-.2h4.94V-24.4h3.632V-.2h5.57V8.722h-5.57Zm14.384,0V-.2h3.632V67.4Zm-.146-92.2h3.923v13.249h-3.923Zm25.427,23.523h0q5.424,0,8.814,10.139h0q3.2,9.734,3.2,24.74h0q0,15.006-3.2,24.74h0q-3.39,10.139-8.814,10.139h0q-5.424,0-8.815-10.139h0q-3.2-9.734-3.2-24.74h0q0-15.006,3.2-24.74h0Q1567.957-1.282,1573.382-1.282Zm0,60.566h0q3.923,0,6.2-7.571h0q2.18-7.165,2.179-18.116h0q0-10.95-2.179-18.116h0q-2.276-7.571-6.2-7.571h0q-3.923,0-6.2,7.571h0Q1565,22.647,1565,33.6h0q0,10.95,2.179,18.116h0Q1569.459,59.284,1573.382,59.284ZM1595.031-.2h3.632V10.345a36.225,36.225,0,0,1,3.2-8.247q1.889-3.38,4.31-3.38a5.472,5.472,0,0,1,4.165,1.893,16.187,16.187,0,0,1,3.051,5.678h0q3,8.247,3,21.766h0V67.4h-3.632V28.325q0-9.328-1.889-14.871t-4.892-5.543h0q-3.051,0-5.182,5.678h0q-2.131,5.813-2.131,14.871h0V67.4h-3.632Zm50.175,18.116h-3.681q-.484-10.545-6.078-10.545t-5.594,9.734h0a12.735,12.735,0,0,0,1.187,6.151,11.106,11.106,0,0,0,2.979,3.447,31.519,31.519,0,0,0,3.9,2.5,13.949,13.949,0,0,1,3.9,3.245,16.746,16.746,0,0,1,2.979,5.746,33.552,33.552,0,0,1,1.187,10h0q0,9.869-2.664,15.074t-7.216,5.2h0q-4.843,0-7.7-6.76h0q-2.615-5.948-2.809-15.547h3.778q.339,9.328,3.778,12.573h0a3.858,3.858,0,0,0,2.494,1.082,6.412,6.412,0,0,0,2.3-.406,5.706,5.706,0,0,0,2.083-1.487h0q2.325-2.569,2.325-8.787h0a13.959,13.959,0,0,0-1.186-6.422,11.419,11.419,0,0,0-2.979-3.65,27.357,27.357,0,0,0-3.9-2.569,14.467,14.467,0,0,1-3.9-3.177,16.051,16.051,0,0,1-2.979-5.543,31.6,31.6,0,0,1-1.187-9.734h0q0-9.193,2.4-14.263t7.095-5.07h0q4.456,0,7.022,5.948h0q2.131,5,2.47,13.249ZM1658.912-22.1l-.92,29.607h-2.47L1654.6-22.1Zm6.49,0-.92,29.607h-2.47l-.92-29.607Z" transform="translate(-1.88 28.32)" fill="#f7dc5f"/>
            </g>
          </g>
        </g>
        <g id="Group_6" data-name="Group 6">
          <g id="Group_5" data-name="Group 5" transform="translate(282 232)">
            <g id="Group_4" data-name="Group 4">
              <path id="Path_2" data-name="Path 2" d="M59.12-30.461l.739,16.268H56.68a22.43,22.43,0,0,0-1.072-6.027,9.419,9.419,0,0,0-2.4-3.845,8.443,8.443,0,0,0-3.771-2,21.49,21.49,0,0,0-5.176-.555h0q-2.884,0-4.622.111a13.713,13.713,0,0,0-2.662.37,2.1,2.1,0,0,0-1.22.7,1.957,1.957,0,0,0-.3,1.109h0V14.425a21.492,21.492,0,0,0,.333,4.067,5.37,5.37,0,0,0,1.368,2.773,6.566,6.566,0,0,0,3.032,1.627,22.106,22.106,0,0,0,5.25.629h0v2.958H14.456V23.521a22.454,22.454,0,0,0,5.324-.629,6.842,6.842,0,0,0,3.069-1.627,5.231,5.231,0,0,0,1.4-2.773,21.492,21.492,0,0,0,.333-4.067h0V-24.323a2.173,2.173,0,0,0-.259-1.109,1.815,1.815,0,0,0-1.072-.7,10.67,10.67,0,0,0-2.329-.37q-1.516-.111-3.956-.111h0a48.4,48.4,0,0,0-5.1.259,9.473,9.473,0,0,0-4.289,1.479,8.607,8.607,0,0,0-2.995,3.7,17.782,17.782,0,0,0-1.22,6.988H.48l.739-16.268Zm56.717,14.272h0A15.242,15.242,0,0,1,112.288-5.91q-3.549,4.141-11.314,5.546h0l17.156,19.67a11.685,11.685,0,0,0,4.215,3.143,12.21,12.21,0,0,0,4.954,1.072h0v2.958H109.774L91.435,4A13.059,13.059,0,0,0,88.218,1,5.218,5.218,0,0,0,85.667.227h0V14.721a22.155,22.155,0,0,0,.37,4.474,4.751,4.751,0,0,0,1.479,2.7,6.349,6.349,0,0,0,3.217,1.294,37.965,37.965,0,0,0,5.657.333h0v2.958H67.032V23.521a19.074,19.074,0,0,0,3.956-.333,4.392,4.392,0,0,0,2.366-1.257A5.038,5.038,0,0,0,74.5,19.343a25.049,25.049,0,0,0,.3-4.252h0V-19.073a31.484,31.484,0,0,0-.222-4.178,5.082,5.082,0,0,0-.961-2.514,3.723,3.723,0,0,0-2.107-1.257,22.154,22.154,0,0,0-3.66-.481h0v-2.958H93.431q10.722,0,16.564,3.771A11.851,11.851,0,0,1,115.837-16.189Zm-30.17-8.874V-4.209h4.807q6.951,0,10.39-2.7t3.439-8.911h0a10.3,10.3,0,0,0-2.884-7.617q-2.884-2.884-7.986-2.884H87q-1.331,0-1.331,1.257Zm97.388,12.941V3.555a37.086,37.086,0,0,1-1.368,10.759,17.37,17.37,0,0,1-4.252,7.358A17.053,17.053,0,0,1,170,25.887,39.16,39.16,0,0,1,159.1,27.218h0q-11.905,0-17.414-4.991T136.173,6.291h0V-13.97q0-2.884-.074-4.844t-.222-3.291a12.386,12.386,0,0,0-.407-2.181,6.036,6.036,0,0,0-.629-1.442h0a3.309,3.309,0,0,0-1.923-1.4,14.706,14.706,0,0,0-3.845-.37h0v-2.958h26.547V-27.5a22.846,22.846,0,0,0-4.585.333,4.061,4.061,0,0,0-2.292,1.294h0a4.85,4.85,0,0,0-.85,1.442,9.844,9.844,0,0,0-.518,2.218q-.185,1.368-.259,3.365t-.074,4.881h0V5.4q0,8.43,3.586,12.46t11.055,4.03h0q15.233,0,15.233-16.934h0V-12.122q0-3.106-.111-5.324a33.629,33.629,0,0,0-.37-3.771,13.059,13.059,0,0,0-.666-2.588,5.636,5.636,0,0,0-1-1.7h0a6.145,6.145,0,0,0-2.662-1.516A16.62,16.62,0,0,0,167.6-27.5h0v-2.958h23.959V-27.5a16.778,16.778,0,0,0-4.215.407,4.241,4.241,0,0,0-2.292,1.442h0a5.073,5.073,0,0,0-.961,1.738,14.409,14.409,0,0,0-.592,2.662q-.222,1.59-.333,3.808t-.111,5.324Zm63.077-13.754,1.4-4.585h3.623l-1.479,18.709h-2.958A19.565,19.565,0,0,0,240.7-22.474a15.872,15.872,0,0,0-10.833-3.919h0a16.827,16.827,0,0,0-7.764,1.738,15.992,15.992,0,0,0-5.731,4.954,23.429,23.429,0,0,0-3.549,7.838,40.743,40.743,0,0,0-1.22,10.39h0q0,11.462,4.7,17.636t13.865,6.175h0A18.6,18.6,0,0,0,242.4,18.344q4.844-3.993,6.914-11.905h3.254v20.04H249.09l-1.035-5.842q-8.134,6.581-19.744,6.581h0a35.39,35.39,0,0,1-12.2-2,26.479,26.479,0,0,1-9.317-5.657,24.947,24.947,0,0,1-5.953-8.911A31.107,31.107,0,0,1,198.732-1.03h0A32.775,32.775,0,0,1,200.95-13.3a27.767,27.767,0,0,1,6.249-9.539,27.9,27.9,0,0,1,9.613-6.175A33.771,33.771,0,0,1,229.2-31.2h0a27.449,27.449,0,0,1,8.43,1.257,39.849,39.849,0,0,1,8.5,4.067Zm34.9,30.688v9.761a31.283,31.283,0,0,0,.259,4.511,5.737,5.737,0,0,0,1,2.662,3.815,3.815,0,0,0,2.107,1.331,16.6,16.6,0,0,0,3.66.444h0v2.958H262.4V23.521a20.411,20.411,0,0,0,3.993-.444,4.54,4.54,0,0,0,2.366-1.257,4.953,4.953,0,0,0,1.109-2.514,24.377,24.377,0,0,0,.3-4.215h0V-19.073a27.181,27.181,0,0,0-.259-4.141,5.131,5.131,0,0,0-1-2.514,4.012,4.012,0,0,0-2.107-1.257,19.053,19.053,0,0,0-3.586-.518h0v-2.958h25.512V-27.5a20.149,20.149,0,0,0-4.03.444,4.268,4.268,0,0,0-2.329,1.331,5.272,5.272,0,0,0-1.072,2.662,31.283,31.283,0,0,0-.259,4.511h0V-2.139L300.187-22.7a5.169,5.169,0,0,0,1.7-3.106h0q0-.813-1.072-1.257a11.819,11.819,0,0,0-3.956-.444h0v-2.958h20.188v2.884a21.584,21.584,0,0,0-2.847.3,7.193,7.193,0,0,0-2.44.961,18.675,18.675,0,0,0-2.736,2.107q-1.516,1.368-3.734,3.66h0L292.127-6.8l21.74,26.473a9.849,9.849,0,0,0,3.439,2.81,12.964,12.964,0,0,0,4.844,1.035h0v2.958h-27.36V23.521A16.485,16.485,0,0,0,299.152,23q1.331-.444,1.331-1.479h0a2.208,2.208,0,0,0-.111-.7,5.376,5.376,0,0,0-.37-.813,10.452,10.452,0,0,0-.776-1.183q-.518-.7-1.4-1.738h0L284.732.967Zm119.646,4.88L399.5,26.479H348.548V23.521a20.411,20.411,0,0,0,3.993-.444,4.54,4.54,0,0,0,2.366-1.257,4.953,4.953,0,0,0,1.109-2.514,24.377,24.377,0,0,0,.3-4.215h0V-19.073a27.041,27.041,0,0,0-.259-4.178,5.338,5.338,0,0,0-1-2.514,3.723,3.723,0,0,0-2.107-1.257,21.858,21.858,0,0,0-3.586-.481h0v-2.958h25.512V-27.5a20.149,20.149,0,0,0-4.03.444,4.268,4.268,0,0,0-2.329,1.331,5.272,5.272,0,0,0-1.072,2.662,31.283,31.283,0,0,0-.259,4.511h0V12.429a16.944,16.944,0,0,0,.629,5.065,5.654,5.654,0,0,0,2.181,3.032A9.967,9.967,0,0,0,374.134,22a42.493,42.493,0,0,0,6.433.407h0a41.585,41.585,0,0,0,7.173-.518,11.466,11.466,0,0,0,4.844-1.96,10.274,10.274,0,0,0,3.143-3.882,27.752,27.752,0,0,0,2-6.359h2.958ZM440.39-31.2h0a33.328,33.328,0,0,1,12.423,2.292,31.414,31.414,0,0,1,10.02,6.285,29.311,29.311,0,0,1,6.692,9.391,28.03,28.03,0,0,1,2.44,11.684h0a26.01,26.01,0,0,1-2.477,11.24,29,29,0,0,1-6.729,9.132,31.941,31.941,0,0,1-10.02,6.138,33.607,33.607,0,0,1-12.349,2.255h0a33.607,33.607,0,0,1-12.349-2.255,32.405,32.405,0,0,1-10.057-6.138,28.265,28.265,0,0,1-6.729-9.132,26.341,26.341,0,0,1-2.44-11.24h0a28.03,28.03,0,0,1,2.44-11.684,29.311,29.311,0,0,1,6.692-9.391,31.414,31.414,0,0,1,10.02-6.285A33.328,33.328,0,0,1,440.39-31.2Zm0,53.612h0a17.753,17.753,0,0,0,7.764-1.664,16.673,16.673,0,0,0,5.916-4.733A21.682,21.682,0,0,0,457.8,8.546,34.953,34.953,0,0,0,459.1-1.325h0a38.536,38.536,0,0,0-1.294-10.39,24.014,24.014,0,0,0-3.734-7.912,16.488,16.488,0,0,0-5.916-5.028,17.119,17.119,0,0,0-7.764-1.738h0a17.056,17.056,0,0,0-7.8,1.738,16.585,16.585,0,0,0-5.879,5.028,24.015,24.015,0,0,0-3.734,7.912,38.536,38.536,0,0,0-1.294,10.39h0a34.953,34.953,0,0,0,1.294,9.872,21.683,21.683,0,0,0,3.734,7.469,16.768,16.768,0,0,0,5.879,4.733A17.687,17.687,0,0,0,440.39,22.412ZM515,13.686l-1.7-4.437H492.375q-3.475,7.838-3.475,10.87h0a2.628,2.628,0,0,0,1.664,2.81,15.831,15.831,0,0,0,4.991.592h0v2.958H475.293V23.521a20.6,20.6,0,0,0,3.069-.592,8.126,8.126,0,0,0,2.292-1.035,6.472,6.472,0,0,0,1.738-1.738,15.155,15.155,0,0,0,1.405-2.625h0L503.245-31.2h5.472l17.673,43.185q1.553,3.771,2.625,5.916a11.612,11.612,0,0,0,2.292,3.291,6.668,6.668,0,0,0,2.81,1.59,23.34,23.34,0,0,0,4.1.666h0v3.032H510.27V23.447a17.787,17.787,0,0,0,5.1-.739,2.3,2.3,0,0,0,1.553-2.366h0a9.208,9.208,0,0,0-.518-2.662q-.518-1.627-1.4-3.993Zm-12.127-31.28-8.8,22.406h17.6l-8.5-22.406ZM573.2,26.479H542.363V23.521a22.229,22.229,0,0,0,3.956-.407,4.392,4.392,0,0,0,2.366-1.257,4.966,4.966,0,0,0,1.146-2.514,24.259,24.259,0,0,0,.3-4.252h0V-19.073a31.485,31.485,0,0,0-.222-4.178,5.081,5.081,0,0,0-.961-2.514,3.691,3.691,0,0,0-2.034-1.257,19.526,19.526,0,0,0-3.365-.481h0v-2.958h28.1a37.409,37.409,0,0,1,13.089,2.218A31.861,31.861,0,0,1,595.087-22.1a27.746,27.746,0,0,1,6.8,9.317,28.208,28.208,0,0,1,2.44,11.758h0A26.679,26.679,0,0,1,602.038,10.1a25.443,25.443,0,0,1-6.4,8.689,29.651,29.651,0,0,1-9.835,5.657A37.472,37.472,0,0,1,573.2,26.479ZM571.5-25.95h-9.243A1.111,1.111,0,0,0,561-24.693h0V13.538q0,4.289,2.662,6.359t8.208,2.071h0q9.687,0,14.9-5.842T591.982-.882h0a36.617,36.617,0,0,0-1.4-10.574,22.273,22.273,0,0,0-4.067-7.875,17.614,17.614,0,0,0-6.47-4.917,20.722,20.722,0,0,0-8.541-1.7Zm45.034,52.428L615.423,7.622h2.884a17.544,17.544,0,0,0,5.62,11.055,16.523,16.523,0,0,0,11.314,4.03h0a17.985,17.985,0,0,0,5.028-.666,12.077,12.077,0,0,0,3.919-1.886,8.725,8.725,0,0,0,2.514-2.884,7.81,7.81,0,0,0,.887-3.734h0a7.756,7.756,0,0,0-.555-3.069,6.673,6.673,0,0,0-2.108-2.514,22.05,22.05,0,0,0-4.252-2.477q-2.7-1.257-6.988-2.884h0q-8.652-3.328-12.793-7.727a14.656,14.656,0,0,1-4.141-10.39h0a14.992,14.992,0,0,1,1.331-6.359,14.469,14.469,0,0,1,3.734-4.954,17.242,17.242,0,0,1,5.768-3.217,22.93,22.93,0,0,1,7.432-1.146h0a21.034,21.034,0,0,1,7.1,1.183,26.077,26.077,0,0,1,6.581,3.549h0l1.331-3.7H651.8l.813,15.973h-2.884a18.731,18.731,0,0,0-5.546-9.28,13.045,13.045,0,0,0-8.726-3.217h0a11.614,11.614,0,0,0-7.432,2.255,7.077,7.077,0,0,0-2.847,5.8h0a7.041,7.041,0,0,0,.518,2.773,6.1,6.1,0,0,0,1.923,2.329,20.052,20.052,0,0,0,3.845,2.255q2.44,1.146,6.286,2.551h0a70.91,70.91,0,0,1,8.837,4.03,26.876,26.876,0,0,1,5.99,4.363A15.8,15.8,0,0,1,656.02,4.59a14.306,14.306,0,0,1,1.109,5.694h0a14.592,14.592,0,0,1-1.627,6.877,15.9,15.9,0,0,1-4.548,5.324A22.412,22.412,0,0,1,644,25.961a29.824,29.824,0,0,1-8.911,1.257h0A24.475,24.475,0,0,1,627.106,26a28.258,28.258,0,0,1-7.321-3.956h0l-1.479,4.437Z" transform="translate(-135.842 -22.903)" fill="#f7dc5f"/>
            </g>
          </g>
        </g>
        <g id="Group_10" data-name="Group 10">
          <g id="Group_9" data-name="Group 9" transform="translate(95 94)">
            <g id="Group_8" data-name="Group 8">
              <g id="Group_7" data-name="Group 7">
                <path id="Path_3" data-name="Path 3" d="M32.778,203.911h8.874L178.638,76.168,166.622,64.891a12.623,12.623,0,0,0-17.378,0L24.089,181.543c-8.5,7.949-2.958,22.369,8.689,22.369Z" transform="translate(-278 -61.411)" fill="#f7dc5f"/>
                <path id="Path_4" data-name="Path 4" d="M167.246,152.5c2.773,0,3.328-1.479,1.294-3.328l-28.285-26.436a5.38,5.38,0,0,0-7.21,0l-28.285,26.436c-2.034,1.849-1.479,3.328,1.294,3.328Z" transform="translate(-207.081 -10.555)" fill="#f7dc5f"/>
                <path id="Path_5" data-name="Path 5" d="M79.026,197.143,192.35,91.4l-23.663-22L31.7,197.143H79.026Z" transform="translate(-268.049 -54.643)" fill="#8c7848"/>
                <path id="Path_6" data-name="Path 6" d="M100.844,187.044a12.633,12.633,0,0,0,8.689-3.512l50.654-47.141a12.623,12.623,0,0,1,17.378,0l50.654,47.141a12.981,12.981,0,0,0,8.689,3.512h47.141L170.724,81.3,57.4,187.044h43.444Z" transform="translate(-246.238 -44.544)" fill="#534538"/>
              </g>
            </g>
          </g>
        </g>
        <g id="Group_14" data-name="Group 14" transform="translate(371 56.865)">
          <g id="Group_13" data-name="Group 13" transform="translate(0.099 15.258)">
            <g id="Group_12" data-name="Group 12">
              <g id="Group_11" data-name="Group 11">
                <path id="Path_7" data-name="Path 7" d="M251.325,27.5l-.326-6,3.369-.161c7.256-.39,11.828-.605,14.518-.681v-5.4S32.205,23.556,32.205,65.8s90.37,90.77,89.953,114.985C121.576,213.736,30.271,229.806.1,240.568H119.868c3.6-2.691,7.574-4.415,12.15-7.047l2.6-1.246,2.995,5.327-2.6,1.065c-1.383.794-2.7,1.9-3.971,1.9h84.3s41.948-24.172,40.985-60.262c-1.205-44.961-148.493-90.7-147.853-114.143.678-24.678,160.418-32.808,160.418-32.808V26.671c-2.691.086-7.283.293-14.2.667ZM77.826,87.843l-1.738-2.448C70.626,77.7,67.97,70.672,67.97,63.911c0-3.783,1.883-7.342,5.6-10.585l2.263-1.975,3.947,4.525-2.263,1.972c-2.352,2.05-3.541,4.09-3.541,6.059,0,5.4,2.357,11.456,7.009,18.01l1.738,2.448ZM181.164,211.037c-7.558,6.993-17.419,12.565-26.865,17.677l-2.642,1.426-2.855-5.284,2.639-1.426c9.116-4.926,18.6-10.283,25.646-16.8l2.2-2.039L183.367,209Zm-2.037-51.411,2.273,1.961c9.468,8.187,13.689,14.295,13.689,19.8a40.088,40.088,0,0,1-1.353,9.925l-.786,2.9-5.8-1.577.788-2.9a33.913,33.913,0,0,0,1.138-8.279c0-2.451-2.012-7.03-11.607-15.331l-2.271-1.961Zm-43.918-31.355,10.337,7.111c6.406,4.388,12.454,8.537,18.123,12.578l2.443,1.743-3.49,4.889-2.443-1.741c-5.623-4.012-11.65-8.142-18.029-12.516L131.8,133.216Zm-15.495-11,2.424,1.776-3.546,4.846-2.424-1.77a288.48,288.48,0,0,1-24.826-19.98l-2.212-2.031L93.2,95.691l2.209,2.031A282.247,282.247,0,0,0,119.715,117.275Zm6.608-76.169a244.6,244.6,0,0,0-30.2,7.558l-2.849.952-1.9-5.693,2.849-.952a250.505,250.505,0,0,1,30.957-7.759l2.946-.57,1.143,5.895Zm52.8-7.711c-11.152,1.24-21.637,2.594-31.162,4.022l-2.97.447-.893-5.938,2.97-.447c9.6-1.442,20.16-2.8,31.39-4.052l2.984-.334.662,5.97ZM232.4,28.684c-10.762.743-21.32,1.582-31.382,2.5l-2.989.274-.543-5.981,2.989-.274c10.106-.923,20.706-1.768,31.514-2.513l2.992-.207.414,5.992Z" transform="translate(-60.733 -147.366)" fill="#f7dc5f"/>
              </g>
            </g>
          </g>
        </g>
      </g>
    </g>
  </g>
</svg>
