<svg xmlns="http://www.w3.org/2000/svg" viewBox="0 0 1467 1067" width="1467" height="1067">
	<style>
		tspan { white-space:pre }
		.shp0 { fill: #f7f7f7 } 
		.shp1 { fill: #1a3151 } 
		.shp2 { fill: #0d1928 } 
		.shp3 { fill: #9ea6ad } 
		.shp4 { fill: #ffffff } 
		.shp5 { fill: #5bbcb9 } 
		.shp6 { fill: #448d8b } 
		.shp7 { fill: #145566 } 
		.shp8 { fill: #ebceb1 } 
		.shp9 { fill: #909497 } 
		.shp10 { fill: #b5d6ca } 
		.shp11 { fill: #e2d0b5 } 
		.shp12 { fill: #d0cfd1 } 
		.shp13 { fill: #e1cfb5 } 
		.shp14 { fill: #c8d6a1 } 
		.shp15 { fill: #6a737f } 
		.shp16 { fill: #bc9268 } 
		.shp17 { fill: #d1e7f5 } 
		.shp18 { fill: #e1ceb4 } 
		.shp19 { fill: #58677f } 
		.shp20 { fill: #3ababa } 
		.shp21 { fill: #35a09d } 
		.shp22 { fill: #0f3e49 } 
		.shp23 { fill: #ffd559 } 
		.shp24 { fill: #eac057 } 
		.shp25 { fill: #ececec } 
		.shp26 { fill: #65696b } 
		.shp27 { fill: #e7e3d2 } 
		.shp28 { fill: #e0e0e1 } 
		.shp29 { fill: #cacccd } 
		.shp30 { fill: #c7c9c5 } 
		.shp31 { fill: #b5b5b0 } 
		.shp32 { fill: #d4d4d0 } 
		.shp33 { fill: #898f93 } 
		.shp34 { fill: #9da2a5 } 
		.shp35 { fill: #b6bcc1 } 
		.shp36 { fill: #e6bc3b } 
		.shp37 { fill: #f1cc40 } 
	</style>
	<g id="g10">
		<g id="g12">
			<path id="path16" class="shp0" d="M682.67 876.01C645.73 876.08 608.79 876.68 571.92 879.46C558.02 880.51 544.41 882.81 530.47 883.74C502.64 885.6 475.3 889.06 447.37 890.66C424.88 891.94 402.29 892.7 379.86 894.33C358.83 895.86 335.56 895.51 314.69 892.98C299.24 891.11 283.73 890.06 268.54 887.05C251.55 883.69 233.09 881.29 215.39 881.37C190.15 881.5 165.56 881.51 141.41 887.45C132.93 889.53 122.55 892.96 116.11 897.33C101.37 907.34 99.37 932.32 114.09 942.7C138.88 960.18 191.79 967.03 226.54 967.36C264.62 967.71 301.61 965.8 339.74 964.67C375.18 963.63 410.52 962.14 446.02 962.19C518.51 962.3 591.01 962.19 663.37 958.91C731.35 955.83 799.51 956.89 867.64 956.89C937.51 956.89 1006.91 957.26 1076.27 963.55C1106.49 966.29 1137.28 967.25 1167.66 969.17C1194.86 970.89 1221 969.13 1248.1 967.54C1270.85 966.21 1293.45 962.25 1314.12 955.56C1330.48 950.27 1359.65 933.82 1364.67 921.18C1378.73 885.74 1166.43 886.59 1133.83 886.67C1097.37 886.76 1060.61 887.57 1024.18 886.63C1008.85 886.24 993.75 884.21 978.79 881.99C963.89 879.77 948.88 880.33 933.77 879.4C870.76 875.52 807.61 876.09 744.4 876.09C723.83 876.09 703.25 875.97 682.67 876.01" />
			<path id="path18" class="shp1" d="M973.08 670.2L985.53 908.09C985.76 914.54 991.05 919.65 997.51 919.65L1144.44 919.65C1150.9 919.65 1156.19 914.54 1156.42 908.09L1168.87 670.2L973.08 670.2Z" />
			<path id="path20" class="shp2" d="M1178.41 670.2L963.54 670.2L963.54 643.85L1178.41 643.85L1178.41 670.2Z" />
			<path id="path22" class="shp1" d="M1168.87 643.85L973.08 643.85L988.26 573.62L1153.69 573.62L1168.87 643.85" />
			<path id="path24" class="shp3" d="M1124.36 630.75L1017.59 630.75C1012.17 630.75 1007.77 626.35 1007.77 620.92L1007.77 606.03C1007.77 600.6 1012.17 596.2 1017.59 596.2L1124.36 596.2C1129.78 596.2 1134.18 600.6 1134.18 606.03L1134.18 620.92C1134.18 626.35 1129.78 630.75 1124.36 630.75Z" />
			<path id="path26" class="shp4" d="M1100.01 797.69C1099.95 797.38 1099.83 797.04 1099.64 796.68C1099.46 796.33 1098.92 795.32 1098.2 794L1100.01 797.69" />
			<path id="path28" class="shp4" d="M1072.79 762L1079.61 764.03C1082.03 764.75 1085.99 765.93 1088.42 766.65L1095.24 768.68C1097.66 769.4 1100.1 767.93 1100.65 765.41L1102.23 758.33C1102.78 755.81 1103.69 751.69 1104.25 749.17L1105.82 742.09C1106.38 739.57 1104.79 738.74 1102.29 740.25L1098.02 742.83C1096.45 740.09 1094.88 737.37 1094.28 736.38C1092.9 734.12 1090.25 732.39 1085.05 732.42C1081.19 732.44 1070.94 732.5 1064.45 732.54L1073.05 748C1073.24 748.19 1073.42 748.44 1073.58 748.77C1073.99 749.62 1075.55 752.54 1077.11 755.43L1072.92 757.95C1070.43 759.46 1070.37 761.28 1072.79 762Z" />
			<path id="path30" class="shp4" d="M1048.95 737.69C1046.74 741.12 1041.13 750.26 1041.13 750.26C1039.88 752.31 1040.52 754.99 1042.56 756.21L1056.3 764.46C1058.34 765.69 1061.01 765 1062.24 762.93C1062.24 762.93 1069.99 749.9 1070.71 748.69C1071.44 747.44 1072.33 747.25 1073.05 748L1064.45 732.54C1062.2 732.55 1060.41 732.56 1059.49 732.57C1055.91 732.59 1051.82 733.23 1048.95 737.69Z" />
			<path id="path32" class="shp4" d="M1024.64 795.46C1026.19 798.53 1030.48 806.44 1033.62 812.24L1043.35 795.95C1044.5 793.94 1046.63 790.23 1048.4 787.15L1053.39 789.98C1055.92 791.42 1057.48 790.55 1056.87 788.05L1055.12 781.01C1054.5 778.51 1053.49 774.41 1052.87 771.91L1051.13 764.86C1050.51 762.36 1048.04 760.95 1045.63 761.74L1038.87 763.94C1036.46 764.73 1032.53 766.01 1030.13 766.79L1023.36 768.99C1020.96 769.78 1021.06 771.6 1023.59 773.03L1027.26 775.13C1025.39 778.84 1023.18 783.23 1022.62 784.49C1021.61 786.76 1022.23 790.68 1024.64 795.46" />
			<path id="path34" class="shp4" d="M1043.35 795.95L1033.62 812.24C1035.37 815.46 1036.76 818.04 1037.13 818.75C1038.16 820.75 1039.63 824.67 1048.93 824.61C1058.21 824.56 1062.43 824.53 1062.43 824.53C1064.8 824.52 1066.72 822.53 1066.71 820.11L1066.62 803.79C1066.6 801.38 1064.66 799.41 1062.29 799.42C1062.29 799.42 1046.48 799.51 1043.84 799.53C1042.17 799.54 1041.96 798.41 1042.55 797.36C1042.63 797.22 1042.92 796.7 1043.35 795.95" />
			<path id="path36" class="shp4" d="M1100.01 797.69L1108.06 814.14C1110.88 808.83 1115.66 799.6 1117.61 795.61C1120.23 790.28 1120.97 785.65 1119.76 783.22C1118.56 780.79 1112.6 768.96 1112.6 768.96C1111.51 766.81 1108.98 766.09 1106.96 767.36L1093.31 775.95C1091.3 777.22 1090.59 779.98 1091.74 782.1C1091.74 782.1 1095.89 789.73 1098.2 794C1098.92 795.32 1099.46 796.33 1099.64 796.68C1099.83 797.04 1099.95 797.38 1100.01 797.69Z" />
			<path id="path38" class="shp4" d="M1106.07 817.83C1106.38 817.27 1107.11 815.93 1108.06 814.14L1100.01 797.69C1100.18 798.64 1099.71 799.29 1098.55 799.3C1097.76 799.3 1093.84 799.33 1090.22 799.35L1090.18 794.25C1090.15 791.29 1088.64 790.32 1086.82 792.11L1081.69 797.14C1079.87 798.92 1076.89 801.85 1075.07 803.63L1069.94 808.66C1068.12 810.44 1068.15 813.34 1070 815.09L1075.21 820.02C1077.06 821.78 1080.09 824.64 1081.95 826.39L1087.16 831.33C1089.01 833.08 1090.51 832.09 1090.48 829.13L1090.44 824.28C1092.48 824.27 1094.73 824.25 1096.81 824.24C1102.61 824.21 1104.8 820.01 1106.07 817.83Z" />
			<path id="path40" class="shp5" d="M600.48 207.88L619.89 213.66C626.78 215.71 638.06 219.07 644.97 221.12L664.37 226.9C671.27 228.95 678.21 224.77 679.79 217.6L684.26 197.44C685.84 190.27 688.43 178.54 690.02 171.37L694.49 151.21C696.08 144.05 691.56 141.68 684.46 145.96L672.28 153.3C667.82 145.52 663.36 137.78 661.64 134.95C657.72 128.52 650.18 123.6 635.38 123.68C624.39 123.75 595.2 123.92 576.74 124.03L601.22 168.03C601.77 168.59 602.28 169.3 602.74 170.23C603.91 172.65 608.35 180.97 612.77 189.19L600.85 196.37C593.75 200.65 593.59 205.83 600.48 207.88" />
			<path id="path42" class="shp6" d="M532.61 138.69C526.32 148.46 510.37 174.47 510.37 174.47C506.8 180.3 508.62 187.93 514.43 191.42L553.54 214.9C559.34 218.38 566.96 216.42 570.45 210.54C570.45 210.54 592.51 173.45 594.55 170.01C596.65 166.45 599.18 165.91 601.22 168.03L576.74 124.03C570.35 124.06 565.23 124.09 562.61 124.11C552.43 124.17 540.79 125.98 532.61 138.69" />
			<path id="path44" class="shp5" d="M463.43 303.12C467.84 311.87 480.03 334.38 488.97 350.88L516.69 304.51C519.96 298.81 526.01 288.23 531.07 279.47L545.25 287.54C552.46 291.63 556.91 289.15 555.15 282.03L550.19 261.99C548.43 254.87 545.55 243.21 543.78 236.09L538.83 216.04C537.06 208.91 530.03 204.91 523.18 207.14L503.92 213.41C497.08 215.65 485.89 219.29 479.04 221.52L459.78 227.79C452.94 230.02 453.23 235.2 460.43 239.29L470.89 245.24C465.55 255.82 459.26 268.3 457.67 271.89C454.8 278.35 456.57 289.52 463.43 303.12" />
			<path id="path46" class="shp6" d="M516.69 304.51L488.97 350.88C493.95 360.06 497.93 367.4 498.98 369.43C501.9 375.12 506.09 386.26 532.55 386.11C558.98 385.95 571 385.88 571 385.88C577.73 385.84 583.2 380.18 583.16 373.29L582.91 326.85C582.86 319.97 577.33 314.36 570.59 314.4C570.59 314.4 525.58 314.67 518.07 314.71C513.33 314.74 512.73 311.52 514.39 308.54C514.62 308.13 515.47 306.66 516.69 304.51" />
			<path id="path48" class="shp5" d="M677.96 309.46L700.87 356.29C708.89 341.17 722.5 314.92 728.07 303.57C735.51 288.38 737.62 275.22 734.19 268.3C730.75 261.36 713.79 227.7 713.79 227.7C710.7 221.58 703.49 219.53 697.75 223.14L658.9 247.59C653.16 251.19 651.16 259.07 654.43 265.09C654.43 265.09 666.24 286.8 672.81 298.96C674.85 302.73 676.4 305.59 676.92 306.59C677.45 307.62 677.8 308.59 677.96 309.46" />
			<path id="path50" class="shp6" d="M695.2 366.79C696.1 365.22 698.17 361.38 700.87 356.29L677.96 309.46C678.44 312.18 677.1 314.03 673.8 314.05C671.54 314.07 660.39 314.13 650.1 314.19L649.98 299.68C649.9 291.24 645.6 288.51 640.41 293.59L625.82 307.9C620.64 312.98 612.15 321.3 606.97 326.39L592.38 340.69C587.19 345.78 587.27 354.02 592.53 359.01L607.37 373.05C612.65 378.03 621.27 386.19 626.55 391.18L641.39 405.22C646.66 410.21 650.92 407.39 650.84 398.96L650.72 385.16C656.52 385.12 662.93 385.09 668.86 385.05C685.36 384.96 691.59 373.01 695.2 366.79" />
			<path id="path52" class="shp7" d="M961.3 271.48L973.48 236.74C974.57 233.61 973.01 230.18 969.94 228.94L961.16 225.43C958.08 224.19 954.59 225.6 953.22 228.62L938.03 262.15C936.93 264.59 934.4 265.94 931.74 265.75C923.45 265.16 915.34 269.91 912.09 278.01L875.89 368.33C874.61 371.51 876.16 375.11 879.33 376.38L924.85 394.63C928.03 395.9 931.63 394.36 932.9 391.19L969.1 300.86C972.35 292.76 969.76 283.72 963.36 278.43C961.3 276.73 960.41 274 961.3 271.48" />
			<path id="path54" class="shp5" d="M976.55 234.97L952.22 225.22L954.55 219.4L978.88 229.15L976.55 234.97Z" />
			<path id="path56" class="shp4" d="M950.04 337.43L946.42 335.97L959.56 303.18C964.21 289.44 956.89 285.92 956.57 285.77L958.13 282.19C958.58 282.38 969.12 287.11 963.22 304.54L950.04 337.43" />
			<path id="path58" class="shp1" d="M860.74 486L791.06 536.84L746.13 516.26L737.21 532.65L767.4 558.33L793.2 567.97L860.74 535.45L860.74 486Z" />
			<path id="path60" class="shp8" d="M954.71 380.6L956.21 359.27L938.96 345.92L931.73 355.38L939.51 369.29L936.73 376.52L944.38 388L954.71 380.6Z" />
			<path id="path62" class="shp1" d="M818.04 622.78L816.64 743.43L829.5 898.75L846.98 898.75L867.9 755.46L891.83 611.91L818.04 622.78" />
			<path id="path64" class="shp1" d="M846.88 906.13L827.98 915.58L818.52 906.13L827.98 896.67L846.88 896.67L846.88 906.13Z" />
			<path id="path66" class="shp1" d="M937.9 622.78L938.25 692.58L926.45 898.75L908.97 898.75L879.73 761.94L864.11 611.91L937.9 622.78Z" />
			<path id="path68" class="shp1" d="M909.07 906.13L927.98 915.58L937.43 906.13L927.98 896.67L909.07 896.67L909.07 906.13Z" />
			<path id="path70" class="shp1" d="M956.09 664.81C956.46 675.88 956.22 690.7 951.56 691.25C950.68 691.35 949.84 690.97 949.07 690.59C940.97 686.66 935.19 681.09 927.19 677.28C918.81 673.29 909.29 671.21 899.99 669.77C886.11 667.55 872.01 666.22 858.04 666.09C846.03 665.99 833.55 671.46 822.2 674.47C817.83 675.63 814.28 678.82 810.65 681.31C805.29 685 802.94 686.46 803.67 678.93C804.87 666.63 806.1 654.34 807.62 642.08C810.63 617.63 814.74 593.23 821.69 569.56C824.34 560.52 827.4 551.6 830.46 542.69C834.19 531.83 837.92 520.98 841.65 510.12C846.28 496.63 854.1 487.13 867.79 482.41C879.62 478.33 894.32 477.22 905.83 482.93C918.62 489.27 924.7 510.89 930.92 522.45C936.36 532.57 943.23 560.18 945.27 571.1C947.72 584.23 949.99 597.31 951.77 610.35C953.75 624.79 955.14 639.2 955.54 653.51C955.59 655.09 955.91 659.52 956.09 664.81" />
			<path id="path72" class="shp4" d="M892.89 484.83L869.27 485.06C869.27 485.06 843.91 573.66 842.98 588.93C842.07 603.92 835.66 664.7 835.66 664.7C835.66 664.7 861.83 665.32 891.97 668.99C921.45 675.29 923.92 671.57 923.92 671.57C923.92 671.57 908.02 607.68 907.49 589.33C906.95 570.55 904.55 508.55 904.55 508.55L892.89 484.83" />
			<path id="path74" class="shp8" d="M878.56 485.29C878.84 485.53 879.16 485.72 879.53 485.85C880.26 486.09 881.06 486 881.83 485.91C884.95 485.54 888.08 485.17 891.2 484.8C890.17 475.23 895.77 473.06 901.22 466.91C906.75 460.67 905.05 452.25 904.73 444.62C904.65 442.49 904.54 440.3 903.64 438.37C902.07 434.99 898.39 433.11 894.82 432.01C885.72 429.18 875.31 429.87 867.29 435.03C865.16 436.41 863.17 438.13 862.01 440.39C860.23 443.87 860.69 448.03 861.18 451.91C861.95 457.87 863.71 463.73 867.08 468.76C870.22 473.44 876.21 475.68 876.9 481.3C877.08 482.75 877.52 484.39 878.56 485.29" />
			<path id="path76" class="shp1" d="M861.45 444.98C861.98 447.38 863.1 449.82 862.51 452.21C858.69 450.91 856.2 447 854.85 443.03C854.23 441.23 853.79 439.33 853.94 437.42C854.09 435.52 854.92 433.6 856.43 432.53C858.52 431.02 862.29 431.61 862.89 434.34C863.49 437.08 860.65 441.36 861.45 444.98Z" />
			<path id="path78" class="shp1" d="M841.16 423.85C841.25 420.97 842.35 418.39 844.93 416.65C847.15 415.15 849.71 413.91 851.06 411.53C852.1 409.68 852.26 407.39 853.29 405.53C855.17 402.17 859.25 401.18 862.79 400.05C871.67 397.2 876.44 393.91 885.84 397.55C892.52 400.15 901.15 400.49 907.35 404.28C909.94 405.86 912.15 408.4 913.95 411.22C920.22 421.02 921.72 434.79 917.64 445C916.73 447.29 915.57 449.39 914.33 451.41C911.85 455.43 909.19 460.39 904.8 462.36C904.52 460.46 903.11 459.41 902.67 457.55C902.35 456.21 902.46 454.8 902.53 453.42C902.8 448.05 904.44 439.55 899.08 436.89C892.3 433.52 879.57 436.56 873.04 439.41C867.26 441.94 857.51 445.22 851.34 442.51C845.62 440.01 840.97 430.01 841.16 423.85" />
			<path id="path80" class="shp1" d="M900.47 481.7L960.45 464.02L938.25 389.04L956.54 375.92L1000.7 462.72L988.49 492.78L931.18 522.36L900.47 481.7" />
			<path id="path82" class="shp1" d="M1244.74 902.93L1244.99 905.53L1245.82 914.15L1263.27 921.62L1270.75 912.43L1261.61 904.38L1260.77 904.02L1260.67 905.09L1244.74 902.93Z" />
			<path id="path84" class="shp9" d="M1243.85 902.81L1244.74 902.93L1244.16 896.91L1260.77 904.02L1274.58 758.54L1276.28 751.67C1263.23 751.86 1247.71 752.06 1232.09 752.18L1243.85 902.81" />
			<path id="path86" class="shp9" d="M1244.74 902.93L1260.67 905.09L1260.77 904.02L1244.16 896.91L1244.74 902.93" />
			<path id="path88" class="shp9" d="M1174.09 752.11L1177.3 790.18L1209.51 888.91L1225.25 886.82L1225.5 888.75L1225.59 888.74L1214 786.99L1223.93 752.24C1205.66 752.35 1187.79 752.35 1174.09 752.11" />
			<path id="path90" class="shp1" d="M1209.51 888.91L1208.52 889.04L1201.32 898.92L1210.85 906.58L1226.41 895.59L1225.5 888.75L1210.12 890.79L1209.51 888.91" />
			<path id="path92" class="shp1" d="M1209.51 888.91L1210.12 890.79L1225.5 888.75L1225.25 886.82L1209.51 888.91Z" />
			<path id="path94" class="shp10" d="M1213.78 514.43C1215.69 509.66 1217.65 504.81 1220.93 500.86C1225.84 494.93 1233.69 491.5 1241.36 492.16L1241.48 492.17C1241.22 491.17 1241.04 490.15 1241.02 489.11C1240.92 483.51 1245.09 478.9 1247.78 473.99C1248.03 473.53 1248.27 473.05 1248.49 472.54C1249.04 471.3 1249.49 469.92 1249.87 468.44L1248.69 469C1246.02 471.27 1242.91 472.84 1239.47 473.39L1207.17 488.79L1194.21 541.54L1197.54 543C1207.75 538.98 1210.11 523.56 1213.78 514.43" />
			<path id="path96" class="shp10" d="M1283.23 530.69C1285.25 540.22 1303.49 563.15 1300.16 553.82C1294.86 539.01 1289.16 527.17 1283.67 517.01C1281.45 512.91 1282.26 526.12 1283.23 530.69" />
			<path id="path98" class="shp10" d="M1305.44 600.61C1299.4 603.84 1292.4 604.85 1285.55 604.84C1280.07 604.83 1274.52 604.21 1269.17 605.38C1263.81 606.56 1258.51 610.04 1257.16 615.35C1256.41 618.28 1256.65 621.96 1254.12 623.62C1252.93 624.39 1251.43 624.46 1250.01 624.5C1245.68 624.62 1240.76 624.51 1237.84 621.29C1233.34 616.32 1235.97 606.33 1229.88 603.5C1228.1 602.68 1226.04 602.8 1224.1 602.48C1215.86 601.08 1211.83 591.76 1212.62 583.21C1209.82 585.65 1206.68 587.82 1203.04 587.89C1198.84 587.98 1195.17 585.26 1191.87 582.67C1189.73 580.99 1187.54 579.35 1185.32 577.72L1185.19 578.25L1151.77 751.1C1155.75 751.6 1163.73 751.92 1174.09 752.11L1171.72 723.97L1229.95 731.15L1223.93 752.24C1226.64 752.22 1229.36 752.2 1232.09 752.18L1230.42 730.87L1286.08 712.05L1276.28 751.67C1296.29 751.38 1310.52 751.1 1310.52 751.1C1310.52 751.1 1322.68 661.77 1311.88 595.75C1310.01 597.69 1307.81 599.34 1305.44 600.61" />
			<path id="path100" class="shp10" d="M1230.42 730.87L1232.09 752.18C1247.71 752.06 1263.23 751.86 1276.28 751.67L1286.08 712.05L1230.42 730.87" />
			<path id="path102" class="shp10" d="M1171.72 723.97L1174.09 752.11C1187.79 752.35 1205.66 752.35 1223.93 752.24L1229.95 731.15L1171.72 723.97" />
			<path id="path104" class="shp11" d="M1123.82 506.45C1123.32 504.3 1112.03 492.8 1111.37 494.39C1110.65 496.11 1110.35 497.93 1109.97 499.8C1105.37 497.33 1094.24 487.7 1094.91 498.83C1095.2 503.66 1103.67 512 1107.91 513.47L1108.19 513.56L1123.75 510.85C1124.14 509.64 1124.23 508.25 1123.82 506.45" />
			<path id="path106" class="shp10" d="M1123.95 510.82L1123.75 510.85C1123.01 513.12 1121.18 514.8 1119.42 517.48C1115.72 516.09 1111.94 514.85 1108.19 513.56L1104.15 514.27C1124.8 540.9 1157.59 557.41 1185.32 577.72L1194.21 541.54L1123.95 510.82Z" />
			<path id="path108" class="shp10" d="M1203.04 587.89C1206.68 587.82 1209.82 585.65 1212.62 583.21C1212.79 581.43 1213.15 579.69 1213.74 578.06C1217.14 568.57 1225.03 561.52 1231 553.39C1242.66 537.52 1250.55 516.32 1243.38 497.54C1242.7 495.77 1241.95 494 1241.48 492.17L1241.36 492.16C1233.69 491.5 1225.84 494.93 1220.93 500.86C1217.65 504.81 1215.69 509.66 1213.78 514.43C1210.11 523.56 1207.75 538.98 1197.54 543L1194.21 541.54L1185.32 577.72C1187.54 579.35 1189.73 580.99 1191.87 582.67C1195.17 585.26 1198.84 587.98 1203.04 587.89" />
			<path id="path110" class="shp12" d="M1123.75 510.85L1108.19 513.56C1111.94 514.85 1115.72 516.09 1119.42 517.48C1121.18 514.8 1123.01 513.12 1123.75 510.85Z" />
			<path id="path112" class="shp13" d="M1250.03 467.76C1253.06 454.65 1249.77 433.92 1241 426.18C1237.55 423.14 1233.61 422.59 1229.22 422.56C1227.14 422.54 1226.45 423.08 1225.37 422.89C1222.11 427.1 1219.91 432.23 1220.32 437.08C1220.66 441.17 1223.01 444.28 1223.2 448.67C1223.57 456.65 1234.99 464.67 1230.6 472.6C1233.74 473.62 1236.71 473.83 1239.47 473.39L1248.69 469C1249.15 468.61 1249.6 468.19 1250.03 467.76" />
			<path id="path114" class="shp13" d="M1239.47 473.39C1242.91 472.84 1246.02 471.27 1248.69 469L1239.47 473.39Z" />
			<path id="path116" class="shp13" d="M1223.2 448.67C1223.01 444.28 1220.66 441.17 1220.32 437.08C1219.92 432.23 1222.11 427.1 1225.37 422.89C1224.89 422.81 1224.34 422.57 1223.54 422.08C1221.97 421.1 1220.57 418.54 1219.83 416.45C1215.76 419.03 1212.79 423.68 1211.97 430.77C1211.08 438.48 1211.1 446.61 1213.74 454.32C1216.38 462.03 1222.02 469.29 1229.33 472.15C1229.76 472.31 1230.18 472.46 1230.6 472.6C1234.99 464.67 1223.57 456.65 1223.2 448.67Z" />
			<path id="path118" fill-rule="evenodd" class="shp1" d="M1303.19 556.55C1302.19 555.65 1301.18 554.74 1300.16 553.82C1300.83 555.54 1301.5 557.29 1302.16 559.05C1302.82 560.82 1303.48 562.61 1304.14 564.43C1304.56 565.61 1304.97 566.8 1305.36 568.01C1304.97 566.8 1304.56 565.61 1304.14 564.43C1303.48 562.61 1302.82 560.82 1302.16 559.05C1301.5 557.29 1300.83 555.54 1300.16 553.82C1292.8 547.21 1285.26 540.22 1283.23 530.69C1282.26 526.12 1282.7 521.57 1283.67 517.01C1285.23 509.69 1288.19 502.35 1288.96 494.87C1290.29 482.06 1289.24 463.65 1286.11 451.12C1282.77 437.72 1275.48 425.6 1266.73 415.04C1256.13 402.23 1236.4 387.89 1222.44 404.66C1222.28 404.86 1222.12 405.05 1221.97 405.25C1220.45 404.5 1218.86 403.88 1217.22 403.43C1207.57 411.56 1205.09 424.64 1206.1 436.66C1207.12 448.71 1213.2 462.36 1209.77 474.31C1209.44 475.45 1209.01 476.59 1209.02 477.78C1209.03 478.97 1209.6 480.25 1210.71 480.68C1211.38 480.94 1212.13 480.85 1212.85 480.76C1218.75 480 1225.18 478.97 1229.18 474.57C1229.78 473.91 1230.24 473.26 1230.6 472.6C1230.18 472.46 1229.76 472.31 1229.33 472.15C1222.02 469.29 1216.38 462.04 1213.74 454.32C1211.1 446.61 1211.08 438.48 1211.97 430.77C1212.79 423.68 1215.75 419.03 1219.83 416.45C1220.57 418.54 1221.97 421.1 1223.54 422.08C1224.34 422.58 1224.89 422.81 1225.37 422.89C1226.45 423.08 1227.14 422.54 1229.22 422.56C1233.61 422.59 1237.55 423.14 1241 426.18C1249.77 433.92 1253.06 454.65 1250.03 467.76C1258.3 459.51 1261.61 444.19 1256.17 432.74C1255.86 432.09 1255.53 431.45 1255.19 430.83C1255.53 431.45 1255.86 432.09 1256.17 432.74C1261.61 444.19 1258.3 459.51 1250.03 467.76C1249.97 467.99 1249.92 468.22 1249.87 468.44C1249.49 469.92 1249.04 471.3 1248.49 472.54C1248.27 473.05 1248.03 473.53 1247.78 473.99C1245.09 478.9 1240.92 483.51 1241.02 489.11C1241.04 490.15 1241.22 491.17 1241.47 492.17C1241.95 494 1242.7 495.77 1243.38 497.54C1250.55 516.32 1242.66 537.52 1231 553.39C1225.03 561.52 1217.14 568.57 1213.74 578.06C1213.15 579.69 1212.79 581.43 1212.62 583.21C1211.83 591.76 1215.86 601.08 1224.1 602.48C1226.04 602.8 1228.1 602.68 1229.88 603.51C1235.97 606.33 1233.34 616.32 1237.85 621.29C1240.76 624.51 1245.68 624.62 1250.01 624.5C1251.43 624.46 1252.93 624.39 1254.12 623.62C1256.66 621.96 1256.41 618.28 1257.16 615.35C1258.51 610.04 1263.81 606.56 1269.17 605.38C1274.52 604.21 1280.07 604.83 1285.55 604.84C1292.4 604.85 1299.4 603.84 1305.44 600.61C1307.81 599.34 1310.01 597.69 1311.88 595.75C1311.65 594.33 1311.41 592.93 1311.16 591.54C1311.41 592.93 1311.65 594.33 1311.88 595.75C1314.78 592.74 1316.89 589.04 1317.59 584.94C1319.46 574.01 1311.39 564.01 1303.19 556.55ZM1240.81 416.98C1241.94 417.55 1243.06 418.2 1244.15 418.92C1243.06 418.2 1241.94 417.55 1240.81 416.98Z" />
			<path id="path120" class="shp8" d="M336.1 436.66L341.97 429.95L341.42 422.08L343 421.1L344.25 423.03L345.63 416.35L349.89 412.88L356.86 414.86L361.28 420.98L358.57 427.81L351.78 433.23L344.13 442.77L336.1 436.66" />
			<path id="path122" class="shp14" d="M335.02 431.05L272.86 480.3L232.94 473.07L227.12 528.6L276.76 518.78L297.13 510.59L354.77 441.92L335.02 431.05" />
			<path id="path124" class="shp1" d="M241.73 897.37L241.73 904.87L260.97 914.49L270.58 904.87L260.97 895.25L259.72 895.25L259.41 897.37L241.73 897.37Z" />
			<path id="path126" class="shp1" d="M194.35 895.25L193.03 895.25L183.41 904.87L193.03 914.49L212.26 904.87L212.26 897.37L194.58 897.37L194.35 895.25" />
			<path id="path128" class="shp14" d="M194.63 612.68C197.16 599.87 199.14 588.04 199.32 581.63C199.86 562.34 202.29 498.63 202.29 498.63L214.06 474.27L216.24 474.29C216.08 474.27 215.92 474.25 215.77 474.23C216.28 474.29 215.52 469.52 215.34 469.1C205.1 468.75 191.91 474.53 185.45 482.57C180.68 488.53 177.84 495.8 175.07 502.95C167.28 523.08 163.74 541.73 159.86 562.9C157.38 576.4 155.09 589.83 153.29 603.23C151.29 618.07 149.88 632.86 149.47 647.57C149.43 649.2 149.11 653.75 148.93 659.18C148.55 670.56 148.79 685.78 153.5 686.35C154.38 686.45 155.23 686.06 156.01 685.67C162.07 682.68 166.85 678.77 172.19 675.35L172.48 615.99L194.63 612.68" />
			<path id="path130" class="shp14" d="M302.91 673.68C301.7 661.05 300.45 648.42 298.92 635.83C295.87 610.71 291.72 585.64 284.71 561.32C282.02 552.03 278.93 542.87 275.84 533.71C272.07 522.56 268.31 511.41 264.54 500.25C259.86 486.39 251.96 476.63 238.13 471.78C235.66 470.91 233.06 470.25 230.38 469.76C230.31 470.04 230.25 470.33 230.22 470.64C230.06 471.97 229.68 473.45 228.85 474.41L237.93 474.5C237.93 474.5 263.55 565.53 264.49 581.22C264.84 587.18 266.03 600.2 267.36 613.91L281.27 616L281.86 668.45C282.64 668.68 283.42 668.9 284.19 669.11C288.6 670.3 292.19 673.57 295.85 676.14C301.27 679.92 303.64 681.43 302.91 673.68" />
			<path id="path132" class="shp15" d="M267.36 613.91C269.45 635.62 271.88 659.07 271.88 659.07C271.88 659.07 260.64 659.34 244.37 660.57C245.57 660.54 246.78 660.51 247.98 660.5C259.29 660.4 271.03 665.29 281.86 668.45L281.27 616L267.36 613.91" />
			<path id="path134" class="shp14" d="M191.44 667.17C183.68 667.58 182.71 666.12 182.71 666.12C182.71 666.12 189.71 637.54 194.63 612.68L172.48 616L172.19 675.35C174.07 674.15 176.02 673.01 178.12 671.99C182.33 669.95 186.82 668.4 191.44 667.17" />
			<path id="path136" class="shp1" d="M281.86 668.45C271.03 665.28 259.29 660.4 247.98 660.5C246.78 660.51 245.57 660.54 244.37 660.57C243.37 660.65 242.34 660.73 241.29 660.81C233.71 661.42 225.19 662.23 216.3 663.31C215.86 663.37 215.43 663.42 214.99 663.47C203.62 665.95 196.23 666.92 191.43 667.17C186.82 668.4 182.33 669.95 178.12 671.99C176.01 673.01 174.07 674.15 172.19 675.35L172.13 687.71L193.81 897.65L211.6 897.65L211.6 899.79L211.7 899.79L231.25 758.97L231.33 758.18L242.04 899.79L242.14 899.79L242.14 897.65L260.01 897.65L282.68 739.96L281.86 668.45Z" />
			<path id="path138" class="shp4" d="M267.36 613.91C266.03 600.2 264.84 587.18 264.49 581.22C263.55 565.53 237.93 474.5 237.93 474.5L228.85 474.41L228.54 474.74C228.26 474.99 227.93 475.18 227.56 475.31C226.82 475.56 226.01 475.47 225.24 475.37C222.24 475.01 219.24 474.65 216.24 474.29L214.06 474.27L202.29 498.64C202.29 498.64 199.86 562.34 199.32 581.63C199.14 588.04 197.16 599.87 194.62 612.68C189.71 637.54 182.71 666.12 182.71 666.12C182.71 666.12 183.68 667.58 191.43 667.17C196.23 666.92 203.62 665.95 214.99 663.47C215.43 663.42 215.86 663.37 216.3 663.31C225.19 662.23 233.71 661.42 241.29 660.81C242.34 660.73 243.37 660.65 244.37 660.57C260.64 659.34 271.88 659.07 271.88 659.07C271.88 659.07 269.45 635.62 267.36 613.91" />
			<path id="path140" class="shp8" d="M237.24 598.49L244.35 603.78L252.01 602.45L253.11 603.96L251.34 605.41L258 606.16L261.79 610.13L260.49 617.38L254.9 622.44L247.96 620.36L242.04 614.03L232 607.21L237.24 598.49" />
			<path id="path142" class="shp14" d="M243.51 598.19L205.84 567.8L202.76 489.36L172.77 519.81L167.3 570.3L174.67 589.35L238.39 615.86L243.51 598.19" />
			<path id="path144" class="shp1" d="M245.31 416.24C247.59 420.84 248.53 426.04 248.5 431.19C248.49 432.56 248.5 434.14 249.54 435C250.66 435.92 249.54 437.76 250.49 436.65C251.43 435.55 254.63 431.69 254.84 430.25C255.33 426.85 255.5 423.41 255.35 419.98C255.21 417 254.77 413.87 252.98 411.51C251.92 410.11 250.45 409.08 249.01 408.09C246.92 406.65 244.77 405.2 242.31 404.6C238.08 403.57 235.39 404.99 239 408.21C241.59 410.53 243.75 413.09 245.31 416.24Z" />
			<path id="path146" class="shp8" d="M215.82 473.12C221.67 473.98 227.52 474.85 233.36 475.71C234.52 470.6 235.31 465.39 235.72 460.14C240.88 459.51 246.99 458.14 249.01 452.79C249.65 451.1 249.76 449.23 249.87 447.41C250.31 439.86 250.74 432.31 251.18 424.76C251.33 422.15 251.47 419.46 250.72 416.99C249.39 412.65 245.6 409.91 241.83 408.12C232.23 403.53 220.78 403.1 211.43 408.41C208.94 409.83 206.57 411.69 205.04 414.31C202.69 418.34 202.7 423.48 202.79 428.28C202.87 432.72 202.96 437.15 203.04 441.59C203.14 446.69 203.59 452.57 207.33 455.46C209.32 456.99 211.97 457.39 213.65 459.33C216.62 462.75 214.9 468.46 215.82 473.12" />
			<path id="path148" fill-rule="evenodd" class="shp1" d="M251.82 444.49C251.84 446.97 251.57 449.47 250.98 451.87C249.82 456.52 247.36 460.89 243.47 463.34C239.05 466.11 233.69 466.04 228.62 465.9C225.85 465.82 223.08 465.74 220.3 465.66C213.29 465.46 206.37 464.17 203.14 456.48C201.65 452.94 201.33 448.89 201.77 445C201.89 443.93 202.09 442.84 202.63 441.94C203.17 441.04 204.16 440.38 205.12 440.57C206.35 440.81 207.03 442.21 207.78 443.31C209.4 445.71 212.42 447.15 214.97 446.05C215.73 445.73 216.39 445.21 217.06 444.68C217.33 444.47 217.6 444.25 217.88 444.05C220.62 442.03 223.89 441.21 227.14 440.95C229.95 440.73 234.12 439.9 236.08 442.43C237.21 443.9 238.35 445.37 239.48 446.84C239.95 447.45 240.43 448.07 241.05 448.47C241.7 448.89 242.45 449.05 243.2 449.11C245.08 449.24 247.24 448.47 247.97 446.56C248.29 445.73 248.3 444.8 248.38 443.91C248.46 443.01 248.64 442.07 249.22 441.42C251.42 438.95 251.81 443.08 251.82 444.49ZM232.76 454.15C233.91 453.45 232.99 451.47 231.83 452.17C229.53 453.57 227.21 453.47 224.79 452.59C223.54 452.13 222.89 454.26 224.14 454.71C227.06 455.78 230.01 455.83 232.76 454.15Z" />
			<path id="path150" class="shp1" d="M254.95 403.63C255.53 401.82 255.99 399.98 256.31 398.11C254.57 398.63 252.7 398.69 250.92 398.29C250.97 397.21 251.02 396.12 251.07 395.03C251.11 394.13 239.13 392.87 238.16 392.74C229.06 391.49 220.74 390.33 212.22 394.89C204.95 398.78 200.1 404.9 198.6 413.13C197.16 420.99 199.18 431.45 203.35 438.25C203.43 436.15 202.49 431.12 203.08 429.14C203.48 427.15 204.26 425.25 205.29 423.51C207.35 420.05 210.41 417.2 213.88 415.23C219.41 412.1 225.73 410.62 231.99 410.07C237.73 409.56 244.71 409.18 250.27 411.01C252.93 411.89 253.35 412.6 255.13 409.91C255.44 409.43 258.02 403.83 257.8 403.82C256.85 403.75 255.9 403.69 254.95 403.63" />
			<path id="path152" class="shp16" d="M661.17 390.14C659.84 385.62 658.51 381.11 657.21 376.59C655.25 377.15 653.28 377.7 651.31 378.26C651.51 381.57 651.7 384.88 651.9 388.19C650.88 388.03 649.86 387.86 648.85 387.69C650.52 391.43 652.28 395.11 654.01 398.81C656.1 398.54 658.19 398.22 660.29 398.02C660.57 395.39 660.77 392.75 661.17 390.14" />
			<path id="path154" class="shp17" d="M606.25 509.82C605.89 509.12 605.58 508.41 605.32 507.7C602.38 499.66 601.21 490.62 604.09 482.56C604.51 481.39 605.06 480.19 606.09 479.51C606.93 478.97 607.96 478.84 608.96 478.72C617.57 477.73 626.18 476.75 634.79 475.76C635.6 475.66 636.45 475.55 637.08 475.04C637.64 474.58 637.92 473.87 638.17 473.19C640.84 465.95 655.49 396.1 650.93 395.63C655.15 395.3 659.36 394.91 663.58 394.61C667.82 417.01 672.57 480.59 666.47 488.21C652.63 505.48 647.02 506.63 626.54 516.49C624.01 517.71 621.33 518.8 618.53 518.76C613.17 518.68 608.65 514.49 606.25 509.82" />
			<path id="path156" class="shp16" d="M478.68 460.1C474.44 458.06 470.2 456.02 465.98 453.95C465.07 455.78 464.17 457.61 463.26 459.45C465.85 461.52 468.44 463.6 471.03 465.68C470.22 466.32 469.41 466.96 468.61 467.6C472.5 468.86 476.41 470.03 480.32 471.23C481.52 469.49 482.69 467.73 483.95 466.03C482.19 464.07 480.35 462.14 478.68 460.1Z" />
			<path id="path158" class="shp18" d="M557.67 888.17L557.63 906.27L568.14 906.3L568.18 886.23L557.67 888.17" />
			<path id="path160" class="shp18" d="M607.58 882.35L604.86 901.83L616.17 903.4L619.18 881.81L607.58 882.35" />
			<path id="path162" class="shp1" d="M616.32 903.4L605.98 901.83L601.9 903.37L598.91 910.48L621.86 924.72C625.38 922.76 626.11 918 623.33 915.07L622.41 914.11L616.32 903.4" />
			<path id="path164" class="shp1" d="M568.14 906.3L557.63 906.27L553.95 911.11L554.69 918.79L581.65 920.46L582.42 918.71C583.94 915.27 581.73 911.33 578 910.83L577.41 910.75L568.14 906.3" />
			<path id="path166" class="shp19" d="M525.64 713.99L544.37 799.55L555.78 896.41L573.15 896.45L586.91 653.83L528.72 654.76L525.64 713.99Z" />
			<path id="path168" class="shp19" d="M637.07 709.02L639.31 792.04L624.12 890.06L601.88 889.93L597.33 785.96L581.35 710.58L576.05 661.25L624.51 655.55L637.07 709.02" />
			<path id="path170" class="shp17" d="M602.21 472.75L547.79 478.94L538.74 509.01L525.89 597.51L519.62 672.73L607.1 674.07L635.91 669.47L628.49 590.49L617.56 500.84L602.21 472.75" />
			<path id="path172" class="shp16" d="M596.02 414.54C591.68 410.15 585.52 407.63 579.35 407.69C557.95 407.91 556.31 428.74 560.3 444.95C562.06 452.09 565.57 459.09 571.54 463.4C573.15 464.57 574.98 465.48 576.89 466.11L576.89 466.13C576.56 467.23 576.63 480.65 575.68 480.53C580.65 481.19 585.79 480.54 590.44 478.66C590.3 474.66 590.81 469.72 590.42 465.4C591.02 465.08 591.6 464.74 592.15 464.34C597.88 460.18 599.74 452.57 600.81 445.57C602.21 436.47 603.04 421.62 596.02 414.54" />
			<path id="path174" class="shp1" d="M597.49 434.48C598.18 435.29 599.35 435.5 600.19 436.15C602.98 438.35 600.27 443.17 601.96 446.29C604.12 450.28 603.73 457.3 599.58 460.62C598.17 461.75 596.27 462.54 595.68 464.24C595 466.23 596.38 468.81 594.97 470.36C597.22 472.68 601.09 472.19 604.08 470.94C607.07 469.7 609.99 467.84 613.23 467.96C614.26 468 615.49 468.16 616.13 467.35C616.51 466.87 616.52 466.2 616.58 465.58C617.33 458.15 626.09 460.05 627.26 454.03C627.57 452.41 625.59 448.41 625.63 446.29C625.68 442.91 627.61 439.89 626.46 436.43C625.99 435 625.04 433.77 624.55 432.34C623.55 429.44 624.59 426.3 625.19 423.29C625.78 420.29 625.69 416.64 623.23 414.82C621.3 413.39 618.51 413.57 616.62 412.1C612.42 408.85 615.5 400.35 610.78 397.93C608.35 396.69 605.41 398.05 602.71 397.66C599.86 397.24 597.72 394.97 595.34 393.36C592.96 391.74 589.39 390.87 587.45 393C585.81 394.79 586.25 397.76 584.75 399.67C583.47 401.29 581.19 401.64 579.31 402.53C570.51 406.69 587.09 409.4 589.48 412.32C591.48 414.78 593.62 419.4 595.08 422.23C596.77 425.52 595.69 432.36 597.49 434.48" />
			<path id="path176" class="shp1" d="M571.81 413.57C561.04 415.86 567.57 423.9 564.13 430.47C562.77 433.06 559.07 434.03 558.33 436.86C557.74 439.13 559.4 441.3 560.73 443.24C562.06 445.18 563.08 447.99 561.47 449.71C560.99 450.23 560.31 450.57 559.98 451.19C559.09 452.82 561.09 454.47 562.79 455.21C564.49 455.94 566.57 457.39 565.89 459.11C563.91 464.14 562.65 462.02 565.86 466.29C566.63 467.33 567.98 467.14 568.73 468.2C567.33 469.71 565.24 470.25 563.22 469.46C558.2 467.51 559.59 469.96 555.67 470.57C551.54 471.22 551.41 469.95 547.8 467.65C544.43 465.51 537.38 464 536.18 459.64C535.52 457.21 537.41 454.7 536.85 452.25C536.33 449.95 533.79 448.21 532.61 446.04C530.24 441.66 533.83 436.87 534.58 432.17C535.61 425.67 531.76 417.58 538.62 413.49C540.1 412.61 541.9 412.08 543.4 411.22C547.84 408.71 548.72 404.13 550.45 400.19C552.19 396.25 556.68 392.03 562.12 392.94C567.07 393.76 569.69 398.46 574.72 398.95C576.48 399.13 578.41 398.75 579.97 399.39C581.18 399.89 581.84 400.88 582.35 401.83C583.55 404.05 587.04 411.5 584.4 413.55C580.98 416.21 576.38 412.6 571.81 413.57" />
			<path id="path178" class="shp7" d="M612.69 438.97C613.21 438.18 613.74 437.31 613.85 436.35C614.02 434.86 613.26 433.71 612.01 432.97C611.27 432.53 610.45 432.29 609.67 431.96C608.01 431.27 606.67 430.49 607.43 428.07C607.55 427.69 607.88 427.31 608.04 426.94C608.65 425.55 608.79 423.87 608.32 422.42C607.95 421.29 607.18 420.31 606.03 419.93C605.09 419.63 604.18 419.96 603.23 419.89C599.69 419.65 601.02 416.38 601.26 414.39C601.67 410.85 599.24 407.82 595.72 407.37C595.17 407.3 595.18 408.16 595.72 408.23C597.49 408.46 599.01 409.49 599.87 411.07C600.74 412.65 600.39 414.2 600.1 415.89C599.86 417.32 599.79 419.06 600.99 420.11C602.86 421.75 605.61 419.5 607.16 421.92C608.65 424.25 607 426.22 606.33 428.36C604.61 433.81 615.7 432.08 612.32 437.96C611.45 439.48 609.78 440.96 610.07 442.9C610.27 444.29 611.34 445.39 612.77 445.24C613.32 445.18 613.33 444.32 612.77 444.37C610.42 444.62 610.94 441.7 611.54 440.64C611.87 440.05 612.32 439.53 612.69 438.97" />
			<path id="path180" class="shp7" d="M564.03 411.27C561.02 410.89 556.34 410.98 555.92 414.94C555.7 416.99 556.92 418.83 557.25 420.79C557.89 424.72 553.94 425.55 551.18 426.73C548.23 427.99 545.66 431.39 548.8 433.97C549.18 434.23 549.55 434.5 549.91 434.79C549.69 435.66 549.46 436.54 549.24 437.41C548.97 437.76 548.2 438.03 547.86 438.33C547.4 438.74 546.96 439.21 546.87 439.85C546.73 440.95 547.42 441.82 548.49 441.87C549.04 441.89 549.04 441.03 548.49 441C548.57 440.25 548.65 439.5 548.73 438.75C548.97 438.6 549.2 438.45 549.44 438.3C549.66 438.12 549.95 437.99 550.17 437.8C550.52 437.51 550.86 437.17 551.07 436.76C551.55 435.78 551.26 434.91 550.52 434.18C549.8 433.46 549.04 433.21 548.55 432.19C547.73 430.47 548.9 428.94 550.46 428.02C552.08 427.07 554.01 426.79 555.61 425.81C558.19 424.23 558.55 421.87 557.7 419.13C557.05 417.07 555.86 414.32 558.13 412.8C559.8 411.68 562.13 411.9 564.03 412.13C564.58 412.2 564.58 411.34 564.03 411.27" />
			<path id="path182" class="shp7" d="M543.93 426.78C544.46 426.62 544.23 425.79 543.7 425.95C541.35 426.64 538.31 427.82 538.38 430.78C538.4 431.61 538.74 432.36 539.38 432.91C540.35 433.73 541.52 433.67 542.35 434.74C543.96 436.81 541.9 439.33 539.46 438.59C538.93 438.43 538.7 439.26 539.23 439.42C541.61 440.14 544.26 438.49 543.88 435.81C543.67 434.35 542.8 433.65 541.61 432.98C539.91 432.03 538.43 430.58 540.03 428.71C540.98 427.59 542.58 427.18 543.93 426.78Z" />
			<path id="path184" class="shp17" d="M547.79 478.94C547.79 478.94 532.31 481.04 525.03 493.18L509.76 520.56L485.8 463.95L473.26 470.63L485.8 540.9C485.8 540.9 504.8 553.4 507.03 554.03C509.26 554.65 544.6 536.53 550.79 528.6L547.79 478.94" />
			<path id="path186" class="shp20" d="M498.75 673.24L511.2 911.12C511.43 917.57 516.72 922.69 523.18 922.69L670.11 922.69C676.57 922.69 681.86 917.57 682.09 911.12L694.54 673.24L498.75 673.24Z" />
			<path id="path188" class="shp21" d="M704.08 673.24L489.21 673.24L489.21 646.89L704.08 646.89L704.08 673.24" />
			<path id="path190" class="shp20" d="M694.54 646.89L498.75 646.89L513.93 576.66L679.36 576.66L694.54 646.89" />
			<path id="path192" class="shp1" d="M650.03 633.79L543.26 633.79C537.84 633.79 533.44 629.39 533.44 623.96L533.44 609.07C533.44 603.64 537.84 599.24 543.26 599.24L650.03 599.24C655.45 599.24 659.85 603.64 659.85 609.07L659.85 623.96C659.85 629.39 655.45 633.79 650.03 633.79Z" />
			<path id="path194" class="shp4" d="M625.68 800.72C625.63 800.42 625.5 800.08 625.31 799.71C625.13 799.36 624.59 798.36 623.87 797.03L625.68 800.72" />
			<path id="path196" class="shp4" d="M598.46 765.04L605.28 767.07C607.7 767.79 611.67 768.97 614.09 769.69L620.91 771.72C623.33 772.44 625.77 770.97 626.33 768.45L627.9 761.37C628.45 758.85 629.36 754.73 629.92 752.21L631.49 745.13C632.05 742.61 630.46 741.78 627.97 743.28L623.69 745.86C622.12 743.13 620.55 740.41 619.95 739.41C618.57 737.15 615.92 735.43 610.72 735.46C606.86 735.48 596.61 735.54 590.12 735.58L598.72 751.03C598.92 751.23 599.09 751.48 599.25 751.81C599.67 752.66 601.23 755.58 602.78 758.47L598.59 760.99C596.1 762.49 596.04 764.31 598.46 765.04" />
			<path id="path198" class="shp4" d="M574.62 740.73C572.41 744.16 566.81 753.3 566.81 753.3C565.55 755.35 566.19 758.03 568.23 759.25L581.97 767.5C584.01 768.72 586.69 768.04 587.91 765.97C587.91 765.97 595.66 752.94 596.38 751.73C597.11 750.48 598.01 750.29 598.72 751.03L590.12 735.57C587.87 735.59 586.08 735.6 585.16 735.61C581.58 735.63 577.49 736.26 574.62 740.73" />
			<path id="path200" class="shp4" d="M550.31 798.49C551.86 801.57 556.15 809.48 559.29 815.27L569.03 798.98C570.17 796.98 572.3 793.26 574.07 790.19L579.06 793.02C581.59 794.46 583.15 793.59 582.54 791.09L580.79 784.04C580.17 781.54 579.16 777.45 578.54 774.94L576.8 767.9C576.18 765.4 573.71 763.99 571.31 764.77L564.54 766.98C562.13 767.76 558.2 769.05 555.8 769.83L549.03 772.03C546.63 772.81 546.73 774.63 549.26 776.07L552.93 778.16C551.06 781.88 548.85 786.26 548.29 787.52C547.28 789.79 547.91 793.72 550.31 798.49" />
			<path id="path202" class="shp4" d="M569.03 798.98L559.29 815.27C561.04 818.5 562.43 821.08 562.8 821.79C563.83 823.79 565.3 827.7 574.6 827.65C583.88 827.59 588.11 827.57 588.11 827.57C590.47 827.56 592.39 825.57 592.38 823.15L592.29 806.83C592.27 804.41 590.33 802.44 587.96 802.46C587.96 802.46 572.15 802.55 569.51 802.57C567.85 802.58 567.63 801.45 568.22 800.4C568.3 800.25 568.59 799.74 569.03 798.98" />
			<path id="path204" class="shp4" d="M625.68 800.72L633.73 817.17C636.55 811.86 641.33 802.64 643.29 798.65C645.9 793.32 646.64 788.69 645.43 786.26C644.23 783.83 638.27 772 638.27 772C637.18 769.85 634.65 769.13 632.63 770.4L618.99 778.99C616.97 780.25 616.27 783.02 617.41 785.13C617.41 785.13 621.56 792.76 623.87 797.03C624.59 798.36 625.13 799.36 625.31 799.71C625.5 800.08 625.63 800.42 625.68 800.72" />
			<path id="path206" class="shp4" d="M631.74 820.86C632.06 820.31 632.78 818.96 633.73 817.17L625.68 800.72C625.85 801.68 625.38 802.33 624.22 802.34C623.43 802.34 619.51 802.36 615.9 802.39L615.85 797.29C615.82 794.32 614.31 793.36 612.49 795.15L607.36 800.17C605.54 801.96 602.56 804.88 600.74 806.67L595.62 811.69C593.79 813.48 593.82 816.38 595.67 818.13L600.88 823.06C602.74 824.81 605.77 827.68 607.62 829.43L612.83 834.37C614.69 836.12 616.18 835.13 616.16 832.17L616.11 827.32C618.15 827.3 620.4 827.29 622.49 827.28C628.28 827.25 630.47 823.05 631.74 820.86" />
			<path id="path208" class="shp7" d="M256.12 673.24L268.57 911.12C268.8 917.57 274.1 922.69 280.55 922.69L427.49 922.69C433.94 922.69 439.24 917.57 439.47 911.12L451.92 673.24L256.12 673.24Z" />
			<path id="path210" class="shp22" d="M461.46 673.24L246.59 673.24L246.59 646.89L461.46 646.89L461.46 673.24" />
			<path id="path212" class="shp7" d="M451.92 646.89L256.12 646.89L271.31 576.66L436.73 576.66L451.92 646.89" />
			<path id="path214" class="shp1" d="M407.4 633.79L300.64 633.79C295.21 633.79 290.81 629.39 290.81 623.96L290.81 609.07C290.81 603.64 295.21 599.24 300.64 599.24L407.4 599.24C412.83 599.24 417.23 603.64 417.23 609.07L417.23 623.96C417.23 629.39 412.83 633.79 407.4 633.79" />
			<path id="path216" class="shp4" d="M383.06 800.72C383 800.42 382.88 800.08 382.69 799.71C382.51 799.36 381.97 798.36 381.25 797.03L383.06 800.72" />
			<path id="path218" class="shp4" d="M355.84 765.04L362.65 767.07C365.08 767.79 369.04 768.97 371.47 769.69L378.28 771.72C380.71 772.44 383.14 770.97 383.7 768.45L385.27 761.37C385.83 758.85 386.73 754.73 387.29 752.21L388.86 745.13C389.42 742.61 387.84 741.78 385.34 743.28L381.06 745.86C379.49 743.13 377.93 740.41 377.32 739.41C375.95 737.15 373.3 735.43 368.1 735.46C364.24 735.48 353.98 735.54 347.49 735.58L356.1 751.03C356.29 751.23 356.47 751.48 356.63 751.81C357.04 752.66 358.6 755.58 360.15 758.47L355.97 760.99C353.47 762.49 353.41 764.31 355.84 765.04" />
			<path id="path220" class="shp4" d="M331.99 740.73C329.78 744.16 324.18 753.3 324.18 753.3C322.92 755.35 323.56 758.03 325.6 759.25L339.34 767.5C341.38 768.72 344.06 768.04 345.28 765.97C345.28 765.97 353.03 752.94 353.75 751.73C354.49 750.48 355.38 750.29 356.1 751.03L347.49 735.57C345.25 735.59 343.45 735.6 342.53 735.61C338.95 735.63 334.86 736.26 331.99 740.73" />
			<path id="path222" class="shp4" d="M307.69 798.49C309.24 801.57 313.52 809.48 316.66 815.27L326.4 798.98C327.55 796.98 329.67 793.26 331.45 790.19L336.43 793.02C338.96 794.46 340.53 793.59 339.91 791.09L338.17 784.04C337.55 781.54 336.54 777.45 335.92 774.94L334.18 767.9C333.56 765.4 331.08 763.99 328.68 764.77L321.91 766.98C319.51 767.76 315.58 769.05 313.17 769.83L306.41 772.03C304 772.81 304.1 774.63 306.63 776.07L310.31 778.16C308.43 781.88 306.22 786.26 305.66 787.52C304.66 789.79 305.28 793.72 307.69 798.49" />
			<path id="path224" class="shp4" d="M326.4 798.98L316.66 815.27C318.41 818.5 319.81 821.08 320.18 821.79C321.21 823.79 322.68 827.7 331.97 827.65C341.26 827.59 345.48 827.57 345.48 827.57C347.84 827.56 349.77 825.57 349.75 823.15L349.66 806.83C349.65 804.41 347.71 802.44 345.34 802.46C345.34 802.46 329.52 802.55 326.89 802.57C325.22 802.58 325.01 801.45 325.59 800.4C325.67 800.25 325.97 799.74 326.4 798.98" />
			<path id="path226" class="shp4" d="M383.06 800.72L391.11 817.17C393.92 811.86 398.71 802.64 400.66 798.65C403.28 793.32 404.02 788.69 402.81 786.26C401.6 783.83 395.64 772 395.64 772C394.56 769.85 392.03 769.13 390.01 770.4L376.36 778.99C374.35 780.25 373.64 783.02 374.79 785.13C374.79 785.13 378.94 792.76 381.25 797.03C381.97 798.36 382.51 799.36 382.69 799.71C382.88 800.08 383 800.42 383.06 800.72" />
			<path id="path228" class="shp4" d="M389.11 820.86C389.43 820.31 390.16 818.96 391.11 817.17L383.06 800.72C383.23 801.68 382.75 802.33 381.6 802.34C380.8 802.34 376.88 802.36 373.27 802.39L373.23 797.29C373.2 794.32 371.69 793.36 369.87 795.15L364.74 800.17C362.92 801.96 359.94 804.88 358.12 806.67L352.99 811.69C351.17 813.48 351.2 816.38 353.04 818.13L358.26 823.06C360.11 824.81 363.14 827.68 365 829.43L370.21 834.37C372.06 836.12 373.56 835.13 373.53 832.17L373.49 827.32C375.53 827.3 377.78 827.29 379.86 827.28C385.66 827.25 387.85 823.05 389.11 820.86Z" />
			<path id="path230" class="shp23" d="M731.24 670.2L743.69 908.09C743.92 914.54 749.21 919.65 755.67 919.65L902.6 919.65C909.06 919.65 914.35 914.54 914.58 908.09L927.03 670.2L731.24 670.2Z" />
			<path id="path232" class="shp24" d="M936.57 670.2L721.7 670.2L721.7 643.85L936.57 643.85L936.57 670.2Z" />
			<path id="path234" class="shp23" d="M927.03 643.85L731.24 643.85L746.42 573.62L911.85 573.62L927.03 643.85" />
			<path id="path236" class="shp1" d="M882.52 630.75L775.75 630.75C770.33 630.75 765.93 626.35 765.93 620.92L765.93 606.03C765.93 600.6 770.33 596.2 775.75 596.2L882.52 596.2C887.94 596.2 892.34 600.6 892.34 606.03L892.34 620.92C892.34 626.35 887.94 630.75 882.52 630.75Z" />
			<path id="path238" class="shp4" d="M858.17 797.69C858.11 797.38 857.99 797.04 857.8 796.68C857.62 796.33 857.08 795.32 856.36 794L858.17 797.69" />
			<path id="path240" class="shp4" d="M830.95 762L837.77 764.03C840.19 764.75 844.15 765.93 846.58 766.65L853.4 768.68C855.82 769.4 858.26 767.93 858.81 765.41L860.39 758.33C860.94 755.81 861.85 751.69 862.41 749.17L863.98 742.09C864.54 739.57 862.95 738.74 860.45 740.25L856.18 742.83C854.61 740.09 853.04 737.37 852.44 736.38C851.06 734.12 848.41 732.39 843.21 732.42C839.35 732.44 829.1 732.5 822.61 732.54L831.21 748C831.41 748.19 831.58 748.44 831.74 748.77C832.15 749.62 833.71 752.54 835.27 755.43L831.08 757.95C828.59 759.46 828.53 761.28 830.95 762" />
			<path id="path242" class="shp4" d="M807.11 737.69C804.9 741.12 799.29 750.26 799.29 750.26C798.04 752.31 798.68 754.99 800.72 756.21L814.46 764.46C816.5 765.69 819.17 765 820.4 762.93C820.4 762.93 828.15 749.9 828.87 748.69C829.6 747.44 830.49 747.25 831.21 748L822.61 732.54C820.36 732.55 818.57 732.56 817.65 732.57C814.07 732.59 809.98 733.23 807.11 737.69Z" />
			<path id="path244" class="shp4" d="M782.8 795.46C784.35 798.53 788.64 806.44 791.78 812.24L801.51 795.95C802.66 793.94 804.79 790.23 806.56 787.15L811.55 789.98C814.08 791.42 815.64 790.55 815.03 788.05L813.28 781.01C812.66 778.51 811.65 774.41 811.03 771.91L809.29 764.86C808.67 762.36 806.2 760.95 803.79 761.74L797.03 763.94C794.62 764.73 790.69 766.01 788.29 766.79L781.52 768.99C779.12 769.78 779.22 771.6 781.75 773.03L785.42 775.13C783.55 778.84 781.34 783.23 780.78 784.49C779.77 786.76 780.39 790.68 782.8 795.46" />
			<path id="path246" class="shp4" d="M801.51 795.95L791.78 812.24C793.53 815.46 794.92 818.04 795.29 818.75C796.32 820.75 797.79 824.67 807.08 824.61C816.37 824.56 820.59 824.53 820.59 824.53C822.96 824.52 824.88 822.53 824.87 820.11L824.78 803.79C824.76 801.38 822.82 799.41 820.45 799.42C820.45 799.42 804.64 799.51 802 799.53C800.33 799.54 800.12 798.41 800.71 797.36C800.79 797.22 801.08 796.7 801.51 795.95" />
			<path id="path248" class="shp4" d="M858.17 797.69L866.22 814.14C869.04 808.83 873.82 799.6 875.77 795.61C878.39 790.28 879.13 785.65 877.92 783.22C876.72 780.79 870.76 768.96 870.76 768.96C869.67 766.81 867.14 766.09 865.12 767.36L851.47 775.95C849.46 777.22 848.75 779.98 849.9 782.1C849.9 782.1 854.05 789.73 856.36 794C857.08 795.32 857.62 796.33 857.8 796.68C857.99 797.04 858.11 797.38 858.17 797.69Z" />
			<path id="path250" class="shp4" d="M864.23 817.83C864.54 817.27 865.27 815.93 866.22 814.14L858.17 797.69C858.34 798.64 857.87 799.29 856.71 799.3C855.92 799.3 852 799.33 848.38 799.35L848.34 794.25C848.31 791.29 846.8 790.32 844.98 792.11L839.85 797.14C838.03 798.92 835.05 801.85 833.23 803.63L828.1 808.66C826.28 810.44 826.31 813.34 828.16 815.09L833.37 820.02C835.22 821.78 838.25 824.64 840.11 826.39L845.32 831.33C847.17 833.08 848.67 832.09 848.64 829.13L848.6 824.28C850.64 824.27 852.89 824.25 854.97 824.24C860.77 824.21 862.96 820.01 864.23 817.83" />
			<path id="path252" class="shp13" d="M1138.83 479.02C1137.18 476.82 1135.52 474.63 1133.86 472.43C1134.23 470.03 1134.61 467.64 1134.98 465.24C1134.51 464.9 1134.04 464.57 1133.57 464.23C1133.14 464.79 1132.7 465.35 1132.26 465.9C1132 463.83 1131.74 461.75 1131.48 459.67C1130.24 458.51 1129 457.34 1127.76 456.18C1125.54 456.62 1123.32 457.06 1121.1 457.5C1119.58 459.27 1118.05 461.03 1116.52 462.8C1117.19 464.94 1117.86 467.15 1118.53 469.25C1120.55 471.43 1122.41 472.43 1124.47 474.89C1126.53 477.35 1128.78 481.28 1130.87 484.03C1133.53 482.4 1136.18 480.68 1138.83 479.02" />
			<path id="path254" class="shp10" d="M1138.45 469.94C1146.73 478.85 1155.14 487.67 1162.77 497.18C1167.5 503.06 1173.96 519.62 1182.25 513.48C1191.6 506.56 1200.95 499.63 1210.3 492.71C1211.92 491.51 1213.57 490.3 1215.48 489.64C1226.55 485.87 1231.92 501.18 1234.39 509.54C1235.81 514.35 1235.6 512.68 1236.65 517.57C1237.24 520.29 1237.75 523.18 1236.85 525.72C1235.76 528.76 1232.9 530.6 1230.17 532.15C1218.75 538.65 1206.53 543.71 1193.82 547.25C1187.12 549.11 1180.28 550.56 1173.36 551.54C1165.95 552.58 1165.48 551.19 1162.13 544.33C1150.33 520.13 1136.73 504.12 1125.57 479.62C1129.86 476.39 1134.15 473.17 1138.45 469.94" />
			<path id="path256" class="shp14" d="M751.93 422L748.98 393.6C748.59 389.96 745.41 387.27 741.75 387.48L735.45 387.85C731.79 388.06 728.95 391.1 728.97 394.76L729.31 423.31C729.33 426.07 727.72 428.61 725.17 429.66C718.3 432.46 713.61 439.42 714.06 447.21L720.3 555.17C720.52 558.96 723.77 561.85 727.56 561.63L769.62 559.2C773.41 558.98 776.3 555.73 776.08 551.94L769.84 443.98C769.39 436.19 763.93 429.82 756.79 427.83C754.13 427.09 752.23 424.74 751.93 422" />
			<path id="path258" class="shp1" d="M750.78 391.87L726.98 393.25L726.65 387.55L750.45 386.18L750.78 391.87Z" />
			<path id="path260" class="shp4" d="M768.28 481.47L764.74 481.67L762.88 449.59C761.4 436.47 754.01 436.4 753.69 436.41L753.59 432.85C754.03 432.84 764.54 432.66 766.42 449.29L768.28 481.47Z" />
			<path id="path262" class="shp17" d="M405.26 885.95C399.58 885.95 394.97 890.56 394.97 896.25L394.97 932.69C394.97 938.38 399.58 942.98 405.26 942.98L436.9 942.98C443.35 942.98 449.29 940.79 454.08 937.15C458.57 940.79 464.28 942.98 470.47 942.98L520.51 942.98C524.89 942.98 528.44 939.43 528.44 935.05L528.44 893.88C528.44 889.5 524.89 885.95 520.51 885.95L470.47 885.95C464.28 885.95 458.57 888.15 454.08 891.78C449.29 888.14 443.35 885.95 436.9 885.95L405.26 885.95" />
			<path id="path264" class="shp17" d="M395.73 925.95L384.55 925.95L384.55 902.99L395.73 902.99L395.73 925.95Z" />
			<path id="path266" class="shp1" d="M386.73 927.74L371.93 927.74L371.93 901.2L386.73 901.2L386.73 927.74Z" />
			<path id="path268" class="shp25" d="M475.26 937.5L472.22 937.5L472.22 891.44L475.26 891.44L475.26 937.5Z" />
			<path id="path270" class="shp25" d="M491.71 937.5L488.67 937.5L488.67 891.44L491.71 891.44L491.71 937.5Z" />
			<path id="path272" class="shp25" d="M507.15 937.5L504.11 937.5L504.11 891.44L507.15 891.44L507.15 937.5Z" />
			<path id="path274" class="shp10" d="M346.51 308.65C342.84 303.49 335.69 302.28 330.52 305.95L297.43 329.45C292.27 333.12 291.06 340.28 294.73 345.44L315.13 374.17C319.29 380.02 325.11 384 331.51 386C331.11 392.43 332.79 399.03 336.79 404.65L369.06 450.08C371.89 454.06 377.4 454.99 381.38 452.17L418.76 425.61C422.74 422.78 423.67 417.27 420.85 413.29L388.58 367.86C384.58 362.24 378.91 358.47 372.7 356.74C372.92 350.04 371.08 343.23 366.92 337.38L346.51 308.65" />
			<path id="path276" class="shp10" d="M324.89 310.98L304.04 325.8L296.83 315.65L317.68 300.84L324.89 310.98Z" />
			<path id="path278" class="shp7" d="M320.71 301.66L296.61 318.77L287.07 305.33L311.16 288.22L320.71 301.66Z" />
			<path id="path280" class="shp25" d="M386.68 375.74L344.86 405.46L342.9 402.7L384.72 372.99L386.68 375.74" />
			<path id="path282" class="shp25" d="M397.29 390.68L355.47 420.39L353.51 417.63L395.33 387.92L397.29 390.68" />
			<path id="path284" class="shp25" d="M407.25 404.7L365.43 434.41L363.47 431.65L405.29 401.94L407.25 404.7Z" />
			<path id="path286" class="shp8" d="M715.44 510.98L719.64 506.87L723.98 512.42L728.6 513.2L733.98 522.54L727.69 531.64L715.02 534.26L710.86 518.64L715.44 510.98" />
			<path id="path288" class="shp26" d="M1008.23 400.78L1162.65 377.98L1186.94 341.2L1033.91 363.8C1033.91 363.8 1009.13 402.07 1008.23 400.78" />
			<path id="path290" class="shp27" d="M1042.6 372.77L1137.97 358.68L1141.39 381.84L1044.54 396.14L1042.6 372.77Z" />
			<path id="path292" class="shp28" d="M1026.05 329.74C1026.05 329.74 1027.7 338.05 1034.57 353.45L1072.74 445.26L1062.33 449.59L1014.49 334.54L1026.05 329.74" />
			<path id="path294" class="shp28" d="M1026.05 329.74C1027.72 333.75 1021.48 340.17 1012.12 344.06C1002.76 347.95 993.81 347.85 992.14 343.84C990.47 339.82 996.71 333.41 1006.07 329.51C1015.43 325.62 1024.38 325.72 1026.05 329.74Z" />
			<path id="path296" class="shp29" d="M1001.33 336.83L1005.28 346.34C1007.15 345.91 1009.1 345.32 1011.07 344.5C1017.45 341.84 1022.91 338.49 1023.12 334.16C1020.66 329.17 1007.02 334.39 1001.33 336.83" />
			<path id="path298" class="shp25" d="M1011.8 344.19C1008.53 345.51 1005.33 346.35 1002.48 346.71C997.26 347.36 993.21 346.4 992.14 343.84L1017.77 405.46L1039.98 458.88L1069.82 446.47L1023.95 336.14L1023.12 334.16C1022.92 338.32 1017.86 341.58 1011.8 344.19" />
			<path id="path300" class="shp28" d="M1201.76 302.15C1201.76 302.15 1197.03 310.56 1190.19 328.72L1148.04 435.08L1139.82 431.82L1192.64 298.54L1201.76 302.15" />
			<path id="path302" class="shp28" d="M1201.76 302.15C1199.92 306.81 1192.43 308.2 1185.05 305.28C1177.66 302.35 1173.16 296.2 1175.01 291.55C1176.85 286.89 1184.34 285.5 1191.73 288.42C1199.11 291.35 1203.61 297.5 1201.76 302.15Z" />
			<path id="path304" class="shp29" d="M1184.39 291.63L1180.03 302.64C1181.27 303.54 1182.66 304.33 1184.22 304.95C1189.25 306.94 1194.29 307.7 1197.3 304.05C1199.39 298.01 1188.93 293.34 1184.39 291.63Z" />
			<path id="path306" class="shp25" d="M1184.8 305.17C1182.24 304.12 1180.05 302.69 1178.35 301.07C1175.25 298.11 1173.83 294.52 1175.01 291.55L1146.72 362.94L1122.19 424.84L1145.74 434.17L1196.39 306.35L1197.3 304.05C1194.41 307.56 1189.64 306.99 1184.8 305.17Z" />
			<path id="path308" class="shp28" d="M1166.43 293.65C1166.43 293.65 1163.91 302.96 1161.74 322.25L1147.02 435.71L1138.26 434.57L1156.7 292.39L1166.43 293.65" />
			<path id="path310" class="shp28" d="M1166.43 293.65C1165.79 298.62 1158.88 301.81 1151 300.79C1143.11 299.77 1137.25 294.91 1137.89 289.95C1138.54 284.99 1145.45 281.79 1153.33 282.81C1161.21 283.84 1167.08 288.69 1166.43 293.65Z" />
			<path id="path312" class="shp29" d="M1147.01 287.72L1145.49 299.47C1146.9 300.03 1148.45 300.46 1150.11 300.68C1155.48 301.37 1160.55 300.87 1162.57 296.59C1163.12 290.22 1151.83 288.27 1147.01 287.72Z" />
			<path id="path314" class="shp25" d="M1150.73 300.75C1147.99 300.36 1145.51 299.51 1143.47 298.36C1139.74 296.25 1137.48 293.12 1137.89 289.95L1128.01 366.11L1119.45 432.13L1144.57 435.39L1162.26 299.04L1162.58 296.59C1160.63 300.7 1155.87 301.32 1150.73 300.75" />
			<path id="path316" class="shp30" d="M1091.67 316.44C1091.67 316.44 1089.35 325.74 1088.94 344.82L1083.71 457.18L1070.96 456.58L1077.52 315.78L1091.67 316.44Z" />
			<path id="path318" class="shp30" d="M1091.67 316.44C1091.44 321.35 1081.97 324.91 1070.51 324.37C1059.05 323.84 1049.94 319.42 1050.17 314.5C1050.4 309.59 1059.88 306.04 1071.34 306.57C1082.79 307.1 1091.9 311.52 1091.67 316.44Z" />
			<path id="path320" class="shp31" d="M1062.95 311.77L1062.41 323.4C1064.52 323.87 1066.8 324.2 1069.22 324.31C1077.03 324.68 1084.23 323.88 1086.54 319.55C1086.43 313.27 1069.95 312.02 1062.95 311.77" />
			<path id="path322" class="shp32" d="M1070.12 324.35C1066.13 324.13 1062.45 323.44 1059.36 322.43C1053.7 320.58 1050.03 317.65 1050.17 314.51L1046.66 389.92L1043.61 455.31L1080.13 457.01L1086.43 321.98L1086.54 319.55C1084.32 323.71 1077.57 324.61 1070.12 324.35" />
			<path id="path324" class="shp33" d="M1178.71 486.69L1024.29 509.5L1008.23 400.79L1162.65 377.98L1178.71 486.69" />
			<path id="path326" class="shp34" d="M1008.23 400.78L1005.72 448.66L1158.05 426.17L1162.57 377.26L1008.23 400.78" />
			<path id="path328" class="shp3" d="M1186.8 340.23L1201.88 442.36L1178.56 485.72L1162.51 377.01L1186.8 340.23Z" />
			<path id="path330" class="shp35" d="M1162.65 377.98L1182.2 409.72L1206.61 371.45L1186.94 341.2L1162.65 377.98" />
			<path id="path332" class="shp14" d="M1072.44 391.34C1072.44 391.34 1100.39 386.52 1112.79 408.77C1112.79 408.77 1144.24 378.63 1151.92 378.69L1128.01 366.11L1110.83 373.79L1072.44 391.34" />
			<path id="path334" class="shp36" d="M467.46 479.31C467.19 479.63 466.92 479.94 466.65 480.26L466.76 480.53C467.03 480.17 467.27 479.79 467.46 479.31" />
			<path id="path336" class="shp36" d="M453.84 465.31C447.44 463 440.33 465.36 434.21 468.31C425.48 472.53 417.36 478 410.19 484.5C404.24 489.89 398.17 496.36 390.17 496.98C386.62 497.25 383.09 496.3 379.53 496.22C375.97 496.13 371.98 497.22 370.23 500.32C368.22 503.87 369.97 508.35 372.14 511.8C375.45 517.04 380.01 521.83 385.92 523.68C389.8 524.89 393.97 524.75 398 524.25C416.58 521.95 433.25 512.35 447.21 500.27C456.59 492.15 473.26 472.31 453.84 465.31" />
			<path id="path338" class="shp37" d="M467.09 471.5C467 471.9 466.9 472.31 466.81 472.72L467.03 472.91C467.1 472.47 467.14 472.01 467.09 471.5" />
			<path id="path340" class="shp37" d="M448.55 465.35C441.81 466.25 436.59 471.61 432.51 477.06C426.7 484.81 422.02 493.41 418.64 502.49C415.85 510.01 413.44 518.54 406.63 522.78C403.6 524.66 400.02 525.44 396.82 527.01C393.62 528.57 390.59 531.37 390.46 534.93C390.31 539.01 393.92 542.18 397.45 544.24C402.79 547.36 409.05 549.52 415.15 548.44C419.14 547.73 422.78 545.68 426.13 543.38C441.56 532.78 451.94 516.59 458.77 499.43C463.35 487.91 469.01 462.62 448.55 465.35" />
			<path id="path342" class="shp37" d="M449.82 470.57C449.7 470.97 449.59 471.37 449.47 471.77L449.18 471.83C449.33 471.41 449.53 470.99 449.82 470.57" />
			<path id="path344" class="shp37" d="M469.01 474.18C474.48 478.24 476.44 485.46 477.37 492.2C478.68 501.8 478.62 511.59 477.16 521.17C475.96 529.1 473.93 537.73 477.84 544.74C479.57 547.85 482.32 550.26 484.36 553.19C486.4 556.11 487.7 560.03 486.08 563.21C484.24 566.85 479.54 567.86 475.46 567.96C469.27 568.1 462.75 566.95 457.95 563.05C454.79 560.49 452.61 556.94 450.79 553.3C442.43 536.55 441.21 517.36 443.55 499.03C445.13 486.74 452.44 461.87 469.01 474.18" />
			<path id="path346" class="shp37" d="M460.6 479.41L451.69 473.85C450.11 472.87 449.63 470.79 450.61 469.22L457.68 457.89C458.66 456.32 460.73 455.84 462.31 456.82L471.22 462.38C472.8 463.36 473.28 465.44 472.3 467.01L465.23 478.34C464.25 479.91 462.18 480.39 460.6 479.41Z" />
		</g>
	</g>
</svg>